  0
SECTION
  2
HEADER
  9
$ACADVER
  1
AC1009
  9
$EXTMIN
 10
0.0
 20
0.0
 30
0.0
  9
$EXTMAX
 10
1000.0
 20
1000.0
 30
0.0
  9
$FILLMODE
 70
 0
  9
$SPLFRAME
 70
 1
  0
ENDSEC
  0
SECTION
  2
TABLES
  0
TABLE
  2
LAYER
 70
1
  0
LAYER
  2
0
 70
     0
 62
     7
  6
CONTINUOUS
  0
ENDTAB
  0
ENDSEC
  0
SECTION
  2
ENTITIES
  0
LINE
  8
0
 62
     0
 10
0.0950846
 20
163.946
 30
0.0
 11
387.759
 21
163.946
 31
0.0
  0
LINE
  8
0
 62
     0
 10
387.759
 20
163.946
 30
0.0
 11
387.759
 21
0.121267
 31
0.0
  0
LINE
  8
0
 62
     0
 10
387.759
 20
0.121267
 30
0.0
 11
0.0950846
 21
0.121267
 31
0.0
  0
LINE
  8
0
 62
     0
 10
0.0950846
 20
0.121267
 30
0.0
 11
0.0950846
 21
163.946
 31
0.0
  0
LINE
  8
0
 62
     0
 10
144.063
 20
36.6476
 30
0.0
 11
144.063
 21
35.6471
 31
0.0
  0
LINE
  8
0
 62
     0
 10
144.063
 20
35.6471
 30
0.0
 11
143.262
 21
35.6471
 31
0.0
  0
LINE
  8
0
 62
     0
 10
143.262
 20
35.6471
 30
0.0
 11
143.262
 21
32.5465
 31
0.0
  0
LINE
  8
0
 62
     0
 10
143.262
 20
32.5465
 30
0.0
 11
144.063
 21
32.5465
 31
0.0
  0
LINE
  8
0
 62
     0
 10
144.063
 20
32.5465
 30
0.0
 11
144.063
 21
31.9471
 31
0.0
  0
LINE
  8
0
 62
     0
 10
144.063
 20
31.9471
 30
0.0
 11
104.437
 21
31.9471
 31
0.0
  0
LINE
  8
0
 62
     0
 10
104.437
 20
31.9471
 30
0.0
 11
104.437
 21
35.1772
 31
0.0
  0
LINE
  8
0
 62
     0
 10
104.437
 20
35.1772
 30
0.0
 11
102.712
 21
35.1772
 31
0.0
  0
LINE
  8
0
 62
     0
 10
102.712
 20
35.1772
 30
0.0
 11
102.712
 21
36.0976
 31
0.0
  0
LINE
  8
0
 62
     0
 10
102.712
 20
36.0976
 30
0.0
 11
99.4131
 21
36.0976
 31
0.0
  0
LINE
  8
0
 62
     0
 10
99.4131
 20
36.0976
 30
0.0
 11
99.4131
 21
35.1772
 31
0.0
  0
LINE
  8
0
 62
     0
 10
99.4131
 20
35.1772
 30
0.0
 11
97.6877
 21
35.1772
 31
0.0
  0
LINE
  8
0
 62
     0
 10
97.6877
 20
35.1772
 30
0.0
 11
97.6877
 21
31.9471
 31
0.0
  0
LINE
  8
0
 62
     0
 10
97.6877
 20
31.9471
 30
0.0
 11
96.8622
 21
31.9471
 31
0.0
  0
LINE
  8
0
 62
     0
 10
96.8622
 20
31.9471
 30
0.0
 11
96.8622
 21
29.1469
 31
0.0
  0
LINE
  8
0
 62
     0
 10
96.8622
 20
29.1469
 30
0.0
 11
97.6877
 21
29.1469
 31
0.0
  0
LINE
  8
0
 62
     0
 10
97.6877
 20
29.1469
 30
0.0
 11
97.6877
 21
22.8768
 31
0.0
  0
LINE
  8
0
 62
     0
 10
97.6877
 20
22.8768
 30
0.0
 11
99.4131
 21
22.8768
 31
0.0
  0
LINE
  8
0
 62
     0
 10
99.4131
 20
22.8768
 30
0.0
 11
99.4131
 21
21.897
 31
0.0
  0
LINE
  8
0
 62
     0
 10
99.4131
 20
21.897
 30
0.0
 11
102.712
 21
21.897
 31
0.0
  0
LINE
  8
0
 62
     0
 10
102.712
 20
21.897
 30
0.0
 11
102.712
 21
22.8768
 31
0.0
  0
LINE
  8
0
 62
     0
 10
102.712
 20
22.8768
 30
0.0
 11
104.437
 21
22.8768
 31
0.0
  0
LINE
  8
0
 62
     0
 10
104.437
 20
22.8768
 30
0.0
 11
104.437
 21
27.3472
 31
0.0
  0
LINE
  8
0
 62
     0
 10
104.437
 20
27.3472
 30
0.0
 11
144.063
 21
27.3472
 31
0.0
  0
LINE
  8
0
 62
     0
 10
144.063
 20
27.3472
 30
0.0
 11
144.063
 21
26.7477
 31
0.0
  0
LINE
  8
0
 62
     0
 10
144.063
 20
26.7477
 30
0.0
 11
143.262
 21
26.7477
 31
0.0
  0
LINE
  8
0
 62
     0
 10
143.262
 20
26.7477
 30
0.0
 11
143.262
 21
23.6472
 31
0.0
  0
LINE
  8
0
 62
     0
 10
143.262
 20
23.6472
 30
0.0
 11
144.063
 21
23.6472
 31
0.0
  0
LINE
  8
0
 62
     0
 10
144.063
 20
23.6472
 30
0.0
 11
144.063
 21
22.6467
 31
0.0
  0
LINE
  8
0
 62
     0
 10
144.063
 20
22.6467
 30
0.0
 11
158.062
 21
22.6467
 31
0.0
  0
LINE
  8
0
 62
     0
 10
158.062
 20
22.6467
 30
0.0
 11
158.062
 21
23.6472
 31
0.0
  0
LINE
  8
0
 62
     0
 10
158.062
 20
23.6472
 30
0.0
 11
158.863
 21
23.6472
 31
0.0
  0
LINE
  8
0
 62
     0
 10
158.863
 20
23.6472
 30
0.0
 11
158.863
 21
26.7477
 31
0.0
  0
LINE
  8
0
 62
     0
 10
158.863
 20
26.7477
 30
0.0
 11
158.062
 21
26.7477
 31
0.0
  0
LINE
  8
0
 62
     0
 10
158.062
 20
26.7477
 30
0.0
 11
158.062
 21
27.3472
 31
0.0
  0
LINE
  8
0
 62
     0
 10
158.062
 20
27.3472
 30
0.0
 11
197.688
 21
27.3472
 31
0.0
  0
LINE
  8
0
 62
     0
 10
197.688
 20
27.3472
 30
0.0
 11
197.688
 21
22.8768
 31
0.0
  0
LINE
  8
0
 62
     0
 10
197.688
 20
22.8768
 30
0.0
 11
199.413
 21
22.8768
 31
0.0
  0
LINE
  8
0
 62
     0
 10
199.413
 20
22.8768
 30
0.0
 11
199.413
 21
21.897
 31
0.0
  0
LINE
  8
0
 62
     0
 10
199.413
 20
21.897
 30
0.0
 11
202.712
 21
21.897
 31
0.0
  0
LINE
  8
0
 62
     0
 10
202.712
 20
21.897
 30
0.0
 11
202.712
 21
22.8768
 31
0.0
  0
LINE
  8
0
 62
     0
 10
202.712
 20
22.8768
 30
0.0
 11
204.438
 21
22.8768
 31
0.0
  0
LINE
  8
0
 62
     0
 10
204.438
 20
22.8768
 30
0.0
 11
204.438
 21
29.1469
 31
0.0
  0
LINE
  8
0
 62
     0
 10
204.438
 20
29.1469
 30
0.0
 11
205.263
 21
29.1469
 31
0.0
  0
LINE
  8
0
 62
     0
 10
205.263
 20
29.1469
 30
0.0
 11
205.263
 21
31.9471
 31
0.0
  0
LINE
  8
0
 62
     0
 10
205.263
 20
31.9471
 30
0.0
 11
204.438
 21
31.9471
 31
0.0
  0
LINE
  8
0
 62
     0
 10
204.438
 20
31.9471
 30
0.0
 11
204.438
 21
35.1772
 31
0.0
  0
LINE
  8
0
 62
     0
 10
204.438
 20
35.1772
 30
0.0
 11
202.712
 21
35.1772
 31
0.0
  0
LINE
  8
0
 62
     0
 10
202.712
 20
35.1772
 30
0.0
 11
202.712
 21
36.0976
 31
0.0
  0
LINE
  8
0
 62
     0
 10
202.712
 20
36.0976
 30
0.0
 11
199.413
 21
36.0976
 31
0.0
  0
LINE
  8
0
 62
     0
 10
199.413
 20
36.0976
 30
0.0
 11
199.413
 21
35.1772
 31
0.0
  0
LINE
  8
0
 62
     0
 10
199.413
 20
35.1772
 30
0.0
 11
197.688
 21
35.1772
 31
0.0
  0
LINE
  8
0
 62
     0
 10
197.688
 20
35.1772
 30
0.0
 11
197.688
 21
31.9471
 31
0.0
  0
LINE
  8
0
 62
     0
 10
197.688
 20
31.9471
 30
0.0
 11
158.062
 21
31.9471
 31
0.0
  0
LINE
  8
0
 62
     0
 10
158.062
 20
31.9471
 30
0.0
 11
158.062
 21
32.5465
 31
0.0
  0
LINE
  8
0
 62
     0
 10
158.062
 20
32.5465
 30
0.0
 11
158.863
 21
32.5465
 31
0.0
  0
LINE
  8
0
 62
     0
 10
158.863
 20
32.5465
 30
0.0
 11
158.863
 21
35.6471
 31
0.0
  0
LINE
  8
0
 62
     0
 10
158.863
 20
35.6471
 30
0.0
 11
158.062
 21
35.6471
 31
0.0
  0
LINE
  8
0
 62
     0
 10
158.062
 20
35.6471
 30
0.0
 11
158.062
 21
36.6476
 31
0.0
  0
LINE
  8
0
 62
     0
 10
158.062
 20
36.6476
 30
0.0
 11
144.063
 21
36.6476
 31
0.0
  0
LINE
  8
0
 62
     0
 10
351.232
 20
36.6476
 30
0.0
 11
351.232
 21
35.6471
 31
0.0
  0
LINE
  8
0
 62
     0
 10
351.232
 20
35.6471
 30
0.0
 11
350.431
 21
35.6471
 31
0.0
  0
LINE
  8
0
 62
     0
 10
350.431
 20
35.6471
 30
0.0
 11
350.431
 21
32.5465
 31
0.0
  0
LINE
  8
0
 62
     0
 10
350.431
 20
32.5465
 30
0.0
 11
351.232
 21
32.5465
 31
0.0
  0
LINE
  8
0
 62
     0
 10
351.232
 20
32.5465
 30
0.0
 11
351.232
 21
26.7477
 31
0.0
  0
LINE
  8
0
 62
     0
 10
351.232
 20
26.7477
 30
0.0
 11
350.431
 21
26.7477
 31
0.0
  0
LINE
  8
0
 62
     0
 10
350.431
 20
26.7477
 30
0.0
 11
350.431
 21
23.6472
 31
0.0
  0
LINE
  8
0
 62
     0
 10
350.431
 20
23.6472
 30
0.0
 11
351.232
 21
23.6472
 31
0.0
  0
LINE
  8
0
 62
     0
 10
351.232
 20
23.6472
 30
0.0
 11
351.232
 21
22.6467
 31
0.0
  0
LINE
  8
0
 62
     0
 10
351.232
 20
22.6467
 30
0.0
 11
365.231
 21
22.6467
 31
0.0
  0
LINE
  8
0
 62
     0
 10
365.231
 20
22.6467
 30
0.0
 11
365.231
 21
23.6472
 31
0.0
  0
LINE
  8
0
 62
     0
 10
365.231
 20
23.6472
 30
0.0
 11
366.032
 21
23.6472
 31
0.0
  0
LINE
  8
0
 62
     0
 10
366.032
 20
23.6472
 30
0.0
 11
366.032
 21
26.7477
 31
0.0
  0
LINE
  8
0
 62
     0
 10
366.032
 20
26.7477
 30
0.0
 11
365.231
 21
26.7477
 31
0.0
  0
LINE
  8
0
 62
     0
 10
365.231
 20
26.7477
 30
0.0
 11
365.231
 21
32.5465
 31
0.0
  0
LINE
  8
0
 62
     0
 10
365.231
 20
32.5465
 30
0.0
 11
366.032
 21
32.5465
 31
0.0
  0
LINE
  8
0
 62
     0
 10
366.032
 20
32.5465
 30
0.0
 11
366.032
 21
35.6471
 31
0.0
  0
LINE
  8
0
 62
     0
 10
366.032
 20
35.6471
 30
0.0
 11
365.231
 21
35.6471
 31
0.0
  0
LINE
  8
0
 62
     0
 10
365.231
 20
35.6471
 30
0.0
 11
365.231
 21
36.6476
 31
0.0
  0
LINE
  8
0
 62
     0
 10
365.231
 20
36.6476
 30
0.0
 11
351.232
 21
36.6476
 31
0.0
  0
LINE
  8
0
 62
     0
 10
332.182
 20
36.6476
 30
0.0
 11
332.182
 21
35.6471
 31
0.0
  0
LINE
  8
0
 62
     0
 10
332.182
 20
35.6471
 30
0.0
 11
331.381
 21
35.6471
 31
0.0
  0
LINE
  8
0
 62
     0
 10
331.381
 20
35.6471
 30
0.0
 11
331.381
 21
32.5465
 31
0.0
  0
LINE
  8
0
 62
     0
 10
331.381
 20
32.5465
 30
0.0
 11
332.182
 21
32.5465
 31
0.0
  0
LINE
  8
0
 62
     0
 10
332.182
 20
32.5465
 30
0.0
 11
332.182
 21
26.7477
 31
0.0
  0
LINE
  8
0
 62
     0
 10
332.182
 20
26.7477
 30
0.0
 11
331.381
 21
26.7477
 31
0.0
  0
LINE
  8
0
 62
     0
 10
331.381
 20
26.7477
 30
0.0
 11
331.381
 21
23.6472
 31
0.0
  0
LINE
  8
0
 62
     0
 10
331.381
 20
23.6472
 30
0.0
 11
332.182
 21
23.6472
 31
0.0
  0
LINE
  8
0
 62
     0
 10
332.182
 20
23.6472
 30
0.0
 11
332.182
 21
22.6467
 31
0.0
  0
LINE
  8
0
 62
     0
 10
332.182
 20
22.6467
 30
0.0
 11
346.181
 21
22.6467
 31
0.0
  0
LINE
  8
0
 62
     0
 10
346.181
 20
22.6467
 30
0.0
 11
346.181
 21
23.6472
 31
0.0
  0
LINE
  8
0
 62
     0
 10
346.181
 20
23.6472
 30
0.0
 11
346.982
 21
23.6472
 31
0.0
  0
LINE
  8
0
 62
     0
 10
346.982
 20
23.6472
 30
0.0
 11
346.982
 21
26.7477
 31
0.0
  0
LINE
  8
0
 62
     0
 10
346.982
 20
26.7477
 30
0.0
 11
346.181
 21
26.7477
 31
0.0
  0
LINE
  8
0
 62
     0
 10
346.181
 20
26.7477
 30
0.0
 11
346.181
 21
32.5465
 31
0.0
  0
LINE
  8
0
 62
     0
 10
346.181
 20
32.5465
 30
0.0
 11
346.982
 21
32.5465
 31
0.0
  0
LINE
  8
0
 62
     0
 10
346.982
 20
32.5465
 30
0.0
 11
346.982
 21
35.6471
 31
0.0
  0
LINE
  8
0
 62
     0
 10
346.982
 20
35.6471
 30
0.0
 11
346.181
 21
35.6471
 31
0.0
  0
LINE
  8
0
 62
     0
 10
346.181
 20
35.6471
 30
0.0
 11
346.181
 21
36.6476
 31
0.0
  0
LINE
  8
0
 62
     0
 10
346.181
 20
36.6476
 30
0.0
 11
332.182
 21
36.6476
 31
0.0
  0
LINE
  8
0
 62
     0
 10
313.132
 20
36.6476
 30
0.0
 11
313.132
 21
35.6471
 31
0.0
  0
LINE
  8
0
 62
     0
 10
313.132
 20
35.6471
 30
0.0
 11
312.331
 21
35.6471
 31
0.0
  0
LINE
  8
0
 62
     0
 10
312.331
 20
35.6471
 30
0.0
 11
312.331
 21
32.5465
 31
0.0
  0
LINE
  8
0
 62
     0
 10
312.331
 20
32.5465
 30
0.0
 11
313.132
 21
32.5465
 31
0.0
  0
LINE
  8
0
 62
     0
 10
313.132
 20
32.5465
 30
0.0
 11
313.132
 21
26.7477
 31
0.0
  0
LINE
  8
0
 62
     0
 10
313.132
 20
26.7477
 30
0.0
 11
312.331
 21
26.7477
 31
0.0
  0
LINE
  8
0
 62
     0
 10
312.331
 20
26.7477
 30
0.0
 11
312.331
 21
23.6472
 31
0.0
  0
LINE
  8
0
 62
     0
 10
312.331
 20
23.6472
 30
0.0
 11
313.132
 21
23.6472
 31
0.0
  0
LINE
  8
0
 62
     0
 10
313.132
 20
23.6472
 30
0.0
 11
313.132
 21
22.6467
 31
0.0
  0
LINE
  8
0
 62
     0
 10
313.132
 20
22.6467
 30
0.0
 11
327.131
 21
22.6467
 31
0.0
  0
LINE
  8
0
 62
     0
 10
327.131
 20
22.6467
 30
0.0
 11
327.131
 21
23.6472
 31
0.0
  0
LINE
  8
0
 62
     0
 10
327.131
 20
23.6472
 30
0.0
 11
327.932
 21
23.6472
 31
0.0
  0
LINE
  8
0
 62
     0
 10
327.932
 20
23.6472
 30
0.0
 11
327.932
 21
26.7477
 31
0.0
  0
LINE
  8
0
 62
     0
 10
327.932
 20
26.7477
 30
0.0
 11
327.131
 21
26.7477
 31
0.0
  0
LINE
  8
0
 62
     0
 10
327.131
 20
26.7477
 30
0.0
 11
327.131
 21
32.5465
 31
0.0
  0
LINE
  8
0
 62
     0
 10
327.131
 20
32.5465
 30
0.0
 11
327.932
 21
32.5465
 31
0.0
  0
LINE
  8
0
 62
     0
 10
327.932
 20
32.5465
 30
0.0
 11
327.932
 21
35.6471
 31
0.0
  0
LINE
  8
0
 62
     0
 10
327.932
 20
35.6471
 30
0.0
 11
327.131
 21
35.6471
 31
0.0
  0
LINE
  8
0
 62
     0
 10
327.131
 20
35.6471
 30
0.0
 11
327.131
 21
36.6476
 31
0.0
  0
LINE
  8
0
 62
     0
 10
327.131
 20
36.6476
 30
0.0
 11
313.132
 21
36.6476
 31
0.0
  0
LINE
  8
0
 62
     0
 10
286.938
 20
36.6476
 30
0.0
 11
286.938
 21
35.6471
 31
0.0
  0
LINE
  8
0
 62
     0
 10
286.938
 20
35.6471
 30
0.0
 11
286.137
 21
35.6471
 31
0.0
  0
LINE
  8
0
 62
     0
 10
286.137
 20
35.6471
 30
0.0
 11
286.137
 21
32.5465
 31
0.0
  0
LINE
  8
0
 62
     0
 10
286.137
 20
32.5465
 30
0.0
 11
286.938
 21
32.5465
 31
0.0
  0
LINE
  8
0
 62
     0
 10
286.938
 20
32.5465
 30
0.0
 11
286.938
 21
26.7477
 31
0.0
  0
LINE
  8
0
 62
     0
 10
286.938
 20
26.7477
 30
0.0
 11
286.137
 21
26.7477
 31
0.0
  0
LINE
  8
0
 62
     0
 10
286.137
 20
26.7477
 30
0.0
 11
286.137
 21
23.6472
 31
0.0
  0
LINE
  8
0
 62
     0
 10
286.137
 20
23.6472
 30
0.0
 11
286.938
 21
23.6472
 31
0.0
  0
LINE
  8
0
 62
     0
 10
286.938
 20
23.6472
 30
0.0
 11
286.938
 21
22.6467
 31
0.0
  0
LINE
  8
0
 62
     0
 10
286.938
 20
22.6467
 30
0.0
 11
300.937
 21
22.6467
 31
0.0
  0
LINE
  8
0
 62
     0
 10
300.937
 20
22.6467
 30
0.0
 11
300.937
 21
23.6472
 31
0.0
  0
LINE
  8
0
 62
     0
 10
300.937
 20
23.6472
 30
0.0
 11
301.738
 21
23.6472
 31
0.0
  0
LINE
  8
0
 62
     0
 10
301.738
 20
23.6472
 30
0.0
 11
301.738
 21
26.7477
 31
0.0
  0
LINE
  8
0
 62
     0
 10
301.738
 20
26.7477
 30
0.0
 11
300.937
 21
26.7477
 31
0.0
  0
LINE
  8
0
 62
     0
 10
300.937
 20
26.7477
 30
0.0
 11
300.937
 21
32.5465
 31
0.0
  0
LINE
  8
0
 62
     0
 10
300.937
 20
32.5465
 30
0.0
 11
301.738
 21
32.5465
 31
0.0
  0
LINE
  8
0
 62
     0
 10
301.738
 20
32.5465
 30
0.0
 11
301.738
 21
35.6471
 31
0.0
  0
LINE
  8
0
 62
     0
 10
301.738
 20
35.6471
 30
0.0
 11
300.937
 21
35.6471
 31
0.0
  0
LINE
  8
0
 62
     0
 10
300.937
 20
35.6471
 30
0.0
 11
300.937
 21
36.6476
 31
0.0
  0
LINE
  8
0
 62
     0
 10
300.937
 20
36.6476
 30
0.0
 11
286.938
 21
36.6476
 31
0.0
  0
LINE
  8
0
 62
     0
 10
263.125
 20
36.6476
 30
0.0
 11
263.125
 21
35.6471
 31
0.0
  0
LINE
  8
0
 62
     0
 10
263.125
 20
35.6471
 30
0.0
 11
262.326
 21
35.6471
 31
0.0
  0
LINE
  8
0
 62
     0
 10
262.326
 20
35.6471
 30
0.0
 11
262.326
 21
32.5465
 31
0.0
  0
LINE
  8
0
 62
     0
 10
262.326
 20
32.5465
 30
0.0
 11
263.125
 21
32.5465
 31
0.0
  0
LINE
  8
0
 62
     0
 10
263.125
 20
32.5465
 30
0.0
 11
263.125
 21
26.7477
 31
0.0
  0
LINE
  8
0
 62
     0
 10
263.125
 20
26.7477
 30
0.0
 11
262.326
 21
26.7477
 31
0.0
  0
LINE
  8
0
 62
     0
 10
262.326
 20
26.7477
 30
0.0
 11
262.326
 21
23.6472
 31
0.0
  0
LINE
  8
0
 62
     0
 10
262.326
 20
23.6472
 30
0.0
 11
263.125
 21
23.6472
 31
0.0
  0
LINE
  8
0
 62
     0
 10
263.125
 20
23.6472
 30
0.0
 11
263.125
 21
22.6467
 31
0.0
  0
LINE
  8
0
 62
     0
 10
263.125
 20
22.6467
 30
0.0
 11
277.125
 21
22.6467
 31
0.0
  0
LINE
  8
0
 62
     0
 10
277.125
 20
22.6467
 30
0.0
 11
277.125
 21
23.6472
 31
0.0
  0
LINE
  8
0
 62
     0
 10
277.125
 20
23.6472
 30
0.0
 11
277.925
 21
23.6472
 31
0.0
  0
LINE
  8
0
 62
     0
 10
277.925
 20
23.6472
 30
0.0
 11
277.925
 21
26.7477
 31
0.0
  0
LINE
  8
0
 62
     0
 10
277.925
 20
26.7477
 30
0.0
 11
277.125
 21
26.7477
 31
0.0
  0
LINE
  8
0
 62
     0
 10
277.125
 20
26.7477
 30
0.0
 11
277.125
 21
32.5465
 31
0.0
  0
LINE
  8
0
 62
     0
 10
277.125
 20
32.5465
 30
0.0
 11
277.925
 21
32.5465
 31
0.0
  0
LINE
  8
0
 62
     0
 10
277.925
 20
32.5465
 30
0.0
 11
277.925
 21
35.6471
 31
0.0
  0
LINE
  8
0
 62
     0
 10
277.925
 20
35.6471
 30
0.0
 11
277.125
 21
35.6471
 31
0.0
  0
LINE
  8
0
 62
     0
 10
277.125
 20
35.6471
 30
0.0
 11
277.125
 21
36.6476
 31
0.0
  0
LINE
  8
0
 62
     0
 10
277.125
 20
36.6476
 30
0.0
 11
263.125
 21
36.6476
 31
0.0
  0
LINE
  8
0
 62
     0
 10
239.313
 20
36.6476
 30
0.0
 11
239.313
 21
35.6471
 31
0.0
  0
LINE
  8
0
 62
     0
 10
239.313
 20
35.6471
 30
0.0
 11
238.512
 21
35.6471
 31
0.0
  0
LINE
  8
0
 62
     0
 10
238.512
 20
35.6471
 30
0.0
 11
238.512
 21
32.5465
 31
0.0
  0
LINE
  8
0
 62
     0
 10
238.512
 20
32.5465
 30
0.0
 11
239.313
 21
32.5465
 31
0.0
  0
LINE
  8
0
 62
     0
 10
239.313
 20
32.5465
 30
0.0
 11
239.313
 21
26.7477
 31
0.0
  0
LINE
  8
0
 62
     0
 10
239.313
 20
26.7477
 30
0.0
 11
238.512
 21
26.7477
 31
0.0
  0
LINE
  8
0
 62
     0
 10
238.512
 20
26.7477
 30
0.0
 11
238.512
 21
23.6472
 31
0.0
  0
LINE
  8
0
 62
     0
 10
238.512
 20
23.6472
 30
0.0
 11
239.313
 21
23.6472
 31
0.0
  0
LINE
  8
0
 62
     0
 10
239.313
 20
23.6472
 30
0.0
 11
239.313
 21
22.6467
 31
0.0
  0
LINE
  8
0
 62
     0
 10
239.313
 20
22.6467
 30
0.0
 11
253.312
 21
22.6467
 31
0.0
  0
LINE
  8
0
 62
     0
 10
253.312
 20
22.6467
 30
0.0
 11
253.312
 21
23.6472
 31
0.0
  0
LINE
  8
0
 62
     0
 10
253.312
 20
23.6472
 30
0.0
 11
254.111
 21
23.6472
 31
0.0
  0
LINE
  8
0
 62
     0
 10
254.111
 20
23.6472
 30
0.0
 11
254.111
 21
26.7477
 31
0.0
  0
LINE
  8
0
 62
     0
 10
254.111
 20
26.7477
 30
0.0
 11
253.312
 21
26.7477
 31
0.0
  0
LINE
  8
0
 62
     0
 10
253.312
 20
26.7477
 30
0.0
 11
253.312
 21
32.5465
 31
0.0
  0
LINE
  8
0
 62
     0
 10
253.312
 20
32.5465
 30
0.0
 11
254.111
 21
32.5465
 31
0.0
  0
LINE
  8
0
 62
     0
 10
254.111
 20
32.5465
 30
0.0
 11
254.111
 21
35.6471
 31
0.0
  0
LINE
  8
0
 62
     0
 10
254.111
 20
35.6471
 30
0.0
 11
253.312
 21
35.6471
 31
0.0
  0
LINE
  8
0
 62
     0
 10
253.312
 20
35.6471
 30
0.0
 11
253.312
 21
36.6476
 31
0.0
  0
LINE
  8
0
 62
     0
 10
253.312
 20
36.6476
 30
0.0
 11
239.313
 21
36.6476
 31
0.0
  0
LINE
  8
0
 62
     0
 10
215.5
 20
36.6476
 30
0.0
 11
215.5
 21
35.6471
 31
0.0
  0
LINE
  8
0
 62
     0
 10
215.5
 20
35.6471
 30
0.0
 11
214.701
 21
35.6471
 31
0.0
  0
LINE
  8
0
 62
     0
 10
214.701
 20
35.6471
 30
0.0
 11
214.701
 21
32.5465
 31
0.0
  0
LINE
  8
0
 62
     0
 10
214.701
 20
32.5465
 30
0.0
 11
215.5
 21
32.5465
 31
0.0
  0
LINE
  8
0
 62
     0
 10
215.5
 20
32.5465
 30
0.0
 11
215.5
 21
26.7477
 31
0.0
  0
LINE
  8
0
 62
     0
 10
215.5
 20
26.7477
 30
0.0
 11
214.701
 21
26.7477
 31
0.0
  0
LINE
  8
0
 62
     0
 10
214.701
 20
26.7477
 30
0.0
 11
214.701
 21
23.6472
 31
0.0
  0
LINE
  8
0
 62
     0
 10
214.701
 20
23.6472
 30
0.0
 11
215.5
 21
23.6472
 31
0.0
  0
LINE
  8
0
 62
     0
 10
215.5
 20
23.6472
 30
0.0
 11
215.5
 21
22.6467
 31
0.0
  0
LINE
  8
0
 62
     0
 10
215.5
 20
22.6467
 30
0.0
 11
229.5
 21
22.6467
 31
0.0
  0
LINE
  8
0
 62
     0
 10
229.5
 20
22.6467
 30
0.0
 11
229.5
 21
23.6472
 31
0.0
  0
LINE
  8
0
 62
     0
 10
229.5
 20
23.6472
 30
0.0
 11
230.3
 21
23.6472
 31
0.0
  0
LINE
  8
0
 62
     0
 10
230.3
 20
23.6472
 30
0.0
 11
230.3
 21
26.7477
 31
0.0
  0
LINE
  8
0
 62
     0
 10
230.3
 20
26.7477
 30
0.0
 11
229.5
 21
26.7477
 31
0.0
  0
LINE
  8
0
 62
     0
 10
229.5
 20
26.7477
 30
0.0
 11
229.5
 21
32.5465
 31
0.0
  0
LINE
  8
0
 62
     0
 10
229.5
 20
32.5465
 30
0.0
 11
230.3
 21
32.5465
 31
0.0
  0
LINE
  8
0
 62
     0
 10
230.3
 20
32.5465
 30
0.0
 11
230.3
 21
35.6471
 31
0.0
  0
LINE
  8
0
 62
     0
 10
230.3
 20
35.6471
 30
0.0
 11
229.5
 21
35.6471
 31
0.0
  0
LINE
  8
0
 62
     0
 10
229.5
 20
35.6471
 30
0.0
 11
229.5
 21
36.6476
 31
0.0
  0
LINE
  8
0
 62
     0
 10
229.5
 20
36.6476
 30
0.0
 11
215.5
 21
36.6476
 31
0.0
  0
LINE
  8
0
 62
     0
 10
72.6253
 20
36.6476
 30
0.0
 11
72.6253
 21
35.6471
 31
0.0
  0
LINE
  8
0
 62
     0
 10
72.6253
 20
35.6471
 30
0.0
 11
71.8263
 21
35.6471
 31
0.0
  0
LINE
  8
0
 62
     0
 10
71.8263
 20
35.6471
 30
0.0
 11
71.8263
 21
32.5465
 31
0.0
  0
LINE
  8
0
 62
     0
 10
71.8263
 20
32.5465
 30
0.0
 11
72.6253
 21
32.5465
 31
0.0
  0
LINE
  8
0
 62
     0
 10
72.6253
 20
32.5465
 30
0.0
 11
72.6253
 21
26.7477
 31
0.0
  0
LINE
  8
0
 62
     0
 10
72.6253
 20
26.7477
 30
0.0
 11
71.8263
 21
26.7477
 31
0.0
  0
LINE
  8
0
 62
     0
 10
71.8263
 20
26.7477
 30
0.0
 11
71.8263
 21
23.6472
 31
0.0
  0
LINE
  8
0
 62
     0
 10
71.8263
 20
23.6472
 30
0.0
 11
72.6253
 21
23.6472
 31
0.0
  0
LINE
  8
0
 62
     0
 10
72.6253
 20
23.6472
 30
0.0
 11
72.6253
 21
22.6467
 31
0.0
  0
LINE
  8
0
 62
     0
 10
72.6253
 20
22.6467
 30
0.0
 11
86.6249
 21
22.6467
 31
0.0
  0
LINE
  8
0
 62
     0
 10
86.6249
 20
22.6467
 30
0.0
 11
86.6249
 21
23.6472
 31
0.0
  0
LINE
  8
0
 62
     0
 10
86.6249
 20
23.6472
 30
0.0
 11
87.4254
 21
23.6472
 31
0.0
  0
LINE
  8
0
 62
     0
 10
87.4254
 20
23.6472
 30
0.0
 11
87.4254
 21
26.7477
 31
0.0
  0
LINE
  8
0
 62
     0
 10
87.4254
 20
26.7477
 30
0.0
 11
86.6249
 21
26.7477
 31
0.0
  0
LINE
  8
0
 62
     0
 10
86.6249
 20
26.7477
 30
0.0
 11
86.6249
 21
32.5465
 31
0.0
  0
LINE
  8
0
 62
     0
 10
86.6249
 20
32.5465
 30
0.0
 11
87.4254
 21
32.5465
 31
0.0
  0
LINE
  8
0
 62
     0
 10
87.4254
 20
32.5465
 30
0.0
 11
87.4254
 21
35.6471
 31
0.0
  0
LINE
  8
0
 62
     0
 10
87.4254
 20
35.6471
 30
0.0
 11
86.6249
 21
35.6471
 31
0.0
  0
LINE
  8
0
 62
     0
 10
86.6249
 20
35.6471
 30
0.0
 11
86.6249
 21
36.6476
 31
0.0
  0
LINE
  8
0
 62
     0
 10
86.6249
 20
36.6476
 30
0.0
 11
72.6253
 21
36.6476
 31
0.0
  0
LINE
  8
0
 62
     0
 10
48.8128
 20
36.6476
 30
0.0
 11
48.8128
 21
35.6471
 31
0.0
  0
LINE
  8
0
 62
     0
 10
48.8128
 20
35.6471
 30
0.0
 11
48.0124
 21
35.6471
 31
0.0
  0
LINE
  8
0
 62
     0
 10
48.0124
 20
35.6471
 30
0.0
 11
48.0124
 21
32.5465
 31
0.0
  0
LINE
  8
0
 62
     0
 10
48.0124
 20
32.5465
 30
0.0
 11
48.8128
 21
32.5465
 31
0.0
  0
LINE
  8
0
 62
     0
 10
48.8128
 20
32.5465
 30
0.0
 11
48.8128
 21
26.7477
 31
0.0
  0
LINE
  8
0
 62
     0
 10
48.8128
 20
26.7477
 30
0.0
 11
48.0124
 21
26.7477
 31
0.0
  0
LINE
  8
0
 62
     0
 10
48.0124
 20
26.7477
 30
0.0
 11
48.0124
 21
23.6472
 31
0.0
  0
LINE
  8
0
 62
     0
 10
48.0124
 20
23.6472
 30
0.0
 11
48.8128
 21
23.6472
 31
0.0
  0
LINE
  8
0
 62
     0
 10
48.8128
 20
23.6472
 30
0.0
 11
48.8128
 21
22.6467
 31
0.0
  0
LINE
  8
0
 62
     0
 10
48.8128
 20
22.6467
 30
0.0
 11
62.8124
 21
22.6467
 31
0.0
  0
LINE
  8
0
 62
     0
 10
62.8124
 20
22.6467
 30
0.0
 11
62.8124
 21
23.6472
 31
0.0
  0
LINE
  8
0
 62
     0
 10
62.8124
 20
23.6472
 30
0.0
 11
63.6129
 21
23.6472
 31
0.0
  0
LINE
  8
0
 62
     0
 10
63.6129
 20
23.6472
 30
0.0
 11
63.6129
 21
26.7477
 31
0.0
  0
LINE
  8
0
 62
     0
 10
63.6129
 20
26.7477
 30
0.0
 11
62.8124
 21
26.7477
 31
0.0
  0
LINE
  8
0
 62
     0
 10
62.8124
 20
26.7477
 30
0.0
 11
62.8124
 21
32.5465
 31
0.0
  0
LINE
  8
0
 62
     0
 10
62.8124
 20
32.5465
 30
0.0
 11
63.6129
 21
32.5465
 31
0.0
  0
LINE
  8
0
 62
     0
 10
63.6129
 20
32.5465
 30
0.0
 11
63.6129
 21
35.6471
 31
0.0
  0
LINE
  8
0
 62
     0
 10
63.6129
 20
35.6471
 30
0.0
 11
62.8124
 21
35.6471
 31
0.0
  0
LINE
  8
0
 62
     0
 10
62.8124
 20
35.6471
 30
0.0
 11
62.8124
 21
36.6476
 31
0.0
  0
LINE
  8
0
 62
     0
 10
62.8124
 20
36.6476
 30
0.0
 11
48.8128
 21
36.6476
 31
0.0
  0
LINE
  8
0
 62
     0
 10
25.0004
 20
36.6476
 30
0.0
 11
25.0004
 21
35.6471
 31
0.0
  0
LINE
  8
0
 62
     0
 10
25.0004
 20
35.6471
 30
0.0
 11
24.2011
 21
35.6471
 31
0.0
  0
LINE
  8
0
 62
     0
 10
24.2011
 20
35.6471
 30
0.0
 11
24.2011
 21
32.5465
 31
0.0
  0
LINE
  8
0
 62
     0
 10
24.2011
 20
32.5465
 30
0.0
 11
25.0004
 21
32.5465
 31
0.0
  0
LINE
  8
0
 62
     0
 10
25.0004
 20
32.5465
 30
0.0
 11
25.0004
 21
26.7477
 31
0.0
  0
LINE
  8
0
 62
     0
 10
25.0004
 20
26.7477
 30
0.0
 11
24.2011
 21
26.7477
 31
0.0
  0
LINE
  8
0
 62
     0
 10
24.2011
 20
26.7477
 30
0.0
 11
24.2011
 21
23.6472
 31
0.0
  0
LINE
  8
0
 62
     0
 10
24.2011
 20
23.6472
 30
0.0
 11
25.0004
 21
23.6472
 31
0.0
  0
LINE
  8
0
 62
     0
 10
25.0004
 20
23.6472
 30
0.0
 11
25.0004
 21
22.6467
 31
0.0
  0
LINE
  8
0
 62
     0
 10
25.0004
 20
22.6467
 30
0.0
 11
38.9999
 21
22.6467
 31
0.0
  0
LINE
  8
0
 62
     0
 10
38.9999
 20
22.6467
 30
0.0
 11
38.9999
 21
23.6472
 31
0.0
  0
LINE
  8
0
 62
     0
 10
38.9999
 20
23.6472
 30
0.0
 11
39.8004
 21
23.6472
 31
0.0
  0
LINE
  8
0
 62
     0
 10
39.8004
 20
23.6472
 30
0.0
 11
39.8004
 21
26.7477
 31
0.0
  0
LINE
  8
0
 62
     0
 10
39.8004
 20
26.7477
 30
0.0
 11
38.9999
 21
26.7477
 31
0.0
  0
LINE
  8
0
 62
     0
 10
38.9999
 20
26.7477
 30
0.0
 11
38.9999
 21
32.5465
 31
0.0
  0
LINE
  8
0
 62
     0
 10
38.9999
 20
32.5465
 30
0.0
 11
39.8004
 21
32.5465
 31
0.0
  0
LINE
  8
0
 62
     0
 10
39.8004
 20
32.5465
 30
0.0
 11
39.8004
 21
35.6471
 31
0.0
  0
LINE
  8
0
 62
     0
 10
39.8004
 20
35.6471
 30
0.0
 11
38.9999
 21
35.6471
 31
0.0
  0
LINE
  8
0
 62
     0
 10
38.9999
 20
35.6471
 30
0.0
 11
38.9999
 21
36.6476
 31
0.0
  0
LINE
  8
0
 62
     0
 10
38.9999
 20
36.6476
 30
0.0
 11
25.0004
 21
36.6476
 31
0.0
  0
LINE
  8
0
 62
     0
 10
272.65
 20
55.6976
 30
0.0
 11
272.65
 21
54.6971
 31
0.0
  0
LINE
  8
0
 62
     0
 10
272.65
 20
54.6971
 30
0.0
 11
271.851
 21
54.6971
 31
0.0
  0
LINE
  8
0
 62
     0
 10
271.851
 20
54.6971
 30
0.0
 11
271.851
 21
51.5966
 31
0.0
  0
LINE
  8
0
 62
     0
 10
271.851
 20
51.5966
 30
0.0
 11
272.65
 21
51.5966
 31
0.0
  0
LINE
  8
0
 62
     0
 10
272.65
 20
51.5966
 30
0.0
 11
272.65
 21
50.9972
 31
0.0
  0
LINE
  8
0
 62
     0
 10
272.65
 20
50.9972
 30
0.0
 11
271.125
 21
50.9972
 31
0.0
  0
LINE
  8
0
 62
     0
 10
271.125
 20
50.9972
 30
0.0
 11
271.125
 21
54.2272
 31
0.0
  0
LINE
  8
0
 62
     0
 10
271.125
 20
54.2272
 30
0.0
 11
269.401
 21
54.2272
 31
0.0
  0
LINE
  8
0
 62
     0
 10
269.401
 20
54.2272
 30
0.0
 11
269.401
 21
55.1476
 31
0.0
  0
LINE
  8
0
 62
     0
 10
269.401
 20
55.1476
 30
0.0
 11
266.101
 21
55.1476
 31
0.0
  0
LINE
  8
0
 62
     0
 10
266.101
 20
55.1476
 30
0.0
 11
266.101
 21
54.2272
 31
0.0
  0
LINE
  8
0
 62
     0
 10
266.101
 20
54.2272
 30
0.0
 11
264.375
 21
54.2272
 31
0.0
  0
LINE
  8
0
 62
     0
 10
264.375
 20
54.2272
 30
0.0
 11
264.375
 21
50.9972
 31
0.0
  0
LINE
  8
0
 62
     0
 10
264.375
 20
50.9972
 30
0.0
 11
263.55
 21
50.9972
 31
0.0
  0
LINE
  8
0
 62
     0
 10
263.55
 20
50.9972
 30
0.0
 11
263.55
 21
48.1969
 31
0.0
  0
LINE
  8
0
 62
     0
 10
263.55
 20
48.1969
 30
0.0
 11
264.375
 21
48.1969
 31
0.0
  0
LINE
  8
0
 62
     0
 10
264.375
 20
48.1969
 30
0.0
 11
264.375
 21
41.9269
 31
0.0
  0
LINE
  8
0
 62
     0
 10
264.375
 20
41.9269
 30
0.0
 11
266.101
 21
41.9269
 31
0.0
  0
LINE
  8
0
 62
     0
 10
266.101
 20
41.9269
 30
0.0
 11
266.101
 21
40.9469
 31
0.0
  0
LINE
  8
0
 62
     0
 10
266.101
 20
40.9469
 30
0.0
 11
269.401
 21
40.9469
 31
0.0
  0
LINE
  8
0
 62
     0
 10
269.401
 20
40.9469
 30
0.0
 11
269.401
 21
41.9269
 31
0.0
  0
LINE
  8
0
 62
     0
 10
269.401
 20
41.9269
 30
0.0
 11
271.125
 21
41.9269
 31
0.0
  0
LINE
  8
0
 62
     0
 10
271.125
 20
41.9269
 30
0.0
 11
271.125
 21
46.3973
 31
0.0
  0
LINE
  8
0
 62
     0
 10
271.125
 20
46.3973
 30
0.0
 11
272.65
 21
46.3973
 31
0.0
  0
LINE
  8
0
 62
     0
 10
272.65
 20
46.3973
 30
0.0
 11
272.65
 21
45.7976
 31
0.0
  0
LINE
  8
0
 62
     0
 10
272.65
 20
45.7976
 30
0.0
 11
271.851
 21
45.7976
 31
0.0
  0
LINE
  8
0
 62
     0
 10
271.851
 20
45.7976
 30
0.0
 11
271.851
 21
42.697
 31
0.0
  0
LINE
  8
0
 62
     0
 10
271.851
 20
42.697
 30
0.0
 11
272.65
 21
42.697
 31
0.0
  0
LINE
  8
0
 62
     0
 10
272.65
 20
42.697
 30
0.0
 11
272.65
 21
41.6966
 31
0.0
  0
LINE
  8
0
 62
     0
 10
272.65
 20
41.6966
 30
0.0
 11
286.65
 21
41.6966
 31
0.0
  0
LINE
  8
0
 62
     0
 10
286.65
 20
41.6966
 30
0.0
 11
286.65
 21
42.697
 31
0.0
  0
LINE
  8
0
 62
     0
 10
286.65
 20
42.697
 30
0.0
 11
287.45
 21
42.697
 31
0.0
  0
LINE
  8
0
 62
     0
 10
287.45
 20
42.697
 30
0.0
 11
287.45
 21
45.7976
 31
0.0
  0
LINE
  8
0
 62
     0
 10
287.45
 20
45.7976
 30
0.0
 11
286.65
 21
45.7976
 31
0.0
  0
LINE
  8
0
 62
     0
 10
286.65
 20
45.7976
 30
0.0
 11
286.65
 21
46.3973
 31
0.0
  0
LINE
  8
0
 62
     0
 10
286.65
 20
46.3973
 30
0.0
 11
288.175
 21
46.3973
 31
0.0
  0
LINE
  8
0
 62
     0
 10
288.175
 20
46.3973
 30
0.0
 11
288.175
 21
41.9269
 31
0.0
  0
LINE
  8
0
 62
     0
 10
288.175
 20
41.9269
 30
0.0
 11
289.901
 21
41.9269
 31
0.0
  0
LINE
  8
0
 62
     0
 10
289.901
 20
41.9269
 30
0.0
 11
289.901
 21
40.9469
 31
0.0
  0
LINE
  8
0
 62
     0
 10
289.901
 20
40.9469
 30
0.0
 11
293.201
 21
40.9469
 31
0.0
  0
LINE
  8
0
 62
     0
 10
293.201
 20
40.9469
 30
0.0
 11
293.201
 21
41.9269
 31
0.0
  0
LINE
  8
0
 62
     0
 10
293.201
 20
41.9269
 30
0.0
 11
294.925
 21
41.9269
 31
0.0
  0
LINE
  8
0
 62
     0
 10
294.925
 20
41.9269
 30
0.0
 11
294.925
 21
48.1969
 31
0.0
  0
LINE
  8
0
 62
     0
 10
294.925
 20
48.1969
 30
0.0
 11
295.751
 21
48.1969
 31
0.0
  0
LINE
  8
0
 62
     0
 10
295.751
 20
48.1969
 30
0.0
 11
295.751
 21
50.9972
 31
0.0
  0
LINE
  8
0
 62
     0
 10
295.751
 20
50.9972
 30
0.0
 11
294.925
 21
50.9972
 31
0.0
  0
LINE
  8
0
 62
     0
 10
294.925
 20
50.9972
 30
0.0
 11
294.925
 21
54.2272
 31
0.0
  0
LINE
  8
0
 62
     0
 10
294.925
 20
54.2272
 30
0.0
 11
293.201
 21
54.2272
 31
0.0
  0
LINE
  8
0
 62
     0
 10
293.201
 20
54.2272
 30
0.0
 11
293.201
 21
55.1476
 31
0.0
  0
LINE
  8
0
 62
     0
 10
293.201
 20
55.1476
 30
0.0
 11
289.901
 21
55.1476
 31
0.0
  0
LINE
  8
0
 62
     0
 10
289.901
 20
55.1476
 30
0.0
 11
289.901
 21
54.2272
 31
0.0
  0
LINE
  8
0
 62
     0
 10
289.901
 20
54.2272
 30
0.0
 11
288.175
 21
54.2272
 31
0.0
  0
LINE
  8
0
 62
     0
 10
288.175
 20
54.2272
 30
0.0
 11
288.175
 21
50.9972
 31
0.0
  0
LINE
  8
0
 62
     0
 10
288.175
 20
50.9972
 30
0.0
 11
286.65
 21
50.9972
 31
0.0
  0
LINE
  8
0
 62
     0
 10
286.65
 20
50.9972
 30
0.0
 11
286.65
 21
51.5966
 31
0.0
  0
LINE
  8
0
 62
     0
 10
286.65
 20
51.5966
 30
0.0
 11
287.45
 21
51.5966
 31
0.0
  0
LINE
  8
0
 62
     0
 10
287.45
 20
51.5966
 30
0.0
 11
287.45
 21
54.6971
 31
0.0
  0
LINE
  8
0
 62
     0
 10
287.45
 20
54.6971
 30
0.0
 11
286.65
 21
54.6971
 31
0.0
  0
LINE
  8
0
 62
     0
 10
286.65
 20
54.6971
 30
0.0
 11
286.65
 21
55.6976
 31
0.0
  0
LINE
  8
0
 62
     0
 10
286.65
 20
55.6976
 30
0.0
 11
272.65
 21
55.6976
 31
0.0
  0
LINE
  8
0
 62
     0
 10
34.5254
 20
55.6976
 30
0.0
 11
34.5254
 21
54.6971
 31
0.0
  0
LINE
  8
0
 62
     0
 10
34.5254
 20
54.6971
 30
0.0
 11
33.7261
 21
54.6971
 31
0.0
  0
LINE
  8
0
 62
     0
 10
33.7261
 20
54.6971
 30
0.0
 11
33.7261
 21
51.5966
 31
0.0
  0
LINE
  8
0
 62
     0
 10
33.7261
 20
51.5966
 30
0.0
 11
34.5254
 21
51.5966
 31
0.0
  0
LINE
  8
0
 62
     0
 10
34.5254
 20
51.5966
 30
0.0
 11
34.5254
 21
50.9972
 31
0.0
  0
LINE
  8
0
 62
     0
 10
34.5254
 20
50.9972
 30
0.0
 11
32.9999
 21
50.9972
 31
0.0
  0
LINE
  8
0
 62
     0
 10
32.9999
 20
50.9972
 30
0.0
 11
32.9999
 21
54.2272
 31
0.0
  0
LINE
  8
0
 62
     0
 10
32.9999
 20
54.2272
 30
0.0
 11
31.276
 21
54.2272
 31
0.0
  0
LINE
  8
0
 62
     0
 10
31.276
 20
54.2272
 30
0.0
 11
31.276
 21
55.1476
 31
0.0
  0
LINE
  8
0
 62
     0
 10
31.276
 20
55.1476
 30
0.0
 11
27.9756
 21
55.1476
 31
0.0
  0
LINE
  8
0
 62
     0
 10
27.9756
 20
55.1476
 30
0.0
 11
27.9756
 21
54.2272
 31
0.0
  0
LINE
  8
0
 62
     0
 10
27.9756
 20
54.2272
 30
0.0
 11
26.2503
 21
54.2272
 31
0.0
  0
LINE
  8
0
 62
     0
 10
26.2503
 20
54.2272
 30
0.0
 11
26.2503
 21
50.9972
 31
0.0
  0
LINE
  8
0
 62
     0
 10
26.2503
 20
50.9972
 30
0.0
 11
25.4248
 21
50.9972
 31
0.0
  0
LINE
  8
0
 62
     0
 10
25.4248
 20
50.9972
 30
0.0
 11
25.4248
 21
48.1969
 31
0.0
  0
LINE
  8
0
 62
     0
 10
25.4248
 20
48.1969
 30
0.0
 11
26.2503
 21
48.1969
 31
0.0
  0
LINE
  8
0
 62
     0
 10
26.2503
 20
48.1969
 30
0.0
 11
26.2503
 21
41.9269
 31
0.0
  0
LINE
  8
0
 62
     0
 10
26.2503
 20
41.9269
 30
0.0
 11
27.9756
 21
41.9269
 31
0.0
  0
LINE
  8
0
 62
     0
 10
27.9756
 20
41.9269
 30
0.0
 11
27.9756
 21
40.9469
 31
0.0
  0
LINE
  8
0
 62
     0
 10
27.9756
 20
40.9469
 30
0.0
 11
31.276
 21
40.9469
 31
0.0
  0
LINE
  8
0
 62
     0
 10
31.276
 20
40.9469
 30
0.0
 11
31.276
 21
41.9269
 31
0.0
  0
LINE
  8
0
 62
     0
 10
31.276
 20
41.9269
 30
0.0
 11
32.9999
 21
41.9269
 31
0.0
  0
LINE
  8
0
 62
     0
 10
32.9999
 20
41.9269
 30
0.0
 11
32.9999
 21
46.3973
 31
0.0
  0
LINE
  8
0
 62
     0
 10
32.9999
 20
46.3973
 30
0.0
 11
34.5254
 21
46.3973
 31
0.0
  0
LINE
  8
0
 62
     0
 10
34.5254
 20
46.3973
 30
0.0
 11
34.5254
 21
45.7976
 31
0.0
  0
LINE
  8
0
 62
     0
 10
34.5254
 20
45.7976
 30
0.0
 11
33.7261
 21
45.7976
 31
0.0
  0
LINE
  8
0
 62
     0
 10
33.7261
 20
45.7976
 30
0.0
 11
33.7261
 21
42.697
 31
0.0
  0
LINE
  8
0
 62
     0
 10
33.7261
 20
42.697
 30
0.0
 11
34.5254
 21
42.697
 31
0.0
  0
LINE
  8
0
 62
     0
 10
34.5254
 20
42.697
 30
0.0
 11
34.5254
 21
41.6966
 31
0.0
  0
LINE
  8
0
 62
     0
 10
34.5254
 20
41.6966
 30
0.0
 11
48.5249
 21
41.6966
 31
0.0
  0
LINE
  8
0
 62
     0
 10
48.5249
 20
41.6966
 30
0.0
 11
48.5249
 21
42.697
 31
0.0
  0
LINE
  8
0
 62
     0
 10
48.5249
 20
42.697
 30
0.0
 11
49.3254
 21
42.697
 31
0.0
  0
LINE
  8
0
 62
     0
 10
49.3254
 20
42.697
 30
0.0
 11
49.3254
 21
45.7976
 31
0.0
  0
LINE
  8
0
 62
     0
 10
49.3254
 20
45.7976
 30
0.0
 11
48.5249
 21
45.7976
 31
0.0
  0
LINE
  8
0
 62
     0
 10
48.5249
 20
45.7976
 30
0.0
 11
48.5249
 21
46.3973
 31
0.0
  0
LINE
  8
0
 62
     0
 10
48.5249
 20
46.3973
 30
0.0
 11
50.0503
 21
46.3973
 31
0.0
  0
LINE
  8
0
 62
     0
 10
50.0503
 20
46.3973
 30
0.0
 11
50.0503
 21
41.9269
 31
0.0
  0
LINE
  8
0
 62
     0
 10
50.0503
 20
41.9269
 30
0.0
 11
51.7758
 21
41.9269
 31
0.0
  0
LINE
  8
0
 62
     0
 10
51.7758
 20
41.9269
 30
0.0
 11
51.7758
 21
40.9469
 31
0.0
  0
LINE
  8
0
 62
     0
 10
51.7758
 20
40.9469
 30
0.0
 11
55.076
 21
40.9469
 31
0.0
  0
LINE
  8
0
 62
     0
 10
55.076
 20
40.9469
 30
0.0
 11
55.076
 21
41.9269
 31
0.0
  0
LINE
  8
0
 62
     0
 10
55.076
 20
41.9269
 30
0.0
 11
56.8
 21
41.9269
 31
0.0
  0
LINE
  8
0
 62
     0
 10
56.8
 20
41.9269
 30
0.0
 11
56.8
 21
48.1969
 31
0.0
  0
LINE
  8
0
 62
     0
 10
56.8
 20
48.1969
 30
0.0
 11
57.6255
 21
48.1969
 31
0.0
  0
LINE
  8
0
 62
     0
 10
57.6255
 20
48.1969
 30
0.0
 11
57.6255
 21
50.9972
 31
0.0
  0
LINE
  8
0
 62
     0
 10
57.6255
 20
50.9972
 30
0.0
 11
56.8
 21
50.9972
 31
0.0
  0
LINE
  8
0
 62
     0
 10
56.8
 20
50.9972
 30
0.0
 11
56.8
 21
54.2272
 31
0.0
  0
LINE
  8
0
 62
     0
 10
56.8
 20
54.2272
 30
0.0
 11
55.076
 21
54.2272
 31
0.0
  0
LINE
  8
0
 62
     0
 10
55.076
 20
54.2272
 30
0.0
 11
55.076
 21
55.1476
 31
0.0
  0
LINE
  8
0
 62
     0
 10
55.076
 20
55.1476
 30
0.0
 11
51.7758
 21
55.1476
 31
0.0
  0
LINE
  8
0
 62
     0
 10
51.7758
 20
55.1476
 30
0.0
 11
51.7758
 21
54.2272
 31
0.0
  0
LINE
  8
0
 62
     0
 10
51.7758
 20
54.2272
 30
0.0
 11
50.0503
 21
54.2272
 31
0.0
  0
LINE
  8
0
 62
     0
 10
50.0503
 20
54.2272
 30
0.0
 11
50.0503
 21
50.9972
 31
0.0
  0
LINE
  8
0
 62
     0
 10
50.0503
 20
50.9972
 30
0.0
 11
48.5249
 21
50.9972
 31
0.0
  0
LINE
  8
0
 62
     0
 10
48.5249
 20
50.9972
 30
0.0
 11
48.5249
 21
51.5966
 31
0.0
  0
LINE
  8
0
 62
     0
 10
48.5249
 20
51.5966
 30
0.0
 11
49.3254
 21
51.5966
 31
0.0
  0
LINE
  8
0
 62
     0
 10
49.3254
 20
51.5966
 30
0.0
 11
49.3254
 21
54.6971
 31
0.0
  0
LINE
  8
0
 62
     0
 10
49.3254
 20
54.6971
 30
0.0
 11
48.5249
 21
54.6971
 31
0.0
  0
LINE
  8
0
 62
     0
 10
48.5249
 20
54.6971
 30
0.0
 11
48.5249
 21
55.6976
 31
0.0
  0
LINE
  8
0
 62
     0
 10
48.5249
 20
55.6976
 30
0.0
 11
34.5254
 21
55.6976
 31
0.0
  0
LINE
  8
0
 62
     0
 10
332.182
 20
55.6976
 30
0.0
 11
332.182
 21
54.6971
 31
0.0
  0
LINE
  8
0
 62
     0
 10
332.182
 20
54.6971
 30
0.0
 11
331.381
 21
54.6971
 31
0.0
  0
LINE
  8
0
 62
     0
 10
331.381
 20
54.6971
 30
0.0
 11
331.381
 21
51.5966
 31
0.0
  0
LINE
  8
0
 62
     0
 10
331.381
 20
51.5966
 30
0.0
 11
332.182
 21
51.5966
 31
0.0
  0
LINE
  8
0
 62
     0
 10
332.182
 20
51.5966
 30
0.0
 11
332.182
 21
45.7976
 31
0.0
  0
LINE
  8
0
 62
     0
 10
332.182
 20
45.7976
 30
0.0
 11
331.381
 21
45.7976
 31
0.0
  0
LINE
  8
0
 62
     0
 10
331.381
 20
45.7976
 30
0.0
 11
331.381
 21
42.697
 31
0.0
  0
LINE
  8
0
 62
     0
 10
331.381
 20
42.697
 30
0.0
 11
332.182
 21
42.697
 31
0.0
  0
LINE
  8
0
 62
     0
 10
332.182
 20
42.697
 30
0.0
 11
332.182
 21
41.6966
 31
0.0
  0
LINE
  8
0
 62
     0
 10
332.182
 20
41.6966
 30
0.0
 11
346.181
 21
41.6966
 31
0.0
  0
LINE
  8
0
 62
     0
 10
346.181
 20
41.6966
 30
0.0
 11
346.181
 21
42.697
 31
0.0
  0
LINE
  8
0
 62
     0
 10
346.181
 20
42.697
 30
0.0
 11
346.982
 21
42.697
 31
0.0
  0
LINE
  8
0
 62
     0
 10
346.982
 20
42.697
 30
0.0
 11
346.982
 21
45.7976
 31
0.0
  0
LINE
  8
0
 62
     0
 10
346.982
 20
45.7976
 30
0.0
 11
346.181
 21
45.7976
 31
0.0
  0
LINE
  8
0
 62
     0
 10
346.181
 20
45.7976
 30
0.0
 11
346.181
 21
51.5966
 31
0.0
  0
LINE
  8
0
 62
     0
 10
346.181
 20
51.5966
 30
0.0
 11
346.982
 21
51.5966
 31
0.0
  0
LINE
  8
0
 62
     0
 10
346.982
 20
51.5966
 30
0.0
 11
346.982
 21
54.6971
 31
0.0
  0
LINE
  8
0
 62
     0
 10
346.982
 20
54.6971
 30
0.0
 11
346.181
 21
54.6971
 31
0.0
  0
LINE
  8
0
 62
     0
 10
346.181
 20
54.6971
 30
0.0
 11
346.181
 21
55.6976
 31
0.0
  0
LINE
  8
0
 62
     0
 10
346.181
 20
55.6976
 30
0.0
 11
332.182
 21
55.6976
 31
0.0
  0
LINE
  8
0
 62
     0
 10
236.932
 20
55.6976
 30
0.0
 11
236.932
 21
54.6971
 31
0.0
  0
LINE
  8
0
 62
     0
 10
236.932
 20
54.6971
 30
0.0
 11
236.131
 21
54.6971
 31
0.0
  0
LINE
  8
0
 62
     0
 10
236.131
 20
54.6971
 30
0.0
 11
236.131
 21
51.5966
 31
0.0
  0
LINE
  8
0
 62
     0
 10
236.131
 20
51.5966
 30
0.0
 11
236.932
 21
51.5966
 31
0.0
  0
LINE
  8
0
 62
     0
 10
236.932
 20
51.5966
 30
0.0
 11
236.932
 21
45.7976
 31
0.0
  0
LINE
  8
0
 62
     0
 10
236.932
 20
45.7976
 30
0.0
 11
236.131
 21
45.7976
 31
0.0
  0
LINE
  8
0
 62
     0
 10
236.131
 20
45.7976
 30
0.0
 11
236.131
 21
42.697
 31
0.0
  0
LINE
  8
0
 62
     0
 10
236.131
 20
42.697
 30
0.0
 11
236.932
 21
42.697
 31
0.0
  0
LINE
  8
0
 62
     0
 10
236.932
 20
42.697
 30
0.0
 11
236.932
 21
41.6966
 31
0.0
  0
LINE
  8
0
 62
     0
 10
236.932
 20
41.6966
 30
0.0
 11
250.931
 21
41.6966
 31
0.0
  0
LINE
  8
0
 62
     0
 10
250.931
 20
41.6966
 30
0.0
 11
250.931
 21
42.697
 31
0.0
  0
LINE
  8
0
 62
     0
 10
250.931
 20
42.697
 30
0.0
 11
251.732
 21
42.697
 31
0.0
  0
LINE
  8
0
 62
     0
 10
251.732
 20
42.697
 30
0.0
 11
251.732
 21
45.7976
 31
0.0
  0
LINE
  8
0
 62
     0
 10
251.732
 20
45.7976
 30
0.0
 11
250.931
 21
45.7976
 31
0.0
  0
LINE
  8
0
 62
     0
 10
250.931
 20
45.7976
 30
0.0
 11
250.931
 21
51.5966
 31
0.0
  0
LINE
  8
0
 62
     0
 10
250.931
 20
51.5966
 30
0.0
 11
251.732
 21
51.5966
 31
0.0
  0
LINE
  8
0
 62
     0
 10
251.732
 20
51.5966
 30
0.0
 11
251.732
 21
54.6971
 31
0.0
  0
LINE
  8
0
 62
     0
 10
251.732
 20
54.6971
 30
0.0
 11
250.931
 21
54.6971
 31
0.0
  0
LINE
  8
0
 62
     0
 10
250.931
 20
54.6971
 30
0.0
 11
250.931
 21
55.6976
 31
0.0
  0
LINE
  8
0
 62
     0
 10
250.931
 20
55.6976
 30
0.0
 11
236.932
 21
55.6976
 31
0.0
  0
LINE
  8
0
 62
     0
 10
217.882
 20
55.6976
 30
0.0
 11
217.882
 21
54.6971
 31
0.0
  0
LINE
  8
0
 62
     0
 10
217.882
 20
54.6971
 30
0.0
 11
217.081
 21
54.6971
 31
0.0
  0
LINE
  8
0
 62
     0
 10
217.081
 20
54.6971
 30
0.0
 11
217.081
 21
51.5966
 31
0.0
  0
LINE
  8
0
 62
     0
 10
217.081
 20
51.5966
 30
0.0
 11
217.882
 21
51.5966
 31
0.0
  0
LINE
  8
0
 62
     0
 10
217.882
 20
51.5966
 30
0.0
 11
217.882
 21
45.7976
 31
0.0
  0
LINE
  8
0
 62
     0
 10
217.882
 20
45.7976
 30
0.0
 11
217.081
 21
45.7976
 31
0.0
  0
LINE
  8
0
 62
     0
 10
217.081
 20
45.7976
 30
0.0
 11
217.081
 21
42.697
 31
0.0
  0
LINE
  8
0
 62
     0
 10
217.081
 20
42.697
 30
0.0
 11
217.882
 21
42.697
 31
0.0
  0
LINE
  8
0
 62
     0
 10
217.882
 20
42.697
 30
0.0
 11
217.882
 21
41.6966
 31
0.0
  0
LINE
  8
0
 62
     0
 10
217.882
 20
41.6966
 30
0.0
 11
231.881
 21
41.6966
 31
0.0
  0
LINE
  8
0
 62
     0
 10
231.881
 20
41.6966
 30
0.0
 11
231.881
 21
42.697
 31
0.0
  0
LINE
  8
0
 62
     0
 10
231.881
 20
42.697
 30
0.0
 11
232.682
 21
42.697
 31
0.0
  0
LINE
  8
0
 62
     0
 10
232.682
 20
42.697
 30
0.0
 11
232.682
 21
45.7976
 31
0.0
  0
LINE
  8
0
 62
     0
 10
232.682
 20
45.7976
 30
0.0
 11
231.881
 21
45.7976
 31
0.0
  0
LINE
  8
0
 62
     0
 10
231.881
 20
45.7976
 30
0.0
 11
231.881
 21
51.5966
 31
0.0
  0
LINE
  8
0
 62
     0
 10
231.881
 20
51.5966
 30
0.0
 11
232.682
 21
51.5966
 31
0.0
  0
LINE
  8
0
 62
     0
 10
232.682
 20
51.5966
 30
0.0
 11
232.682
 21
54.6971
 31
0.0
  0
LINE
  8
0
 62
     0
 10
232.682
 20
54.6971
 30
0.0
 11
231.881
 21
54.6971
 31
0.0
  0
LINE
  8
0
 62
     0
 10
231.881
 20
54.6971
 30
0.0
 11
231.881
 21
55.6976
 31
0.0
  0
LINE
  8
0
 62
     0
 10
231.881
 20
55.6976
 30
0.0
 11
217.882
 21
55.6976
 31
0.0
  0
LINE
  8
0
 62
     0
 10
198.832
 20
55.6976
 30
0.0
 11
198.832
 21
54.6971
 31
0.0
  0
LINE
  8
0
 62
     0
 10
198.832
 20
54.6971
 30
0.0
 11
198.031
 21
54.6971
 31
0.0
  0
LINE
  8
0
 62
     0
 10
198.031
 20
54.6971
 30
0.0
 11
198.031
 21
51.5966
 31
0.0
  0
LINE
  8
0
 62
     0
 10
198.031
 20
51.5966
 30
0.0
 11
198.832
 21
51.5966
 31
0.0
  0
LINE
  8
0
 62
     0
 10
198.832
 20
51.5966
 30
0.0
 11
198.832
 21
45.7976
 31
0.0
  0
LINE
  8
0
 62
     0
 10
198.832
 20
45.7976
 30
0.0
 11
198.031
 21
45.7976
 31
0.0
  0
LINE
  8
0
 62
     0
 10
198.031
 20
45.7976
 30
0.0
 11
198.031
 21
42.697
 31
0.0
  0
LINE
  8
0
 62
     0
 10
198.031
 20
42.697
 30
0.0
 11
198.832
 21
42.697
 31
0.0
  0
LINE
  8
0
 62
     0
 10
198.832
 20
42.697
 30
0.0
 11
198.832
 21
41.6966
 31
0.0
  0
LINE
  8
0
 62
     0
 10
198.832
 20
41.6966
 30
0.0
 11
212.831
 21
41.6966
 31
0.0
  0
LINE
  8
0
 62
     0
 10
212.831
 20
41.6966
 30
0.0
 11
212.831
 21
42.697
 31
0.0
  0
LINE
  8
0
 62
     0
 10
212.831
 20
42.697
 30
0.0
 11
213.632
 21
42.697
 31
0.0
  0
LINE
  8
0
 62
     0
 10
213.632
 20
42.697
 30
0.0
 11
213.632
 21
45.7976
 31
0.0
  0
LINE
  8
0
 62
     0
 10
213.632
 20
45.7976
 30
0.0
 11
212.831
 21
45.7976
 31
0.0
  0
LINE
  8
0
 62
     0
 10
212.831
 20
45.7976
 30
0.0
 11
212.831
 21
51.5966
 31
0.0
  0
LINE
  8
0
 62
     0
 10
212.831
 20
51.5966
 30
0.0
 11
213.632
 21
51.5966
 31
0.0
  0
LINE
  8
0
 62
     0
 10
213.632
 20
51.5966
 30
0.0
 11
213.632
 21
54.6971
 31
0.0
  0
LINE
  8
0
 62
     0
 10
213.632
 20
54.6971
 30
0.0
 11
212.831
 21
54.6971
 31
0.0
  0
LINE
  8
0
 62
     0
 10
212.831
 20
54.6971
 30
0.0
 11
212.831
 21
55.6976
 31
0.0
  0
LINE
  8
0
 62
     0
 10
212.831
 20
55.6976
 30
0.0
 11
198.832
 21
55.6976
 31
0.0
  0
LINE
  8
0
 62
     0
 10
179.782
 20
55.6976
 30
0.0
 11
179.782
 21
54.6971
 31
0.0
  0
LINE
  8
0
 62
     0
 10
179.782
 20
54.6971
 30
0.0
 11
178.981
 21
54.6971
 31
0.0
  0
LINE
  8
0
 62
     0
 10
178.981
 20
54.6971
 30
0.0
 11
178.981
 21
51.5966
 31
0.0
  0
LINE
  8
0
 62
     0
 10
178.981
 20
51.5966
 30
0.0
 11
179.782
 21
51.5966
 31
0.0
  0
LINE
  8
0
 62
     0
 10
179.782
 20
51.5966
 30
0.0
 11
179.782
 21
45.7976
 31
0.0
  0
LINE
  8
0
 62
     0
 10
179.782
 20
45.7976
 30
0.0
 11
178.981
 21
45.7976
 31
0.0
  0
LINE
  8
0
 62
     0
 10
178.981
 20
45.7976
 30
0.0
 11
178.981
 21
42.697
 31
0.0
  0
LINE
  8
0
 62
     0
 10
178.981
 20
42.697
 30
0.0
 11
179.782
 21
42.697
 31
0.0
  0
LINE
  8
0
 62
     0
 10
179.782
 20
42.697
 30
0.0
 11
179.782
 21
41.6966
 31
0.0
  0
LINE
  8
0
 62
     0
 10
179.782
 20
41.6966
 30
0.0
 11
193.781
 21
41.6966
 31
0.0
  0
LINE
  8
0
 62
     0
 10
193.781
 20
41.6966
 30
0.0
 11
193.781
 21
42.697
 31
0.0
  0
LINE
  8
0
 62
     0
 10
193.781
 20
42.697
 30
0.0
 11
194.582
 21
42.697
 31
0.0
  0
LINE
  8
0
 62
     0
 10
194.582
 20
42.697
 30
0.0
 11
194.582
 21
45.7976
 31
0.0
  0
LINE
  8
0
 62
     0
 10
194.582
 20
45.7976
 30
0.0
 11
193.781
 21
45.7976
 31
0.0
  0
LINE
  8
0
 62
     0
 10
193.781
 20
45.7976
 30
0.0
 11
193.781
 21
51.5966
 31
0.0
  0
LINE
  8
0
 62
     0
 10
193.781
 20
51.5966
 30
0.0
 11
194.582
 21
51.5966
 31
0.0
  0
LINE
  8
0
 62
     0
 10
194.582
 20
51.5966
 30
0.0
 11
194.582
 21
54.6971
 31
0.0
  0
LINE
  8
0
 62
     0
 10
194.582
 20
54.6971
 30
0.0
 11
193.781
 21
54.6971
 31
0.0
  0
LINE
  8
0
 62
     0
 10
193.781
 20
54.6971
 30
0.0
 11
193.781
 21
55.6976
 31
0.0
  0
LINE
  8
0
 62
     0
 10
193.781
 20
55.6976
 30
0.0
 11
179.782
 21
55.6976
 31
0.0
  0
LINE
  8
0
 62
     0
 10
160.732
 20
55.6976
 30
0.0
 11
160.732
 21
54.6971
 31
0.0
  0
LINE
  8
0
 62
     0
 10
160.732
 20
54.6971
 30
0.0
 11
159.931
 21
54.6971
 31
0.0
  0
LINE
  8
0
 62
     0
 10
159.931
 20
54.6971
 30
0.0
 11
159.931
 21
51.5966
 31
0.0
  0
LINE
  8
0
 62
     0
 10
159.931
 20
51.5966
 30
0.0
 11
160.732
 21
51.5966
 31
0.0
  0
LINE
  8
0
 62
     0
 10
160.732
 20
51.5966
 30
0.0
 11
160.732
 21
45.7976
 31
0.0
  0
LINE
  8
0
 62
     0
 10
160.732
 20
45.7976
 30
0.0
 11
159.931
 21
45.7976
 31
0.0
  0
LINE
  8
0
 62
     0
 10
159.931
 20
45.7976
 30
0.0
 11
159.931
 21
42.697
 31
0.0
  0
LINE
  8
0
 62
     0
 10
159.931
 20
42.697
 30
0.0
 11
160.732
 21
42.697
 31
0.0
  0
LINE
  8
0
 62
     0
 10
160.732
 20
42.697
 30
0.0
 11
160.732
 21
41.6966
 31
0.0
  0
LINE
  8
0
 62
     0
 10
160.732
 20
41.6966
 30
0.0
 11
174.731
 21
41.6966
 31
0.0
  0
LINE
  8
0
 62
     0
 10
174.731
 20
41.6966
 30
0.0
 11
174.731
 21
42.697
 31
0.0
  0
LINE
  8
0
 62
     0
 10
174.731
 20
42.697
 30
0.0
 11
175.532
 21
42.697
 31
0.0
  0
LINE
  8
0
 62
     0
 10
175.532
 20
42.697
 30
0.0
 11
175.532
 21
45.7976
 31
0.0
  0
LINE
  8
0
 62
     0
 10
175.532
 20
45.7976
 30
0.0
 11
174.731
 21
45.7976
 31
0.0
  0
LINE
  8
0
 62
     0
 10
174.731
 20
45.7976
 30
0.0
 11
174.731
 21
51.5966
 31
0.0
  0
LINE
  8
0
 62
     0
 10
174.731
 20
51.5966
 30
0.0
 11
175.532
 21
51.5966
 31
0.0
  0
LINE
  8
0
 62
     0
 10
175.532
 20
51.5966
 30
0.0
 11
175.532
 21
54.6971
 31
0.0
  0
LINE
  8
0
 62
     0
 10
175.532
 20
54.6971
 30
0.0
 11
174.731
 21
54.6971
 31
0.0
  0
LINE
  8
0
 62
     0
 10
174.731
 20
54.6971
 30
0.0
 11
174.731
 21
55.6976
 31
0.0
  0
LINE
  8
0
 62
     0
 10
174.731
 20
55.6976
 30
0.0
 11
160.732
 21
55.6976
 31
0.0
  0
LINE
  8
0
 62
     0
 10
141.682
 20
55.6976
 30
0.0
 11
141.682
 21
54.6971
 31
0.0
  0
LINE
  8
0
 62
     0
 10
141.682
 20
54.6971
 30
0.0
 11
140.881
 21
54.6971
 31
0.0
  0
LINE
  8
0
 62
     0
 10
140.881
 20
54.6971
 30
0.0
 11
140.881
 21
51.5966
 31
0.0
  0
LINE
  8
0
 62
     0
 10
140.881
 20
51.5966
 30
0.0
 11
141.682
 21
51.5966
 31
0.0
  0
LINE
  8
0
 62
     0
 10
141.682
 20
51.5966
 30
0.0
 11
141.682
 21
45.7976
 31
0.0
  0
LINE
  8
0
 62
     0
 10
141.682
 20
45.7976
 30
0.0
 11
140.881
 21
45.7976
 31
0.0
  0
LINE
  8
0
 62
     0
 10
140.881
 20
45.7976
 30
0.0
 11
140.881
 21
42.697
 31
0.0
  0
LINE
  8
0
 62
     0
 10
140.881
 20
42.697
 30
0.0
 11
141.682
 21
42.697
 31
0.0
  0
LINE
  8
0
 62
     0
 10
141.682
 20
42.697
 30
0.0
 11
141.682
 21
41.6966
 31
0.0
  0
LINE
  8
0
 62
     0
 10
141.682
 20
41.6966
 30
0.0
 11
155.681
 21
41.6966
 31
0.0
  0
LINE
  8
0
 62
     0
 10
155.681
 20
41.6966
 30
0.0
 11
155.681
 21
42.697
 31
0.0
  0
LINE
  8
0
 62
     0
 10
155.681
 20
42.697
 30
0.0
 11
156.482
 21
42.697
 31
0.0
  0
LINE
  8
0
 62
     0
 10
156.482
 20
42.697
 30
0.0
 11
156.482
 21
45.7976
 31
0.0
  0
LINE
  8
0
 62
     0
 10
156.482
 20
45.7976
 30
0.0
 11
155.681
 21
45.7976
 31
0.0
  0
LINE
  8
0
 62
     0
 10
155.681
 20
45.7976
 30
0.0
 11
155.681
 21
51.5966
 31
0.0
  0
LINE
  8
0
 62
     0
 10
155.681
 20
51.5966
 30
0.0
 11
156.482
 21
51.5966
 31
0.0
  0
LINE
  8
0
 62
     0
 10
156.482
 20
51.5966
 30
0.0
 11
156.482
 21
54.6971
 31
0.0
  0
LINE
  8
0
 62
     0
 10
156.482
 20
54.6971
 30
0.0
 11
155.681
 21
54.6971
 31
0.0
  0
LINE
  8
0
 62
     0
 10
155.681
 20
54.6971
 30
0.0
 11
155.681
 21
55.6976
 31
0.0
  0
LINE
  8
0
 62
     0
 10
155.681
 20
55.6976
 30
0.0
 11
141.682
 21
55.6976
 31
0.0
  0
LINE
  8
0
 62
     0
 10
122.632
 20
55.6976
 30
0.0
 11
122.632
 21
54.6971
 31
0.0
  0
LINE
  8
0
 62
     0
 10
122.632
 20
54.6971
 30
0.0
 11
121.831
 21
54.6971
 31
0.0
  0
LINE
  8
0
 62
     0
 10
121.831
 20
54.6971
 30
0.0
 11
121.831
 21
51.5966
 31
0.0
  0
LINE
  8
0
 62
     0
 10
121.831
 20
51.5966
 30
0.0
 11
122.632
 21
51.5966
 31
0.0
  0
LINE
  8
0
 62
     0
 10
122.632
 20
51.5966
 30
0.0
 11
122.632
 21
45.7976
 31
0.0
  0
LINE
  8
0
 62
     0
 10
122.632
 20
45.7976
 30
0.0
 11
121.831
 21
45.7976
 31
0.0
  0
LINE
  8
0
 62
     0
 10
121.831
 20
45.7976
 30
0.0
 11
121.831
 21
42.697
 31
0.0
  0
LINE
  8
0
 62
     0
 10
121.831
 20
42.697
 30
0.0
 11
122.632
 21
42.697
 31
0.0
  0
LINE
  8
0
 62
     0
 10
122.632
 20
42.697
 30
0.0
 11
122.632
 21
41.6966
 31
0.0
  0
LINE
  8
0
 62
     0
 10
122.632
 20
41.6966
 30
0.0
 11
136.631
 21
41.6966
 31
0.0
  0
LINE
  8
0
 62
     0
 10
136.631
 20
41.6966
 30
0.0
 11
136.631
 21
42.697
 31
0.0
  0
LINE
  8
0
 62
     0
 10
136.631
 20
42.697
 30
0.0
 11
137.432
 21
42.697
 31
0.0
  0
LINE
  8
0
 62
     0
 10
137.432
 20
42.697
 30
0.0
 11
137.432
 21
45.7976
 31
0.0
  0
LINE
  8
0
 62
     0
 10
137.432
 20
45.7976
 30
0.0
 11
136.631
 21
45.7976
 31
0.0
  0
LINE
  8
0
 62
     0
 10
136.631
 20
45.7976
 30
0.0
 11
136.631
 21
51.5966
 31
0.0
  0
LINE
  8
0
 62
     0
 10
136.631
 20
51.5966
 30
0.0
 11
137.432
 21
51.5966
 31
0.0
  0
LINE
  8
0
 62
     0
 10
137.432
 20
51.5966
 30
0.0
 11
137.432
 21
54.6971
 31
0.0
  0
LINE
  8
0
 62
     0
 10
137.432
 20
54.6971
 30
0.0
 11
136.631
 21
54.6971
 31
0.0
  0
LINE
  8
0
 62
     0
 10
136.631
 20
54.6971
 30
0.0
 11
136.631
 21
55.6976
 31
0.0
  0
LINE
  8
0
 62
     0
 10
136.631
 20
55.6976
 30
0.0
 11
122.632
 21
55.6976
 31
0.0
  0
LINE
  8
0
 62
     0
 10
103.582
 20
55.6976
 30
0.0
 11
103.582
 21
54.6971
 31
0.0
  0
LINE
  8
0
 62
     0
 10
103.582
 20
54.6971
 30
0.0
 11
102.781
 21
54.6971
 31
0.0
  0
LINE
  8
0
 62
     0
 10
102.781
 20
54.6971
 30
0.0
 11
102.781
 21
51.5966
 31
0.0
  0
LINE
  8
0
 62
     0
 10
102.781
 20
51.5966
 30
0.0
 11
103.582
 21
51.5966
 31
0.0
  0
LINE
  8
0
 62
     0
 10
103.582
 20
51.5966
 30
0.0
 11
103.582
 21
45.7976
 31
0.0
  0
LINE
  8
0
 62
     0
 10
103.582
 20
45.7976
 30
0.0
 11
102.781
 21
45.7976
 31
0.0
  0
LINE
  8
0
 62
     0
 10
102.781
 20
45.7976
 30
0.0
 11
102.781
 21
42.697
 31
0.0
  0
LINE
  8
0
 62
     0
 10
102.781
 20
42.697
 30
0.0
 11
103.582
 21
42.697
 31
0.0
  0
LINE
  8
0
 62
     0
 10
103.582
 20
42.697
 30
0.0
 11
103.582
 21
41.6966
 31
0.0
  0
LINE
  8
0
 62
     0
 10
103.582
 20
41.6966
 30
0.0
 11
117.581
 21
41.6966
 31
0.0
  0
LINE
  8
0
 62
     0
 10
117.581
 20
41.6966
 30
0.0
 11
117.581
 21
42.697
 31
0.0
  0
LINE
  8
0
 62
     0
 10
117.581
 20
42.697
 30
0.0
 11
118.382
 21
42.697
 31
0.0
  0
LINE
  8
0
 62
     0
 10
118.382
 20
42.697
 30
0.0
 11
118.382
 21
45.7976
 31
0.0
  0
LINE
  8
0
 62
     0
 10
118.382
 20
45.7976
 30
0.0
 11
117.581
 21
45.7976
 31
0.0
  0
LINE
  8
0
 62
     0
 10
117.581
 20
45.7976
 30
0.0
 11
117.581
 21
51.5966
 31
0.0
  0
LINE
  8
0
 62
     0
 10
117.581
 20
51.5966
 30
0.0
 11
118.382
 21
51.5966
 31
0.0
  0
LINE
  8
0
 62
     0
 10
118.382
 20
51.5966
 30
0.0
 11
118.382
 21
54.6971
 31
0.0
  0
LINE
  8
0
 62
     0
 10
118.382
 20
54.6971
 30
0.0
 11
117.581
 21
54.6971
 31
0.0
  0
LINE
  8
0
 62
     0
 10
117.581
 20
54.6971
 30
0.0
 11
117.581
 21
55.6976
 31
0.0
  0
LINE
  8
0
 62
     0
 10
117.581
 20
55.6976
 30
0.0
 11
103.582
 21
55.6976
 31
0.0
  0
LINE
  8
0
 62
     0
 10
84.5316
 20
55.6976
 30
0.0
 11
84.5316
 21
54.6971
 31
0.0
  0
LINE
  8
0
 62
     0
 10
84.5316
 20
54.6971
 30
0.0
 11
83.7311
 21
54.6971
 31
0.0
  0
LINE
  8
0
 62
     0
 10
83.7311
 20
54.6971
 30
0.0
 11
83.7311
 21
51.5966
 31
0.0
  0
LINE
  8
0
 62
     0
 10
83.7311
 20
51.5966
 30
0.0
 11
84.5316
 21
51.5966
 31
0.0
  0
LINE
  8
0
 62
     0
 10
84.5316
 20
51.5966
 30
0.0
 11
84.5316
 21
45.7976
 31
0.0
  0
LINE
  8
0
 62
     0
 10
84.5316
 20
45.7976
 30
0.0
 11
83.7311
 21
45.7976
 31
0.0
  0
LINE
  8
0
 62
     0
 10
83.7311
 20
45.7976
 30
0.0
 11
83.7311
 21
42.697
 31
0.0
  0
LINE
  8
0
 62
     0
 10
83.7311
 20
42.697
 30
0.0
 11
84.5316
 21
42.697
 31
0.0
  0
LINE
  8
0
 62
     0
 10
84.5316
 20
42.697
 30
0.0
 11
84.5316
 21
41.6966
 31
0.0
  0
LINE
  8
0
 62
     0
 10
84.5316
 20
41.6966
 30
0.0
 11
98.5312
 21
41.6966
 31
0.0
  0
LINE
  8
0
 62
     0
 10
98.5312
 20
41.6966
 30
0.0
 11
98.5312
 21
42.697
 31
0.0
  0
LINE
  8
0
 62
     0
 10
98.5312
 20
42.697
 30
0.0
 11
99.3316
 21
42.697
 31
0.0
  0
LINE
  8
0
 62
     0
 10
99.3316
 20
42.697
 30
0.0
 11
99.3316
 21
45.7976
 31
0.0
  0
LINE
  8
0
 62
     0
 10
99.3316
 20
45.7976
 30
0.0
 11
98.5312
 21
45.7976
 31
0.0
  0
LINE
  8
0
 62
     0
 10
98.5312
 20
45.7976
 30
0.0
 11
98.5312
 21
51.5966
 31
0.0
  0
LINE
  8
0
 62
     0
 10
98.5312
 20
51.5966
 30
0.0
 11
99.3316
 21
51.5966
 31
0.0
  0
LINE
  8
0
 62
     0
 10
99.3316
 20
51.5966
 30
0.0
 11
99.3316
 21
54.6971
 31
0.0
  0
LINE
  8
0
 62
     0
 10
99.3316
 20
54.6971
 30
0.0
 11
98.5312
 21
54.6971
 31
0.0
  0
LINE
  8
0
 62
     0
 10
98.5312
 20
54.6971
 30
0.0
 11
98.5312
 21
55.6976
 31
0.0
  0
LINE
  8
0
 62
     0
 10
98.5312
 20
55.6976
 30
0.0
 11
84.5316
 21
55.6976
 31
0.0
  0
LINE
  8
0
 62
     0
 10
65.4816
 20
55.6976
 30
0.0
 11
65.4816
 21
54.6971
 31
0.0
  0
LINE
  8
0
 62
     0
 10
65.4816
 20
54.6971
 30
0.0
 11
64.6811
 21
54.6971
 31
0.0
  0
LINE
  8
0
 62
     0
 10
64.6811
 20
54.6971
 30
0.0
 11
64.6811
 21
51.5966
 31
0.0
  0
LINE
  8
0
 62
     0
 10
64.6811
 20
51.5966
 30
0.0
 11
65.4816
 21
51.5966
 31
0.0
  0
LINE
  8
0
 62
     0
 10
65.4816
 20
51.5966
 30
0.0
 11
65.4816
 21
45.7976
 31
0.0
  0
LINE
  8
0
 62
     0
 10
65.4816
 20
45.7976
 30
0.0
 11
64.6811
 21
45.7976
 31
0.0
  0
LINE
  8
0
 62
     0
 10
64.6811
 20
45.7976
 30
0.0
 11
64.6811
 21
42.697
 31
0.0
  0
LINE
  8
0
 62
     0
 10
64.6811
 20
42.697
 30
0.0
 11
65.4816
 21
42.697
 31
0.0
  0
LINE
  8
0
 62
     0
 10
65.4816
 20
42.697
 30
0.0
 11
65.4816
 21
41.6966
 31
0.0
  0
LINE
  8
0
 62
     0
 10
65.4816
 20
41.6966
 30
0.0
 11
79.4812
 21
41.6966
 31
0.0
  0
LINE
  8
0
 62
     0
 10
79.4812
 20
41.6966
 30
0.0
 11
79.4812
 21
42.697
 31
0.0
  0
LINE
  8
0
 62
     0
 10
79.4812
 20
42.697
 30
0.0
 11
80.2816
 21
42.697
 31
0.0
  0
LINE
  8
0
 62
     0
 10
80.2816
 20
42.697
 30
0.0
 11
80.2816
 21
45.7976
 31
0.0
  0
LINE
  8
0
 62
     0
 10
80.2816
 20
45.7976
 30
0.0
 11
79.4812
 21
45.7976
 31
0.0
  0
LINE
  8
0
 62
     0
 10
79.4812
 20
45.7976
 30
0.0
 11
79.4812
 21
51.5966
 31
0.0
  0
LINE
  8
0
 62
     0
 10
79.4812
 20
51.5966
 30
0.0
 11
80.2816
 21
51.5966
 31
0.0
  0
LINE
  8
0
 62
     0
 10
80.2816
 20
51.5966
 30
0.0
 11
80.2816
 21
54.6971
 31
0.0
  0
LINE
  8
0
 62
     0
 10
80.2816
 20
54.6971
 30
0.0
 11
79.4812
 21
54.6971
 31
0.0
  0
LINE
  8
0
 62
     0
 10
79.4812
 20
54.6971
 30
0.0
 11
79.4812
 21
55.6976
 31
0.0
  0
LINE
  8
0
 62
     0
 10
79.4812
 20
55.6976
 30
0.0
 11
65.4816
 21
55.6976
 31
0.0
  0
LINE
  8
0
 62
     0
 10
277.413
 20
74.7476
 30
0.0
 11
277.413
 21
73.7471
 31
0.0
  0
LINE
  8
0
 62
     0
 10
277.413
 20
73.7471
 30
0.0
 11
276.612
 21
73.7471
 31
0.0
  0
LINE
  8
0
 62
     0
 10
276.612
 20
73.7471
 30
0.0
 11
276.612
 21
70.6466
 31
0.0
  0
LINE
  8
0
 62
     0
 10
276.612
 20
70.6466
 30
0.0
 11
277.413
 21
70.6466
 31
0.0
  0
LINE
  8
0
 62
     0
 10
277.413
 20
70.6466
 30
0.0
 11
277.413
 21
70.0472
 31
0.0
  0
LINE
  8
0
 62
     0
 10
277.413
 20
70.0472
 30
0.0
 11
275.887
 21
70.0472
 31
0.0
  0
LINE
  8
0
 62
     0
 10
275.887
 20
70.0472
 30
0.0
 11
275.887
 21
73.2772
 31
0.0
  0
LINE
  8
0
 62
     0
 10
275.887
 20
73.2772
 30
0.0
 11
274.162
 21
73.2772
 31
0.0
  0
LINE
  8
0
 62
     0
 10
274.162
 20
73.2772
 30
0.0
 11
274.162
 21
74.1976
 31
0.0
  0
LINE
  8
0
 62
     0
 10
274.162
 20
74.1976
 30
0.0
 11
270.863
 21
74.1976
 31
0.0
  0
LINE
  8
0
 62
     0
 10
270.863
 20
74.1976
 30
0.0
 11
270.863
 21
73.2772
 31
0.0
  0
LINE
  8
0
 62
     0
 10
270.863
 20
73.2772
 30
0.0
 11
269.138
 21
73.2772
 31
0.0
  0
LINE
  8
0
 62
     0
 10
269.138
 20
73.2772
 30
0.0
 11
269.138
 21
70.0472
 31
0.0
  0
LINE
  8
0
 62
     0
 10
269.138
 20
70.0472
 30
0.0
 11
268.312
 21
70.0472
 31
0.0
  0
LINE
  8
0
 62
     0
 10
268.312
 20
70.0472
 30
0.0
 11
268.312
 21
67.2469
 31
0.0
  0
LINE
  8
0
 62
     0
 10
268.312
 20
67.2469
 30
0.0
 11
269.138
 21
67.2469
 31
0.0
  0
LINE
  8
0
 62
     0
 10
269.138
 20
67.2469
 30
0.0
 11
269.138
 21
60.9769
 31
0.0
  0
LINE
  8
0
 62
     0
 10
269.138
 20
60.9769
 30
0.0
 11
270.863
 21
60.9769
 31
0.0
  0
LINE
  8
0
 62
     0
 10
270.863
 20
60.9769
 30
0.0
 11
270.863
 21
59.9969
 31
0.0
  0
LINE
  8
0
 62
     0
 10
270.863
 20
59.9969
 30
0.0
 11
274.162
 21
59.9969
 31
0.0
  0
LINE
  8
0
 62
     0
 10
274.162
 20
59.9969
 30
0.0
 11
274.162
 21
60.9769
 31
0.0
  0
LINE
  8
0
 62
     0
 10
274.162
 20
60.9769
 30
0.0
 11
275.887
 21
60.9769
 31
0.0
  0
LINE
  8
0
 62
     0
 10
275.887
 20
60.9769
 30
0.0
 11
275.887
 21
65.4473
 31
0.0
  0
LINE
  8
0
 62
     0
 10
275.887
 20
65.4473
 30
0.0
 11
277.413
 21
65.4473
 31
0.0
  0
LINE
  8
0
 62
     0
 10
277.413
 20
65.4473
 30
0.0
 11
277.413
 21
64.8476
 31
0.0
  0
LINE
  8
0
 62
     0
 10
277.413
 20
64.8476
 30
0.0
 11
276.612
 21
64.8476
 31
0.0
  0
LINE
  8
0
 62
     0
 10
276.612
 20
64.8476
 30
0.0
 11
276.612
 21
61.747
 31
0.0
  0
LINE
  8
0
 62
     0
 10
276.612
 20
61.747
 30
0.0
 11
277.413
 21
61.747
 31
0.0
  0
LINE
  8
0
 62
     0
 10
277.413
 20
61.747
 30
0.0
 11
277.413
 21
60.7466
 31
0.0
  0
LINE
  8
0
 62
     0
 10
277.413
 20
60.7466
 30
0.0
 11
291.412
 21
60.7466
 31
0.0
  0
LINE
  8
0
 62
     0
 10
291.412
 20
60.7466
 30
0.0
 11
291.412
 21
61.747
 31
0.0
  0
LINE
  8
0
 62
     0
 10
291.412
 20
61.747
 30
0.0
 11
292.213
 21
61.747
 31
0.0
  0
LINE
  8
0
 62
     0
 10
292.213
 20
61.747
 30
0.0
 11
292.213
 21
64.8476
 31
0.0
  0
LINE
  8
0
 62
     0
 10
292.213
 20
64.8476
 30
0.0
 11
291.412
 21
64.8476
 31
0.0
  0
LINE
  8
0
 62
     0
 10
291.412
 20
64.8476
 30
0.0
 11
291.412
 21
65.4473
 31
0.0
  0
LINE
  8
0
 62
     0
 10
291.412
 20
65.4473
 30
0.0
 11
292.938
 21
65.4473
 31
0.0
  0
LINE
  8
0
 62
     0
 10
292.938
 20
65.4473
 30
0.0
 11
292.938
 21
60.9769
 31
0.0
  0
LINE
  8
0
 62
     0
 10
292.938
 20
60.9769
 30
0.0
 11
294.663
 21
60.9769
 31
0.0
  0
LINE
  8
0
 62
     0
 10
294.663
 20
60.9769
 30
0.0
 11
294.663
 21
59.9969
 31
0.0
  0
LINE
  8
0
 62
     0
 10
294.663
 20
59.9969
 30
0.0
 11
297.962
 21
59.9969
 31
0.0
  0
LINE
  8
0
 62
     0
 10
297.962
 20
59.9969
 30
0.0
 11
297.962
 21
60.9769
 31
0.0
  0
LINE
  8
0
 62
     0
 10
297.962
 20
60.9769
 30
0.0
 11
299.688
 21
60.9769
 31
0.0
  0
LINE
  8
0
 62
     0
 10
299.688
 20
60.9769
 30
0.0
 11
299.688
 21
67.2469
 31
0.0
  0
LINE
  8
0
 62
     0
 10
299.688
 20
67.2469
 30
0.0
 11
300.513
 21
67.2469
 31
0.0
  0
LINE
  8
0
 62
     0
 10
300.513
 20
67.2469
 30
0.0
 11
300.513
 21
70.0472
 31
0.0
  0
LINE
  8
0
 62
     0
 10
300.513
 20
70.0472
 30
0.0
 11
299.688
 21
70.0472
 31
0.0
  0
LINE
  8
0
 62
     0
 10
299.688
 20
70.0472
 30
0.0
 11
299.688
 21
73.2772
 31
0.0
  0
LINE
  8
0
 62
     0
 10
299.688
 20
73.2772
 30
0.0
 11
297.962
 21
73.2772
 31
0.0
  0
LINE
  8
0
 62
     0
 10
297.962
 20
73.2772
 30
0.0
 11
297.962
 21
74.1976
 31
0.0
  0
LINE
  8
0
 62
     0
 10
297.962
 20
74.1976
 30
0.0
 11
294.663
 21
74.1976
 31
0.0
  0
LINE
  8
0
 62
     0
 10
294.663
 20
74.1976
 30
0.0
 11
294.663
 21
73.2772
 31
0.0
  0
LINE
  8
0
 62
     0
 10
294.663
 20
73.2772
 30
0.0
 11
292.938
 21
73.2772
 31
0.0
  0
LINE
  8
0
 62
     0
 10
292.938
 20
73.2772
 30
0.0
 11
292.938
 21
70.0472
 31
0.0
  0
LINE
  8
0
 62
     0
 10
292.938
 20
70.0472
 30
0.0
 11
291.412
 21
70.0472
 31
0.0
  0
LINE
  8
0
 62
     0
 10
291.412
 20
70.0472
 30
0.0
 11
291.412
 21
70.6466
 31
0.0
  0
LINE
  8
0
 62
     0
 10
291.412
 20
70.6466
 30
0.0
 11
292.213
 21
70.6466
 31
0.0
  0
LINE
  8
0
 62
     0
 10
292.213
 20
70.6466
 30
0.0
 11
292.213
 21
73.7471
 31
0.0
  0
LINE
  8
0
 62
     0
 10
292.213
 20
73.7471
 30
0.0
 11
291.412
 21
73.7471
 31
0.0
  0
LINE
  8
0
 62
     0
 10
291.412
 20
73.7471
 30
0.0
 11
291.412
 21
74.7476
 31
0.0
  0
LINE
  8
0
 62
     0
 10
291.412
 20
74.7476
 30
0.0
 11
277.413
 21
74.7476
 31
0.0
  0
LINE
  8
0
 62
     0
 10
246.457
 20
74.7476
 30
0.0
 11
246.457
 21
73.7471
 31
0.0
  0
LINE
  8
0
 62
     0
 10
246.457
 20
73.7471
 30
0.0
 11
245.656
 21
73.7471
 31
0.0
  0
LINE
  8
0
 62
     0
 10
245.656
 20
73.7471
 30
0.0
 11
245.656
 21
70.6466
 31
0.0
  0
LINE
  8
0
 62
     0
 10
245.656
 20
70.6466
 30
0.0
 11
246.457
 21
70.6466
 31
0.0
  0
LINE
  8
0
 62
     0
 10
246.457
 20
70.6466
 30
0.0
 11
246.457
 21
64.8476
 31
0.0
  0
LINE
  8
0
 62
     0
 10
246.457
 20
64.8476
 30
0.0
 11
245.656
 21
64.8476
 31
0.0
  0
LINE
  8
0
 62
     0
 10
245.656
 20
64.8476
 30
0.0
 11
245.656
 21
61.747
 31
0.0
  0
LINE
  8
0
 62
     0
 10
245.656
 20
61.747
 30
0.0
 11
246.457
 21
61.747
 31
0.0
  0
LINE
  8
0
 62
     0
 10
246.457
 20
61.747
 30
0.0
 11
246.457
 21
60.7466
 31
0.0
  0
LINE
  8
0
 62
     0
 10
246.457
 20
60.7466
 30
0.0
 11
260.456
 21
60.7466
 31
0.0
  0
LINE
  8
0
 62
     0
 10
260.456
 20
60.7466
 30
0.0
 11
260.456
 21
61.747
 31
0.0
  0
LINE
  8
0
 62
     0
 10
260.456
 20
61.747
 30
0.0
 11
261.257
 21
61.747
 31
0.0
  0
LINE
  8
0
 62
     0
 10
261.257
 20
61.747
 30
0.0
 11
261.257
 21
64.8476
 31
0.0
  0
LINE
  8
0
 62
     0
 10
261.257
 20
64.8476
 30
0.0
 11
260.456
 21
64.8476
 31
0.0
  0
LINE
  8
0
 62
     0
 10
260.456
 20
64.8476
 30
0.0
 11
260.456
 21
70.6466
 31
0.0
  0
LINE
  8
0
 62
     0
 10
260.456
 20
70.6466
 30
0.0
 11
261.257
 21
70.6466
 31
0.0
  0
LINE
  8
0
 62
     0
 10
261.257
 20
70.6466
 30
0.0
 11
261.257
 21
73.7471
 31
0.0
  0
LINE
  8
0
 62
     0
 10
261.257
 20
73.7471
 30
0.0
 11
260.456
 21
73.7471
 31
0.0
  0
LINE
  8
0
 62
     0
 10
260.456
 20
73.7471
 30
0.0
 11
260.456
 21
74.7476
 31
0.0
  0
LINE
  8
0
 62
     0
 10
260.456
 20
74.7476
 30
0.0
 11
246.457
 21
74.7476
 31
0.0
  0
LINE
  8
0
 62
     0
 10
227.407
 20
74.7476
 30
0.0
 11
227.407
 21
73.7471
 31
0.0
  0
LINE
  8
0
 62
     0
 10
227.407
 20
73.7471
 30
0.0
 11
226.606
 21
73.7471
 31
0.0
  0
LINE
  8
0
 62
     0
 10
226.606
 20
73.7471
 30
0.0
 11
226.606
 21
70.6466
 31
0.0
  0
LINE
  8
0
 62
     0
 10
226.606
 20
70.6466
 30
0.0
 11
227.407
 21
70.6466
 31
0.0
  0
LINE
  8
0
 62
     0
 10
227.407
 20
70.6466
 30
0.0
 11
227.407
 21
64.8476
 31
0.0
  0
LINE
  8
0
 62
     0
 10
227.407
 20
64.8476
 30
0.0
 11
226.606
 21
64.8476
 31
0.0
  0
LINE
  8
0
 62
     0
 10
226.606
 20
64.8476
 30
0.0
 11
226.606
 21
61.747
 31
0.0
  0
LINE
  8
0
 62
     0
 10
226.606
 20
61.747
 30
0.0
 11
227.407
 21
61.747
 31
0.0
  0
LINE
  8
0
 62
     0
 10
227.407
 20
61.747
 30
0.0
 11
227.407
 21
60.7466
 31
0.0
  0
LINE
  8
0
 62
     0
 10
227.407
 20
60.7466
 30
0.0
 11
241.406
 21
60.7466
 31
0.0
  0
LINE
  8
0
 62
     0
 10
241.406
 20
60.7466
 30
0.0
 11
241.406
 21
61.747
 31
0.0
  0
LINE
  8
0
 62
     0
 10
241.406
 20
61.747
 30
0.0
 11
242.207
 21
61.747
 31
0.0
  0
LINE
  8
0
 62
     0
 10
242.207
 20
61.747
 30
0.0
 11
242.207
 21
64.8476
 31
0.0
  0
LINE
  8
0
 62
     0
 10
242.207
 20
64.8476
 30
0.0
 11
241.406
 21
64.8476
 31
0.0
  0
LINE
  8
0
 62
     0
 10
241.406
 20
64.8476
 30
0.0
 11
241.406
 21
70.6466
 31
0.0
  0
LINE
  8
0
 62
     0
 10
241.406
 20
70.6466
 30
0.0
 11
242.207
 21
70.6466
 31
0.0
  0
LINE
  8
0
 62
     0
 10
242.207
 20
70.6466
 30
0.0
 11
242.207
 21
73.7471
 31
0.0
  0
LINE
  8
0
 62
     0
 10
242.207
 20
73.7471
 30
0.0
 11
241.406
 21
73.7471
 31
0.0
  0
LINE
  8
0
 62
     0
 10
241.406
 20
73.7471
 30
0.0
 11
241.406
 21
74.7476
 31
0.0
  0
LINE
  8
0
 62
     0
 10
241.406
 20
74.7476
 30
0.0
 11
227.407
 21
74.7476
 31
0.0
  0
LINE
  8
0
 62
     0
 10
208.357
 20
74.7476
 30
0.0
 11
208.357
 21
73.7471
 31
0.0
  0
LINE
  8
0
 62
     0
 10
208.357
 20
73.7471
 30
0.0
 11
207.556
 21
73.7471
 31
0.0
  0
LINE
  8
0
 62
     0
 10
207.556
 20
73.7471
 30
0.0
 11
207.556
 21
70.6466
 31
0.0
  0
LINE
  8
0
 62
     0
 10
207.556
 20
70.6466
 30
0.0
 11
208.357
 21
70.6466
 31
0.0
  0
LINE
  8
0
 62
     0
 10
208.357
 20
70.6466
 30
0.0
 11
208.357
 21
64.8476
 31
0.0
  0
LINE
  8
0
 62
     0
 10
208.357
 20
64.8476
 30
0.0
 11
207.556
 21
64.8476
 31
0.0
  0
LINE
  8
0
 62
     0
 10
207.556
 20
64.8476
 30
0.0
 11
207.556
 21
61.747
 31
0.0
  0
LINE
  8
0
 62
     0
 10
207.556
 20
61.747
 30
0.0
 11
208.357
 21
61.747
 31
0.0
  0
LINE
  8
0
 62
     0
 10
208.357
 20
61.747
 30
0.0
 11
208.357
 21
60.7466
 31
0.0
  0
LINE
  8
0
 62
     0
 10
208.357
 20
60.7466
 30
0.0
 11
222.356
 21
60.7466
 31
0.0
  0
LINE
  8
0
 62
     0
 10
222.356
 20
60.7466
 30
0.0
 11
222.356
 21
61.747
 31
0.0
  0
LINE
  8
0
 62
     0
 10
222.356
 20
61.747
 30
0.0
 11
223.157
 21
61.747
 31
0.0
  0
LINE
  8
0
 62
     0
 10
223.157
 20
61.747
 30
0.0
 11
223.157
 21
64.8476
 31
0.0
  0
LINE
  8
0
 62
     0
 10
223.157
 20
64.8476
 30
0.0
 11
222.356
 21
64.8476
 31
0.0
  0
LINE
  8
0
 62
     0
 10
222.356
 20
64.8476
 30
0.0
 11
222.356
 21
70.6466
 31
0.0
  0
LINE
  8
0
 62
     0
 10
222.356
 20
70.6466
 30
0.0
 11
223.157
 21
70.6466
 31
0.0
  0
LINE
  8
0
 62
     0
 10
223.157
 20
70.6466
 30
0.0
 11
223.157
 21
73.7471
 31
0.0
  0
LINE
  8
0
 62
     0
 10
223.157
 20
73.7471
 30
0.0
 11
222.356
 21
73.7471
 31
0.0
  0
LINE
  8
0
 62
     0
 10
222.356
 20
73.7471
 30
0.0
 11
222.356
 21
74.7476
 31
0.0
  0
LINE
  8
0
 62
     0
 10
222.356
 20
74.7476
 30
0.0
 11
208.357
 21
74.7476
 31
0.0
  0
LINE
  8
0
 62
     0
 10
189.307
 20
74.7476
 30
0.0
 11
189.307
 21
73.7471
 31
0.0
  0
LINE
  8
0
 62
     0
 10
189.307
 20
73.7471
 30
0.0
 11
188.506
 21
73.7471
 31
0.0
  0
LINE
  8
0
 62
     0
 10
188.506
 20
73.7471
 30
0.0
 11
188.506
 21
70.6466
 31
0.0
  0
LINE
  8
0
 62
     0
 10
188.506
 20
70.6466
 30
0.0
 11
189.307
 21
70.6466
 31
0.0
  0
LINE
  8
0
 62
     0
 10
189.307
 20
70.6466
 30
0.0
 11
189.307
 21
64.8476
 31
0.0
  0
LINE
  8
0
 62
     0
 10
189.307
 20
64.8476
 30
0.0
 11
188.506
 21
64.8476
 31
0.0
  0
LINE
  8
0
 62
     0
 10
188.506
 20
64.8476
 30
0.0
 11
188.506
 21
61.747
 31
0.0
  0
LINE
  8
0
 62
     0
 10
188.506
 20
61.747
 30
0.0
 11
189.307
 21
61.747
 31
0.0
  0
LINE
  8
0
 62
     0
 10
189.307
 20
61.747
 30
0.0
 11
189.307
 21
60.7466
 31
0.0
  0
LINE
  8
0
 62
     0
 10
189.307
 20
60.7466
 30
0.0
 11
203.306
 21
60.7466
 31
0.0
  0
LINE
  8
0
 62
     0
 10
203.306
 20
60.7466
 30
0.0
 11
203.306
 21
61.747
 31
0.0
  0
LINE
  8
0
 62
     0
 10
203.306
 20
61.747
 30
0.0
 11
204.107
 21
61.747
 31
0.0
  0
LINE
  8
0
 62
     0
 10
204.107
 20
61.747
 30
0.0
 11
204.107
 21
64.8476
 31
0.0
  0
LINE
  8
0
 62
     0
 10
204.107
 20
64.8476
 30
0.0
 11
203.306
 21
64.8476
 31
0.0
  0
LINE
  8
0
 62
     0
 10
203.306
 20
64.8476
 30
0.0
 11
203.306
 21
70.6466
 31
0.0
  0
LINE
  8
0
 62
     0
 10
203.306
 20
70.6466
 30
0.0
 11
204.107
 21
70.6466
 31
0.0
  0
LINE
  8
0
 62
     0
 10
204.107
 20
70.6466
 30
0.0
 11
204.107
 21
73.7471
 31
0.0
  0
LINE
  8
0
 62
     0
 10
204.107
 20
73.7471
 30
0.0
 11
203.306
 21
73.7471
 31
0.0
  0
LINE
  8
0
 62
     0
 10
203.306
 20
73.7471
 30
0.0
 11
203.306
 21
74.7476
 31
0.0
  0
LINE
  8
0
 62
     0
 10
203.306
 20
74.7476
 30
0.0
 11
189.307
 21
74.7476
 31
0.0
  0
LINE
  8
0
 62
     0
 10
170.257
 20
74.7476
 30
0.0
 11
170.257
 21
73.7471
 31
0.0
  0
LINE
  8
0
 62
     0
 10
170.257
 20
73.7471
 30
0.0
 11
169.456
 21
73.7471
 31
0.0
  0
LINE
  8
0
 62
     0
 10
169.456
 20
73.7471
 30
0.0
 11
169.456
 21
70.6466
 31
0.0
  0
LINE
  8
0
 62
     0
 10
169.456
 20
70.6466
 30
0.0
 11
170.257
 21
70.6466
 31
0.0
  0
LINE
  8
0
 62
     0
 10
170.257
 20
70.6466
 30
0.0
 11
170.257
 21
64.8476
 31
0.0
  0
LINE
  8
0
 62
     0
 10
170.257
 20
64.8476
 30
0.0
 11
169.456
 21
64.8476
 31
0.0
  0
LINE
  8
0
 62
     0
 10
169.456
 20
64.8476
 30
0.0
 11
169.456
 21
61.747
 31
0.0
  0
LINE
  8
0
 62
     0
 10
169.456
 20
61.747
 30
0.0
 11
170.257
 21
61.747
 31
0.0
  0
LINE
  8
0
 62
     0
 10
170.257
 20
61.747
 30
0.0
 11
170.257
 21
60.7466
 31
0.0
  0
LINE
  8
0
 62
     0
 10
170.257
 20
60.7466
 30
0.0
 11
184.256
 21
60.7466
 31
0.0
  0
LINE
  8
0
 62
     0
 10
184.256
 20
60.7466
 30
0.0
 11
184.256
 21
61.747
 31
0.0
  0
LINE
  8
0
 62
     0
 10
184.256
 20
61.747
 30
0.0
 11
185.057
 21
61.747
 31
0.0
  0
LINE
  8
0
 62
     0
 10
185.057
 20
61.747
 30
0.0
 11
185.057
 21
64.8476
 31
0.0
  0
LINE
  8
0
 62
     0
 10
185.057
 20
64.8476
 30
0.0
 11
184.256
 21
64.8476
 31
0.0
  0
LINE
  8
0
 62
     0
 10
184.256
 20
64.8476
 30
0.0
 11
184.256
 21
70.6466
 31
0.0
  0
LINE
  8
0
 62
     0
 10
184.256
 20
70.6466
 30
0.0
 11
185.057
 21
70.6466
 31
0.0
  0
LINE
  8
0
 62
     0
 10
185.057
 20
70.6466
 30
0.0
 11
185.057
 21
73.7471
 31
0.0
  0
LINE
  8
0
 62
     0
 10
185.057
 20
73.7471
 30
0.0
 11
184.256
 21
73.7471
 31
0.0
  0
LINE
  8
0
 62
     0
 10
184.256
 20
73.7471
 30
0.0
 11
184.256
 21
74.7476
 31
0.0
  0
LINE
  8
0
 62
     0
 10
184.256
 20
74.7476
 30
0.0
 11
170.257
 21
74.7476
 31
0.0
  0
LINE
  8
0
 62
     0
 10
151.207
 20
74.7476
 30
0.0
 11
151.207
 21
73.7471
 31
0.0
  0
LINE
  8
0
 62
     0
 10
151.207
 20
73.7471
 30
0.0
 11
150.406
 21
73.7471
 31
0.0
  0
LINE
  8
0
 62
     0
 10
150.406
 20
73.7471
 30
0.0
 11
150.406
 21
70.6466
 31
0.0
  0
LINE
  8
0
 62
     0
 10
150.406
 20
70.6466
 30
0.0
 11
151.207
 21
70.6466
 31
0.0
  0
LINE
  8
0
 62
     0
 10
151.207
 20
70.6466
 30
0.0
 11
151.207
 21
64.8476
 31
0.0
  0
LINE
  8
0
 62
     0
 10
151.207
 20
64.8476
 30
0.0
 11
150.406
 21
64.8476
 31
0.0
  0
LINE
  8
0
 62
     0
 10
150.406
 20
64.8476
 30
0.0
 11
150.406
 21
61.747
 31
0.0
  0
LINE
  8
0
 62
     0
 10
150.406
 20
61.747
 30
0.0
 11
151.207
 21
61.747
 31
0.0
  0
LINE
  8
0
 62
     0
 10
151.207
 20
61.747
 30
0.0
 11
151.207
 21
60.7466
 31
0.0
  0
LINE
  8
0
 62
     0
 10
151.207
 20
60.7466
 30
0.0
 11
165.206
 21
60.7466
 31
0.0
  0
LINE
  8
0
 62
     0
 10
165.206
 20
60.7466
 30
0.0
 11
165.206
 21
61.747
 31
0.0
  0
LINE
  8
0
 62
     0
 10
165.206
 20
61.747
 30
0.0
 11
166.007
 21
61.747
 31
0.0
  0
LINE
  8
0
 62
     0
 10
166.007
 20
61.747
 30
0.0
 11
166.007
 21
64.8476
 31
0.0
  0
LINE
  8
0
 62
     0
 10
166.007
 20
64.8476
 30
0.0
 11
165.206
 21
64.8476
 31
0.0
  0
LINE
  8
0
 62
     0
 10
165.206
 20
64.8476
 30
0.0
 11
165.206
 21
70.6466
 31
0.0
  0
LINE
  8
0
 62
     0
 10
165.206
 20
70.6466
 30
0.0
 11
166.007
 21
70.6466
 31
0.0
  0
LINE
  8
0
 62
     0
 10
166.007
 20
70.6466
 30
0.0
 11
166.007
 21
73.7471
 31
0.0
  0
LINE
  8
0
 62
     0
 10
166.007
 20
73.7471
 30
0.0
 11
165.206
 21
73.7471
 31
0.0
  0
LINE
  8
0
 62
     0
 10
165.206
 20
73.7471
 30
0.0
 11
165.206
 21
74.7476
 31
0.0
  0
LINE
  8
0
 62
     0
 10
165.206
 20
74.7476
 30
0.0
 11
151.207
 21
74.7476
 31
0.0
  0
LINE
  8
0
 62
     0
 10
132.157
 20
74.7476
 30
0.0
 11
132.157
 21
73.7471
 31
0.0
  0
LINE
  8
0
 62
     0
 10
132.157
 20
73.7471
 30
0.0
 11
131.356
 21
73.7471
 31
0.0
  0
LINE
  8
0
 62
     0
 10
131.356
 20
73.7471
 30
0.0
 11
131.356
 21
70.6466
 31
0.0
  0
LINE
  8
0
 62
     0
 10
131.356
 20
70.6466
 30
0.0
 11
132.157
 21
70.6466
 31
0.0
  0
LINE
  8
0
 62
     0
 10
132.157
 20
70.6466
 30
0.0
 11
132.157
 21
64.8476
 31
0.0
  0
LINE
  8
0
 62
     0
 10
132.157
 20
64.8476
 30
0.0
 11
131.356
 21
64.8476
 31
0.0
  0
LINE
  8
0
 62
     0
 10
131.356
 20
64.8476
 30
0.0
 11
131.356
 21
61.747
 31
0.0
  0
LINE
  8
0
 62
     0
 10
131.356
 20
61.747
 30
0.0
 11
132.157
 21
61.747
 31
0.0
  0
LINE
  8
0
 62
     0
 10
132.157
 20
61.747
 30
0.0
 11
132.157
 21
60.7466
 31
0.0
  0
LINE
  8
0
 62
     0
 10
132.157
 20
60.7466
 30
0.0
 11
146.156
 21
60.7466
 31
0.0
  0
LINE
  8
0
 62
     0
 10
146.156
 20
60.7466
 30
0.0
 11
146.156
 21
61.747
 31
0.0
  0
LINE
  8
0
 62
     0
 10
146.156
 20
61.747
 30
0.0
 11
146.957
 21
61.747
 31
0.0
  0
LINE
  8
0
 62
     0
 10
146.957
 20
61.747
 30
0.0
 11
146.957
 21
64.8476
 31
0.0
  0
LINE
  8
0
 62
     0
 10
146.957
 20
64.8476
 30
0.0
 11
146.156
 21
64.8476
 31
0.0
  0
LINE
  8
0
 62
     0
 10
146.156
 20
64.8476
 30
0.0
 11
146.156
 21
70.6466
 31
0.0
  0
LINE
  8
0
 62
     0
 10
146.156
 20
70.6466
 30
0.0
 11
146.957
 21
70.6466
 31
0.0
  0
LINE
  8
0
 62
     0
 10
146.957
 20
70.6466
 30
0.0
 11
146.957
 21
73.7471
 31
0.0
  0
LINE
  8
0
 62
     0
 10
146.957
 20
73.7471
 30
0.0
 11
146.156
 21
73.7471
 31
0.0
  0
LINE
  8
0
 62
     0
 10
146.156
 20
73.7471
 30
0.0
 11
146.156
 21
74.7476
 31
0.0
  0
LINE
  8
0
 62
     0
 10
146.156
 20
74.7476
 30
0.0
 11
132.157
 21
74.7476
 31
0.0
  0
LINE
  8
0
 62
     0
 10
113.107
 20
74.7476
 30
0.0
 11
113.107
 21
73.7471
 31
0.0
  0
LINE
  8
0
 62
     0
 10
113.107
 20
73.7471
 30
0.0
 11
112.306
 21
73.7471
 31
0.0
  0
LINE
  8
0
 62
     0
 10
112.306
 20
73.7471
 30
0.0
 11
112.306
 21
70.6466
 31
0.0
  0
LINE
  8
0
 62
     0
 10
112.306
 20
70.6466
 30
0.0
 11
113.107
 21
70.6466
 31
0.0
  0
LINE
  8
0
 62
     0
 10
113.107
 20
70.6466
 30
0.0
 11
113.107
 21
64.8476
 31
0.0
  0
LINE
  8
0
 62
     0
 10
113.107
 20
64.8476
 30
0.0
 11
112.306
 21
64.8476
 31
0.0
  0
LINE
  8
0
 62
     0
 10
112.306
 20
64.8476
 30
0.0
 11
112.306
 21
61.747
 31
0.0
  0
LINE
  8
0
 62
     0
 10
112.306
 20
61.747
 30
0.0
 11
113.107
 21
61.747
 31
0.0
  0
LINE
  8
0
 62
     0
 10
113.107
 20
61.747
 30
0.0
 11
113.107
 21
60.7466
 31
0.0
  0
LINE
  8
0
 62
     0
 10
113.107
 20
60.7466
 30
0.0
 11
127.106
 21
60.7466
 31
0.0
  0
LINE
  8
0
 62
     0
 10
127.106
 20
60.7466
 30
0.0
 11
127.106
 21
61.747
 31
0.0
  0
LINE
  8
0
 62
     0
 10
127.106
 20
61.747
 30
0.0
 11
127.907
 21
61.747
 31
0.0
  0
LINE
  8
0
 62
     0
 10
127.907
 20
61.747
 30
0.0
 11
127.907
 21
64.8476
 31
0.0
  0
LINE
  8
0
 62
     0
 10
127.907
 20
64.8476
 30
0.0
 11
127.106
 21
64.8476
 31
0.0
  0
LINE
  8
0
 62
     0
 10
127.106
 20
64.8476
 30
0.0
 11
127.106
 21
70.6466
 31
0.0
  0
LINE
  8
0
 62
     0
 10
127.106
 20
70.6466
 30
0.0
 11
127.907
 21
70.6466
 31
0.0
  0
LINE
  8
0
 62
     0
 10
127.907
 20
70.6466
 30
0.0
 11
127.907
 21
73.7471
 31
0.0
  0
LINE
  8
0
 62
     0
 10
127.907
 20
73.7471
 30
0.0
 11
127.106
 21
73.7471
 31
0.0
  0
LINE
  8
0
 62
     0
 10
127.106
 20
73.7471
 30
0.0
 11
127.106
 21
74.7476
 31
0.0
  0
LINE
  8
0
 62
     0
 10
127.106
 20
74.7476
 30
0.0
 11
113.107
 21
74.7476
 31
0.0
  0
LINE
  8
0
 62
     0
 10
94.0566
 20
74.7476
 30
0.0
 11
94.0566
 21
73.7471
 31
0.0
  0
LINE
  8
0
 62
     0
 10
94.0566
 20
73.7471
 30
0.0
 11
93.2561
 21
73.7471
 31
0.0
  0
LINE
  8
0
 62
     0
 10
93.2561
 20
73.7471
 30
0.0
 11
93.2561
 21
70.6466
 31
0.0
  0
LINE
  8
0
 62
     0
 10
93.2561
 20
70.6466
 30
0.0
 11
94.0566
 21
70.6466
 31
0.0
  0
LINE
  8
0
 62
     0
 10
94.0566
 20
70.6466
 30
0.0
 11
94.0566
 21
64.8476
 31
0.0
  0
LINE
  8
0
 62
     0
 10
94.0566
 20
64.8476
 30
0.0
 11
93.2561
 21
64.8476
 31
0.0
  0
LINE
  8
0
 62
     0
 10
93.2561
 20
64.8476
 30
0.0
 11
93.2561
 21
61.747
 31
0.0
  0
LINE
  8
0
 62
     0
 10
93.2561
 20
61.747
 30
0.0
 11
94.0566
 21
61.747
 31
0.0
  0
LINE
  8
0
 62
     0
 10
94.0566
 20
61.747
 30
0.0
 11
94.0566
 21
60.7466
 31
0.0
  0
LINE
  8
0
 62
     0
 10
94.0566
 20
60.7466
 30
0.0
 11
108.056
 21
60.7466
 31
0.0
  0
LINE
  8
0
 62
     0
 10
108.056
 20
60.7466
 30
0.0
 11
108.056
 21
61.747
 31
0.0
  0
LINE
  8
0
 62
     0
 10
108.056
 20
61.747
 30
0.0
 11
108.857
 21
61.747
 31
0.0
  0
LINE
  8
0
 62
     0
 10
108.857
 20
61.747
 30
0.0
 11
108.857
 21
64.8476
 31
0.0
  0
LINE
  8
0
 62
     0
 10
108.857
 20
64.8476
 30
0.0
 11
108.056
 21
64.8476
 31
0.0
  0
LINE
  8
0
 62
     0
 10
108.056
 20
64.8476
 30
0.0
 11
108.056
 21
70.6466
 31
0.0
  0
LINE
  8
0
 62
     0
 10
108.056
 20
70.6466
 30
0.0
 11
108.857
 21
70.6466
 31
0.0
  0
LINE
  8
0
 62
     0
 10
108.857
 20
70.6466
 30
0.0
 11
108.857
 21
73.7471
 31
0.0
  0
LINE
  8
0
 62
     0
 10
108.857
 20
73.7471
 30
0.0
 11
108.056
 21
73.7471
 31
0.0
  0
LINE
  8
0
 62
     0
 10
108.056
 20
73.7471
 30
0.0
 11
108.056
 21
74.7476
 31
0.0
  0
LINE
  8
0
 62
     0
 10
108.056
 20
74.7476
 30
0.0
 11
94.0566
 21
74.7476
 31
0.0
  0
LINE
  8
0
 62
     0
 10
75.0066
 20
74.7476
 30
0.0
 11
75.0066
 21
73.7471
 31
0.0
  0
LINE
  8
0
 62
     0
 10
75.0066
 20
73.7471
 30
0.0
 11
74.2061
 21
73.7471
 31
0.0
  0
LINE
  8
0
 62
     0
 10
74.2061
 20
73.7471
 30
0.0
 11
74.2061
 21
70.6466
 31
0.0
  0
LINE
  8
0
 62
     0
 10
74.2061
 20
70.6466
 30
0.0
 11
75.0066
 21
70.6466
 31
0.0
  0
LINE
  8
0
 62
     0
 10
75.0066
 20
70.6466
 30
0.0
 11
75.0066
 21
64.8476
 31
0.0
  0
LINE
  8
0
 62
     0
 10
75.0066
 20
64.8476
 30
0.0
 11
74.2061
 21
64.8476
 31
0.0
  0
LINE
  8
0
 62
     0
 10
74.2061
 20
64.8476
 30
0.0
 11
74.2061
 21
61.747
 31
0.0
  0
LINE
  8
0
 62
     0
 10
74.2061
 20
61.747
 30
0.0
 11
75.0066
 21
61.747
 31
0.0
  0
LINE
  8
0
 62
     0
 10
75.0066
 20
61.747
 30
0.0
 11
75.0066
 21
60.7466
 31
0.0
  0
LINE
  8
0
 62
     0
 10
75.0066
 20
60.7466
 30
0.0
 11
89.0062
 21
60.7466
 31
0.0
  0
LINE
  8
0
 62
     0
 10
89.0062
 20
60.7466
 30
0.0
 11
89.0062
 21
61.747
 31
0.0
  0
LINE
  8
0
 62
     0
 10
89.0062
 20
61.747
 30
0.0
 11
89.8066
 21
61.747
 31
0.0
  0
LINE
  8
0
 62
     0
 10
89.8066
 20
61.747
 30
0.0
 11
89.8066
 21
64.8476
 31
0.0
  0
LINE
  8
0
 62
     0
 10
89.8066
 20
64.8476
 30
0.0
 11
89.0062
 21
64.8476
 31
0.0
  0
LINE
  8
0
 62
     0
 10
89.0062
 20
64.8476
 30
0.0
 11
89.0062
 21
70.6466
 31
0.0
  0
LINE
  8
0
 62
     0
 10
89.0062
 20
70.6466
 30
0.0
 11
89.8066
 21
70.6466
 31
0.0
  0
LINE
  8
0
 62
     0
 10
89.8066
 20
70.6466
 30
0.0
 11
89.8066
 21
73.7471
 31
0.0
  0
LINE
  8
0
 62
     0
 10
89.8066
 20
73.7471
 30
0.0
 11
89.0062
 21
73.7471
 31
0.0
  0
LINE
  8
0
 62
     0
 10
89.0062
 20
73.7471
 30
0.0
 11
89.0062
 21
74.7476
 31
0.0
  0
LINE
  8
0
 62
     0
 10
89.0062
 20
74.7476
 30
0.0
 11
75.0066
 21
74.7476
 31
0.0
  0
LINE
  8
0
 62
     0
 10
55.9566
 20
74.7476
 30
0.0
 11
55.9566
 21
73.7471
 31
0.0
  0
LINE
  8
0
 62
     0
 10
55.9566
 20
73.7471
 30
0.0
 11
55.1561
 21
73.7471
 31
0.0
  0
LINE
  8
0
 62
     0
 10
55.1561
 20
73.7471
 30
0.0
 11
55.1561
 21
70.6466
 31
0.0
  0
LINE
  8
0
 62
     0
 10
55.1561
 20
70.6466
 30
0.0
 11
55.9566
 21
70.6466
 31
0.0
  0
LINE
  8
0
 62
     0
 10
55.9566
 20
70.6466
 30
0.0
 11
55.9566
 21
64.8476
 31
0.0
  0
LINE
  8
0
 62
     0
 10
55.9566
 20
64.8476
 30
0.0
 11
55.1561
 21
64.8476
 31
0.0
  0
LINE
  8
0
 62
     0
 10
55.1561
 20
64.8476
 30
0.0
 11
55.1561
 21
61.747
 31
0.0
  0
LINE
  8
0
 62
     0
 10
55.1561
 20
61.747
 30
0.0
 11
55.9566
 21
61.747
 31
0.0
  0
LINE
  8
0
 62
     0
 10
55.9566
 20
61.747
 30
0.0
 11
55.9566
 21
60.7466
 31
0.0
  0
LINE
  8
0
 62
     0
 10
55.9566
 20
60.7466
 30
0.0
 11
69.9562
 21
60.7466
 31
0.0
  0
LINE
  8
0
 62
     0
 10
69.9562
 20
60.7466
 30
0.0
 11
69.9562
 21
61.747
 31
0.0
  0
LINE
  8
0
 62
     0
 10
69.9562
 20
61.747
 30
0.0
 11
70.7566
 21
61.747
 31
0.0
  0
LINE
  8
0
 62
     0
 10
70.7566
 20
61.747
 30
0.0
 11
70.7566
 21
64.8476
 31
0.0
  0
LINE
  8
0
 62
     0
 10
70.7566
 20
64.8476
 30
0.0
 11
69.9562
 21
64.8476
 31
0.0
  0
LINE
  8
0
 62
     0
 10
69.9562
 20
64.8476
 30
0.0
 11
69.9562
 21
70.6466
 31
0.0
  0
LINE
  8
0
 62
     0
 10
69.9562
 20
70.6466
 30
0.0
 11
70.7566
 21
70.6466
 31
0.0
  0
LINE
  8
0
 62
     0
 10
70.7566
 20
70.6466
 30
0.0
 11
70.7566
 21
73.7471
 31
0.0
  0
LINE
  8
0
 62
     0
 10
70.7566
 20
73.7471
 30
0.0
 11
69.9562
 21
73.7471
 31
0.0
  0
LINE
  8
0
 62
     0
 10
69.9562
 20
73.7471
 30
0.0
 11
69.9562
 21
74.7476
 31
0.0
  0
LINE
  8
0
 62
     0
 10
69.9562
 20
74.7476
 30
0.0
 11
55.9566
 21
74.7476
 31
0.0
  0
LINE
  8
0
 62
     0
 10
29.7629
 20
74.7476
 30
0.0
 11
29.7629
 21
73.7471
 31
0.0
  0
LINE
  8
0
 62
     0
 10
29.7629
 20
73.7471
 30
0.0
 11
28.9622
 21
73.7471
 31
0.0
  0
LINE
  8
0
 62
     0
 10
28.9622
 20
73.7471
 30
0.0
 11
28.9622
 21
70.6466
 31
0.0
  0
LINE
  8
0
 62
     0
 10
28.9622
 20
70.6466
 30
0.0
 11
29.7629
 21
70.6466
 31
0.0
  0
LINE
  8
0
 62
     0
 10
29.7629
 20
70.6466
 30
0.0
 11
29.7629
 21
64.8476
 31
0.0
  0
LINE
  8
0
 62
     0
 10
29.7629
 20
64.8476
 30
0.0
 11
28.9622
 21
64.8476
 31
0.0
  0
LINE
  8
0
 62
     0
 10
28.9622
 20
64.8476
 30
0.0
 11
28.9622
 21
61.747
 31
0.0
  0
LINE
  8
0
 62
     0
 10
28.9622
 20
61.747
 30
0.0
 11
29.7629
 21
61.747
 31
0.0
  0
LINE
  8
0
 62
     0
 10
29.7629
 20
61.747
 30
0.0
 11
29.7629
 21
60.7466
 31
0.0
  0
LINE
  8
0
 62
     0
 10
29.7629
 20
60.7466
 30
0.0
 11
43.7624
 21
60.7466
 31
0.0
  0
LINE
  8
0
 62
     0
 10
43.7624
 20
60.7466
 30
0.0
 11
43.7624
 21
61.747
 31
0.0
  0
LINE
  8
0
 62
     0
 10
43.7624
 20
61.747
 30
0.0
 11
44.5629
 21
61.747
 31
0.0
  0
LINE
  8
0
 62
     0
 10
44.5629
 20
61.747
 30
0.0
 11
44.5629
 21
64.8476
 31
0.0
  0
LINE
  8
0
 62
     0
 10
44.5629
 20
64.8476
 30
0.0
 11
43.7624
 21
64.8476
 31
0.0
  0
LINE
  8
0
 62
     0
 10
43.7624
 20
64.8476
 30
0.0
 11
43.7624
 21
70.6466
 31
0.0
  0
LINE
  8
0
 62
     0
 10
43.7624
 20
70.6466
 30
0.0
 11
44.5629
 21
70.6466
 31
0.0
  0
LINE
  8
0
 62
     0
 10
44.5629
 20
70.6466
 30
0.0
 11
44.5629
 21
73.7471
 31
0.0
  0
LINE
  8
0
 62
     0
 10
44.5629
 20
73.7471
 30
0.0
 11
43.7624
 21
73.7471
 31
0.0
  0
LINE
  8
0
 62
     0
 10
43.7624
 20
73.7471
 30
0.0
 11
43.7624
 21
74.7476
 31
0.0
  0
LINE
  8
0
 62
     0
 10
43.7624
 20
74.7476
 30
0.0
 11
29.7629
 21
74.7476
 31
0.0
  0
LINE
  8
0
 62
     0
 10
351.232
 20
93.7976
 30
0.0
 11
351.232
 21
92.7971
 31
0.0
  0
LINE
  8
0
 62
     0
 10
351.232
 20
92.7971
 30
0.0
 11
350.431
 21
92.7971
 31
0.0
  0
LINE
  8
0
 62
     0
 10
350.431
 20
92.7971
 30
0.0
 11
350.431
 21
89.6966
 31
0.0
  0
LINE
  8
0
 62
     0
 10
350.431
 20
89.6966
 30
0.0
 11
351.232
 21
89.6966
 31
0.0
  0
LINE
  8
0
 62
     0
 10
351.232
 20
89.6966
 30
0.0
 11
351.232
 21
83.8976
 31
0.0
  0
LINE
  8
0
 62
     0
 10
351.232
 20
83.8976
 30
0.0
 11
350.431
 21
83.8976
 31
0.0
  0
LINE
  8
0
 62
     0
 10
350.431
 20
83.8976
 30
0.0
 11
350.431
 21
80.797
 31
0.0
  0
LINE
  8
0
 62
     0
 10
350.431
 20
80.797
 30
0.0
 11
351.232
 21
80.797
 31
0.0
  0
LINE
  8
0
 62
     0
 10
351.232
 20
80.797
 30
0.0
 11
351.232
 21
79.7966
 31
0.0
  0
LINE
  8
0
 62
     0
 10
351.232
 20
79.7966
 30
0.0
 11
365.231
 21
79.7966
 31
0.0
  0
LINE
  8
0
 62
     0
 10
365.231
 20
79.7966
 30
0.0
 11
365.231
 21
80.797
 31
0.0
  0
LINE
  8
0
 62
     0
 10
365.231
 20
80.797
 30
0.0
 11
366.032
 21
80.797
 31
0.0
  0
LINE
  8
0
 62
     0
 10
366.032
 20
80.797
 30
0.0
 11
366.032
 21
83.8976
 31
0.0
  0
LINE
  8
0
 62
     0
 10
366.032
 20
83.8976
 30
0.0
 11
365.231
 21
83.8976
 31
0.0
  0
LINE
  8
0
 62
     0
 10
365.231
 20
83.8976
 30
0.0
 11
365.231
 21
89.6966
 31
0.0
  0
LINE
  8
0
 62
     0
 10
365.231
 20
89.6966
 30
0.0
 11
366.032
 21
89.6966
 31
0.0
  0
LINE
  8
0
 62
     0
 10
366.032
 20
89.6966
 30
0.0
 11
366.032
 21
92.7971
 31
0.0
  0
LINE
  8
0
 62
     0
 10
366.032
 20
92.7971
 30
0.0
 11
365.231
 21
92.7971
 31
0.0
  0
LINE
  8
0
 62
     0
 10
365.231
 20
92.7971
 30
0.0
 11
365.231
 21
93.7976
 31
0.0
  0
LINE
  8
0
 62
     0
 10
365.231
 20
93.7976
 30
0.0
 11
351.232
 21
93.7976
 31
0.0
  0
LINE
  8
0
 62
     0
 10
332.182
 20
93.7976
 30
0.0
 11
332.182
 21
92.7971
 31
0.0
  0
LINE
  8
0
 62
     0
 10
332.182
 20
92.7971
 30
0.0
 11
331.381
 21
92.7971
 31
0.0
  0
LINE
  8
0
 62
     0
 10
331.381
 20
92.7971
 30
0.0
 11
331.381
 21
89.6966
 31
0.0
  0
LINE
  8
0
 62
     0
 10
331.381
 20
89.6966
 30
0.0
 11
332.182
 21
89.6966
 31
0.0
  0
LINE
  8
0
 62
     0
 10
332.182
 20
89.6966
 30
0.0
 11
332.182
 21
83.8976
 31
0.0
  0
LINE
  8
0
 62
     0
 10
332.182
 20
83.8976
 30
0.0
 11
331.381
 21
83.8976
 31
0.0
  0
LINE
  8
0
 62
     0
 10
331.381
 20
83.8976
 30
0.0
 11
331.381
 21
80.797
 31
0.0
  0
LINE
  8
0
 62
     0
 10
331.381
 20
80.797
 30
0.0
 11
332.182
 21
80.797
 31
0.0
  0
LINE
  8
0
 62
     0
 10
332.182
 20
80.797
 30
0.0
 11
332.182
 21
79.7966
 31
0.0
  0
LINE
  8
0
 62
     0
 10
332.182
 20
79.7966
 30
0.0
 11
346.181
 21
79.7966
 31
0.0
  0
LINE
  8
0
 62
     0
 10
346.181
 20
79.7966
 30
0.0
 11
346.181
 21
80.797
 31
0.0
  0
LINE
  8
0
 62
     0
 10
346.181
 20
80.797
 30
0.0
 11
346.982
 21
80.797
 31
0.0
  0
LINE
  8
0
 62
     0
 10
346.982
 20
80.797
 30
0.0
 11
346.982
 21
83.8976
 31
0.0
  0
LINE
  8
0
 62
     0
 10
346.982
 20
83.8976
 30
0.0
 11
346.181
 21
83.8976
 31
0.0
  0
LINE
  8
0
 62
     0
 10
346.181
 20
83.8976
 30
0.0
 11
346.181
 21
89.6966
 31
0.0
  0
LINE
  8
0
 62
     0
 10
346.181
 20
89.6966
 30
0.0
 11
346.982
 21
89.6966
 31
0.0
  0
LINE
  8
0
 62
     0
 10
346.982
 20
89.6966
 30
0.0
 11
346.982
 21
92.7971
 31
0.0
  0
LINE
  8
0
 62
     0
 10
346.982
 20
92.7971
 30
0.0
 11
346.181
 21
92.7971
 31
0.0
  0
LINE
  8
0
 62
     0
 10
346.181
 20
92.7971
 30
0.0
 11
346.181
 21
93.7976
 31
0.0
  0
LINE
  8
0
 62
     0
 10
346.181
 20
93.7976
 30
0.0
 11
332.182
 21
93.7976
 31
0.0
  0
LINE
  8
0
 62
     0
 10
313.132
 20
93.7976
 30
0.0
 11
313.132
 21
92.7971
 31
0.0
  0
LINE
  8
0
 62
     0
 10
313.132
 20
92.7971
 30
0.0
 11
312.331
 21
92.7971
 31
0.0
  0
LINE
  8
0
 62
     0
 10
312.331
 20
92.7971
 30
0.0
 11
312.331
 21
89.6966
 31
0.0
  0
LINE
  8
0
 62
     0
 10
312.331
 20
89.6966
 30
0.0
 11
313.132
 21
89.6966
 31
0.0
  0
LINE
  8
0
 62
     0
 10
313.132
 20
89.6966
 30
0.0
 11
313.132
 21
83.8976
 31
0.0
  0
LINE
  8
0
 62
     0
 10
313.132
 20
83.8976
 30
0.0
 11
312.331
 21
83.8976
 31
0.0
  0
LINE
  8
0
 62
     0
 10
312.331
 20
83.8976
 30
0.0
 11
312.331
 21
80.797
 31
0.0
  0
LINE
  8
0
 62
     0
 10
312.331
 20
80.797
 30
0.0
 11
313.132
 21
80.797
 31
0.0
  0
LINE
  8
0
 62
     0
 10
313.132
 20
80.797
 30
0.0
 11
313.132
 21
79.7966
 31
0.0
  0
LINE
  8
0
 62
     0
 10
313.132
 20
79.7966
 30
0.0
 11
327.131
 21
79.7966
 31
0.0
  0
LINE
  8
0
 62
     0
 10
327.131
 20
79.7966
 30
0.0
 11
327.131
 21
80.797
 31
0.0
  0
LINE
  8
0
 62
     0
 10
327.131
 20
80.797
 30
0.0
 11
327.932
 21
80.797
 31
0.0
  0
LINE
  8
0
 62
     0
 10
327.932
 20
80.797
 30
0.0
 11
327.932
 21
83.8976
 31
0.0
  0
LINE
  8
0
 62
     0
 10
327.932
 20
83.8976
 30
0.0
 11
327.131
 21
83.8976
 31
0.0
  0
LINE
  8
0
 62
     0
 10
327.131
 20
83.8976
 30
0.0
 11
327.131
 21
89.6966
 31
0.0
  0
LINE
  8
0
 62
     0
 10
327.131
 20
89.6966
 30
0.0
 11
327.932
 21
89.6966
 31
0.0
  0
LINE
  8
0
 62
     0
 10
327.932
 20
89.6966
 30
0.0
 11
327.932
 21
92.7971
 31
0.0
  0
LINE
  8
0
 62
     0
 10
327.932
 20
92.7971
 30
0.0
 11
327.131
 21
92.7971
 31
0.0
  0
LINE
  8
0
 62
     0
 10
327.131
 20
92.7971
 30
0.0
 11
327.131
 21
93.7976
 31
0.0
  0
LINE
  8
0
 62
     0
 10
327.131
 20
93.7976
 30
0.0
 11
313.132
 21
93.7976
 31
0.0
  0
LINE
  8
0
 62
     0
 10
284.557
 20
93.7976
 30
0.0
 11
284.557
 21
92.7971
 31
0.0
  0
LINE
  8
0
 62
     0
 10
284.557
 20
92.7971
 30
0.0
 11
283.756
 21
92.7971
 31
0.0
  0
LINE
  8
0
 62
     0
 10
283.756
 20
92.7971
 30
0.0
 11
283.756
 21
89.6966
 31
0.0
  0
LINE
  8
0
 62
     0
 10
283.756
 20
89.6966
 30
0.0
 11
284.557
 21
89.6966
 31
0.0
  0
LINE
  8
0
 62
     0
 10
284.557
 20
89.6966
 30
0.0
 11
284.557
 21
83.8976
 31
0.0
  0
LINE
  8
0
 62
     0
 10
284.557
 20
83.8976
 30
0.0
 11
283.756
 21
83.8976
 31
0.0
  0
LINE
  8
0
 62
     0
 10
283.756
 20
83.8976
 30
0.0
 11
283.756
 21
80.797
 31
0.0
  0
LINE
  8
0
 62
     0
 10
283.756
 20
80.797
 30
0.0
 11
284.557
 21
80.797
 31
0.0
  0
LINE
  8
0
 62
     0
 10
284.557
 20
80.797
 30
0.0
 11
284.557
 21
79.7966
 31
0.0
  0
LINE
  8
0
 62
     0
 10
284.557
 20
79.7966
 30
0.0
 11
298.556
 21
79.7966
 31
0.0
  0
LINE
  8
0
 62
     0
 10
298.556
 20
79.7966
 30
0.0
 11
298.556
 21
80.797
 31
0.0
  0
LINE
  8
0
 62
     0
 10
298.556
 20
80.797
 30
0.0
 11
299.357
 21
80.797
 31
0.0
  0
LINE
  8
0
 62
     0
 10
299.357
 20
80.797
 30
0.0
 11
299.357
 21
83.8976
 31
0.0
  0
LINE
  8
0
 62
     0
 10
299.357
 20
83.8976
 30
0.0
 11
298.556
 21
83.8976
 31
0.0
  0
LINE
  8
0
 62
     0
 10
298.556
 20
83.8976
 30
0.0
 11
298.556
 21
89.6966
 31
0.0
  0
LINE
  8
0
 62
     0
 10
298.556
 20
89.6966
 30
0.0
 11
299.357
 21
89.6966
 31
0.0
  0
LINE
  8
0
 62
     0
 10
299.357
 20
89.6966
 30
0.0
 11
299.357
 21
92.7971
 31
0.0
  0
LINE
  8
0
 62
     0
 10
299.357
 20
92.7971
 30
0.0
 11
298.556
 21
92.7971
 31
0.0
  0
LINE
  8
0
 62
     0
 10
298.556
 20
92.7971
 30
0.0
 11
298.556
 21
93.7976
 31
0.0
  0
LINE
  8
0
 62
     0
 10
298.556
 20
93.7976
 30
0.0
 11
284.557
 21
93.7976
 31
0.0
  0
LINE
  8
0
 62
     0
 10
260.744
 20
93.7976
 30
0.0
 11
260.744
 21
92.7971
 31
0.0
  0
LINE
  8
0
 62
     0
 10
260.744
 20
92.7971
 30
0.0
 11
259.945
 21
92.7971
 31
0.0
  0
LINE
  8
0
 62
     0
 10
259.945
 20
92.7971
 30
0.0
 11
259.945
 21
89.6966
 31
0.0
  0
LINE
  8
0
 62
     0
 10
259.945
 20
89.6966
 30
0.0
 11
260.744
 21
89.6966
 31
0.0
  0
LINE
  8
0
 62
     0
 10
260.744
 20
89.6966
 30
0.0
 11
260.744
 21
83.8976
 31
0.0
  0
LINE
  8
0
 62
     0
 10
260.744
 20
83.8976
 30
0.0
 11
259.945
 21
83.8976
 31
0.0
  0
LINE
  8
0
 62
     0
 10
259.945
 20
83.8976
 30
0.0
 11
259.945
 21
80.797
 31
0.0
  0
LINE
  8
0
 62
     0
 10
259.945
 20
80.797
 30
0.0
 11
260.744
 21
80.797
 31
0.0
  0
LINE
  8
0
 62
     0
 10
260.744
 20
80.797
 30
0.0
 11
260.744
 21
79.7966
 31
0.0
  0
LINE
  8
0
 62
     0
 10
260.744
 20
79.7966
 30
0.0
 11
274.745
 21
79.7966
 31
0.0
  0
LINE
  8
0
 62
     0
 10
274.745
 20
79.7966
 30
0.0
 11
274.745
 21
80.797
 31
0.0
  0
LINE
  8
0
 62
     0
 10
274.745
 20
80.797
 30
0.0
 11
275.544
 21
80.797
 31
0.0
  0
LINE
  8
0
 62
     0
 10
275.544
 20
80.797
 30
0.0
 11
275.544
 21
83.8976
 31
0.0
  0
LINE
  8
0
 62
     0
 10
275.544
 20
83.8976
 30
0.0
 11
274.745
 21
83.8976
 31
0.0
  0
LINE
  8
0
 62
     0
 10
274.745
 20
83.8976
 30
0.0
 11
274.745
 21
89.6966
 31
0.0
  0
LINE
  8
0
 62
     0
 10
274.745
 20
89.6966
 30
0.0
 11
275.544
 21
89.6966
 31
0.0
  0
LINE
  8
0
 62
     0
 10
275.544
 20
89.6966
 30
0.0
 11
275.544
 21
92.7971
 31
0.0
  0
LINE
  8
0
 62
     0
 10
275.544
 20
92.7971
 30
0.0
 11
274.745
 21
92.7971
 31
0.0
  0
LINE
  8
0
 62
     0
 10
274.745
 20
92.7971
 30
0.0
 11
274.745
 21
93.7976
 31
0.0
  0
LINE
  8
0
 62
     0
 10
274.745
 20
93.7976
 30
0.0
 11
260.744
 21
93.7976
 31
0.0
  0
LINE
  8
0
 62
     0
 10
241.694
 20
93.7976
 30
0.0
 11
241.694
 21
92.7971
 31
0.0
  0
LINE
  8
0
 62
     0
 10
241.694
 20
92.7971
 30
0.0
 11
240.895
 21
92.7971
 31
0.0
  0
LINE
  8
0
 62
     0
 10
240.895
 20
92.7971
 30
0.0
 11
240.895
 21
89.6966
 31
0.0
  0
LINE
  8
0
 62
     0
 10
240.895
 20
89.6966
 30
0.0
 11
241.694
 21
89.6966
 31
0.0
  0
LINE
  8
0
 62
     0
 10
241.694
 20
89.6966
 30
0.0
 11
241.694
 21
83.8976
 31
0.0
  0
LINE
  8
0
 62
     0
 10
241.694
 20
83.8976
 30
0.0
 11
240.895
 21
83.8976
 31
0.0
  0
LINE
  8
0
 62
     0
 10
240.895
 20
83.8976
 30
0.0
 11
240.895
 21
80.797
 31
0.0
  0
LINE
  8
0
 62
     0
 10
240.895
 20
80.797
 30
0.0
 11
241.694
 21
80.797
 31
0.0
  0
LINE
  8
0
 62
     0
 10
241.694
 20
80.797
 30
0.0
 11
241.694
 21
79.7966
 31
0.0
  0
LINE
  8
0
 62
     0
 10
241.694
 20
79.7966
 30
0.0
 11
255.695
 21
79.7966
 31
0.0
  0
LINE
  8
0
 62
     0
 10
255.695
 20
79.7966
 30
0.0
 11
255.695
 21
80.797
 31
0.0
  0
LINE
  8
0
 62
     0
 10
255.695
 20
80.797
 30
0.0
 11
256.493
 21
80.797
 31
0.0
  0
LINE
  8
0
 62
     0
 10
256.493
 20
80.797
 30
0.0
 11
256.493
 21
83.8976
 31
0.0
  0
LINE
  8
0
 62
     0
 10
256.493
 20
83.8976
 30
0.0
 11
255.695
 21
83.8976
 31
0.0
  0
LINE
  8
0
 62
     0
 10
255.695
 20
83.8976
 30
0.0
 11
255.695
 21
89.6966
 31
0.0
  0
LINE
  8
0
 62
     0
 10
255.695
 20
89.6966
 30
0.0
 11
256.493
 21
89.6966
 31
0.0
  0
LINE
  8
0
 62
     0
 10
256.493
 20
89.6966
 30
0.0
 11
256.493
 21
92.7971
 31
0.0
  0
LINE
  8
0
 62
     0
 10
256.493
 20
92.7971
 30
0.0
 11
255.695
 21
92.7971
 31
0.0
  0
LINE
  8
0
 62
     0
 10
255.695
 20
92.7971
 30
0.0
 11
255.695
 21
93.7976
 31
0.0
  0
LINE
  8
0
 62
     0
 10
255.695
 20
93.7976
 30
0.0
 11
241.694
 21
93.7976
 31
0.0
  0
LINE
  8
0
 62
     0
 10
222.644
 20
93.7976
 30
0.0
 11
222.644
 21
92.7971
 31
0.0
  0
LINE
  8
0
 62
     0
 10
222.644
 20
92.7971
 30
0.0
 11
221.845
 21
92.7971
 31
0.0
  0
LINE
  8
0
 62
     0
 10
221.845
 20
92.7971
 30
0.0
 11
221.845
 21
89.6966
 31
0.0
  0
LINE
  8
0
 62
     0
 10
221.845
 20
89.6966
 30
0.0
 11
222.644
 21
89.6966
 31
0.0
  0
LINE
  8
0
 62
     0
 10
222.644
 20
89.6966
 30
0.0
 11
222.644
 21
83.8976
 31
0.0
  0
LINE
  8
0
 62
     0
 10
222.644
 20
83.8976
 30
0.0
 11
221.845
 21
83.8976
 31
0.0
  0
LINE
  8
0
 62
     0
 10
221.845
 20
83.8976
 30
0.0
 11
221.845
 21
80.797
 31
0.0
  0
LINE
  8
0
 62
     0
 10
221.845
 20
80.797
 30
0.0
 11
222.644
 21
80.797
 31
0.0
  0
LINE
  8
0
 62
     0
 10
222.644
 20
80.797
 30
0.0
 11
222.644
 21
79.7966
 31
0.0
  0
LINE
  8
0
 62
     0
 10
222.644
 20
79.7966
 30
0.0
 11
236.645
 21
79.7966
 31
0.0
  0
LINE
  8
0
 62
     0
 10
236.645
 20
79.7966
 30
0.0
 11
236.645
 21
80.797
 31
0.0
  0
LINE
  8
0
 62
     0
 10
236.645
 20
80.797
 30
0.0
 11
237.444
 21
80.797
 31
0.0
  0
LINE
  8
0
 62
     0
 10
237.444
 20
80.797
 30
0.0
 11
237.444
 21
83.8976
 31
0.0
  0
LINE
  8
0
 62
     0
 10
237.444
 20
83.8976
 30
0.0
 11
236.645
 21
83.8976
 31
0.0
  0
LINE
  8
0
 62
     0
 10
236.645
 20
83.8976
 30
0.0
 11
236.645
 21
89.6966
 31
0.0
  0
LINE
  8
0
 62
     0
 10
236.645
 20
89.6966
 30
0.0
 11
237.444
 21
89.6966
 31
0.0
  0
LINE
  8
0
 62
     0
 10
237.444
 20
89.6966
 30
0.0
 11
237.444
 21
92.7971
 31
0.0
  0
LINE
  8
0
 62
     0
 10
237.444
 20
92.7971
 30
0.0
 11
236.645
 21
92.7971
 31
0.0
  0
LINE
  8
0
 62
     0
 10
236.645
 20
92.7971
 30
0.0
 11
236.645
 21
93.7976
 31
0.0
  0
LINE
  8
0
 62
     0
 10
236.645
 20
93.7976
 30
0.0
 11
222.644
 21
93.7976
 31
0.0
  0
LINE
  8
0
 62
     0
 10
203.594
 20
93.7976
 30
0.0
 11
203.594
 21
92.7971
 31
0.0
  0
LINE
  8
0
 62
     0
 10
203.594
 20
92.7971
 30
0.0
 11
202.795
 21
92.7971
 31
0.0
  0
LINE
  8
0
 62
     0
 10
202.795
 20
92.7971
 30
0.0
 11
202.795
 21
89.6966
 31
0.0
  0
LINE
  8
0
 62
     0
 10
202.795
 20
89.6966
 30
0.0
 11
203.594
 21
89.6966
 31
0.0
  0
LINE
  8
0
 62
     0
 10
203.594
 20
89.6966
 30
0.0
 11
203.594
 21
83.8976
 31
0.0
  0
LINE
  8
0
 62
     0
 10
203.594
 20
83.8976
 30
0.0
 11
202.795
 21
83.8976
 31
0.0
  0
LINE
  8
0
 62
     0
 10
202.795
 20
83.8976
 30
0.0
 11
202.795
 21
80.797
 31
0.0
  0
LINE
  8
0
 62
     0
 10
202.795
 20
80.797
 30
0.0
 11
203.594
 21
80.797
 31
0.0
  0
LINE
  8
0
 62
     0
 10
203.594
 20
80.797
 30
0.0
 11
203.594
 21
79.7966
 31
0.0
  0
LINE
  8
0
 62
     0
 10
203.594
 20
79.7966
 30
0.0
 11
217.595
 21
79.7966
 31
0.0
  0
LINE
  8
0
 62
     0
 10
217.595
 20
79.7966
 30
0.0
 11
217.595
 21
80.797
 31
0.0
  0
LINE
  8
0
 62
     0
 10
217.595
 20
80.797
 30
0.0
 11
218.394
 21
80.797
 31
0.0
  0
LINE
  8
0
 62
     0
 10
218.394
 20
80.797
 30
0.0
 11
218.394
 21
83.8976
 31
0.0
  0
LINE
  8
0
 62
     0
 10
218.394
 20
83.8976
 30
0.0
 11
217.595
 21
83.8976
 31
0.0
  0
LINE
  8
0
 62
     0
 10
217.595
 20
83.8976
 30
0.0
 11
217.595
 21
89.6966
 31
0.0
  0
LINE
  8
0
 62
     0
 10
217.595
 20
89.6966
 30
0.0
 11
218.394
 21
89.6966
 31
0.0
  0
LINE
  8
0
 62
     0
 10
218.394
 20
89.6966
 30
0.0
 11
218.394
 21
92.7971
 31
0.0
  0
LINE
  8
0
 62
     0
 10
218.394
 20
92.7971
 30
0.0
 11
217.595
 21
92.7971
 31
0.0
  0
LINE
  8
0
 62
     0
 10
217.595
 20
92.7971
 30
0.0
 11
217.595
 21
93.7976
 31
0.0
  0
LINE
  8
0
 62
     0
 10
217.595
 20
93.7976
 30
0.0
 11
203.594
 21
93.7976
 31
0.0
  0
LINE
  8
0
 62
     0
 10
184.544
 20
93.7976
 30
0.0
 11
184.544
 21
92.7971
 31
0.0
  0
LINE
  8
0
 62
     0
 10
184.544
 20
92.7971
 30
0.0
 11
183.745
 21
92.7971
 31
0.0
  0
LINE
  8
0
 62
     0
 10
183.745
 20
92.7971
 30
0.0
 11
183.745
 21
89.6966
 31
0.0
  0
LINE
  8
0
 62
     0
 10
183.745
 20
89.6966
 30
0.0
 11
184.544
 21
89.6966
 31
0.0
  0
LINE
  8
0
 62
     0
 10
184.544
 20
89.6966
 30
0.0
 11
184.544
 21
83.8976
 31
0.0
  0
LINE
  8
0
 62
     0
 10
184.544
 20
83.8976
 30
0.0
 11
183.745
 21
83.8976
 31
0.0
  0
LINE
  8
0
 62
     0
 10
183.745
 20
83.8976
 30
0.0
 11
183.745
 21
80.797
 31
0.0
  0
LINE
  8
0
 62
     0
 10
183.745
 20
80.797
 30
0.0
 11
184.544
 21
80.797
 31
0.0
  0
LINE
  8
0
 62
     0
 10
184.544
 20
80.797
 30
0.0
 11
184.544
 21
79.7966
 31
0.0
  0
LINE
  8
0
 62
     0
 10
184.544
 20
79.7966
 30
0.0
 11
198.545
 21
79.7966
 31
0.0
  0
LINE
  8
0
 62
     0
 10
198.545
 20
79.7966
 30
0.0
 11
198.545
 21
80.797
 31
0.0
  0
LINE
  8
0
 62
     0
 10
198.545
 20
80.797
 30
0.0
 11
199.344
 21
80.797
 31
0.0
  0
LINE
  8
0
 62
     0
 10
199.344
 20
80.797
 30
0.0
 11
199.344
 21
83.8976
 31
0.0
  0
LINE
  8
0
 62
     0
 10
199.344
 20
83.8976
 30
0.0
 11
198.545
 21
83.8976
 31
0.0
  0
LINE
  8
0
 62
     0
 10
198.545
 20
83.8976
 30
0.0
 11
198.545
 21
89.6966
 31
0.0
  0
LINE
  8
0
 62
     0
 10
198.545
 20
89.6966
 30
0.0
 11
199.344
 21
89.6966
 31
0.0
  0
LINE
  8
0
 62
     0
 10
199.344
 20
89.6966
 30
0.0
 11
199.344
 21
92.7971
 31
0.0
  0
LINE
  8
0
 62
     0
 10
199.344
 20
92.7971
 30
0.0
 11
198.545
 21
92.7971
 31
0.0
  0
LINE
  8
0
 62
     0
 10
198.545
 20
92.7971
 30
0.0
 11
198.545
 21
93.7976
 31
0.0
  0
LINE
  8
0
 62
     0
 10
198.545
 20
93.7976
 30
0.0
 11
184.544
 21
93.7976
 31
0.0
  0
LINE
  8
0
 62
     0
 10
165.494
 20
93.7976
 30
0.0
 11
165.494
 21
92.7971
 31
0.0
  0
LINE
  8
0
 62
     0
 10
165.494
 20
92.7971
 30
0.0
 11
164.695
 21
92.7971
 31
0.0
  0
LINE
  8
0
 62
     0
 10
164.695
 20
92.7971
 30
0.0
 11
164.695
 21
89.6966
 31
0.0
  0
LINE
  8
0
 62
     0
 10
164.695
 20
89.6966
 30
0.0
 11
165.494
 21
89.6966
 31
0.0
  0
LINE
  8
0
 62
     0
 10
165.494
 20
89.6966
 30
0.0
 11
165.494
 21
83.8976
 31
0.0
  0
LINE
  8
0
 62
     0
 10
165.494
 20
83.8976
 30
0.0
 11
164.695
 21
83.8976
 31
0.0
  0
LINE
  8
0
 62
     0
 10
164.695
 20
83.8976
 30
0.0
 11
164.695
 21
80.797
 31
0.0
  0
LINE
  8
0
 62
     0
 10
164.695
 20
80.797
 30
0.0
 11
165.494
 21
80.797
 31
0.0
  0
LINE
  8
0
 62
     0
 10
165.494
 20
80.797
 30
0.0
 11
165.494
 21
79.7966
 31
0.0
  0
LINE
  8
0
 62
     0
 10
165.494
 20
79.7966
 30
0.0
 11
179.495
 21
79.7966
 31
0.0
  0
LINE
  8
0
 62
     0
 10
179.495
 20
79.7966
 30
0.0
 11
179.495
 21
80.797
 31
0.0
  0
LINE
  8
0
 62
     0
 10
179.495
 20
80.797
 30
0.0
 11
180.294
 21
80.797
 31
0.0
  0
LINE
  8
0
 62
     0
 10
180.294
 20
80.797
 30
0.0
 11
180.294
 21
83.8976
 31
0.0
  0
LINE
  8
0
 62
     0
 10
180.294
 20
83.8976
 30
0.0
 11
179.495
 21
83.8976
 31
0.0
  0
LINE
  8
0
 62
     0
 10
179.495
 20
83.8976
 30
0.0
 11
179.495
 21
89.6966
 31
0.0
  0
LINE
  8
0
 62
     0
 10
179.495
 20
89.6966
 30
0.0
 11
180.294
 21
89.6966
 31
0.0
  0
LINE
  8
0
 62
     0
 10
180.294
 20
89.6966
 30
0.0
 11
180.294
 21
92.7971
 31
0.0
  0
LINE
  8
0
 62
     0
 10
180.294
 20
92.7971
 30
0.0
 11
179.495
 21
92.7971
 31
0.0
  0
LINE
  8
0
 62
     0
 10
179.495
 20
92.7971
 30
0.0
 11
179.495
 21
93.7976
 31
0.0
  0
LINE
  8
0
 62
     0
 10
179.495
 20
93.7976
 30
0.0
 11
165.494
 21
93.7976
 31
0.0
  0
LINE
  8
0
 62
     0
 10
146.444
 20
93.7976
 30
0.0
 11
146.444
 21
92.7971
 31
0.0
  0
LINE
  8
0
 62
     0
 10
146.444
 20
92.7971
 30
0.0
 11
145.645
 21
92.7971
 31
0.0
  0
LINE
  8
0
 62
     0
 10
145.645
 20
92.7971
 30
0.0
 11
145.645
 21
89.6966
 31
0.0
  0
LINE
  8
0
 62
     0
 10
145.645
 20
89.6966
 30
0.0
 11
146.444
 21
89.6966
 31
0.0
  0
LINE
  8
0
 62
     0
 10
146.444
 20
89.6966
 30
0.0
 11
146.444
 21
83.8976
 31
0.0
  0
LINE
  8
0
 62
     0
 10
146.444
 20
83.8976
 30
0.0
 11
145.645
 21
83.8976
 31
0.0
  0
LINE
  8
0
 62
     0
 10
145.645
 20
83.8976
 30
0.0
 11
145.645
 21
80.797
 31
0.0
  0
LINE
  8
0
 62
     0
 10
145.645
 20
80.797
 30
0.0
 11
146.444
 21
80.797
 31
0.0
  0
LINE
  8
0
 62
     0
 10
146.444
 20
80.797
 30
0.0
 11
146.444
 21
79.7966
 31
0.0
  0
LINE
  8
0
 62
     0
 10
146.444
 20
79.7966
 30
0.0
 11
160.445
 21
79.7966
 31
0.0
  0
LINE
  8
0
 62
     0
 10
160.445
 20
79.7966
 30
0.0
 11
160.445
 21
80.797
 31
0.0
  0
LINE
  8
0
 62
     0
 10
160.445
 20
80.797
 30
0.0
 11
161.244
 21
80.797
 31
0.0
  0
LINE
  8
0
 62
     0
 10
161.244
 20
80.797
 30
0.0
 11
161.244
 21
83.8976
 31
0.0
  0
LINE
  8
0
 62
     0
 10
161.244
 20
83.8976
 30
0.0
 11
160.445
 21
83.8976
 31
0.0
  0
LINE
  8
0
 62
     0
 10
160.445
 20
83.8976
 30
0.0
 11
160.445
 21
89.6966
 31
0.0
  0
LINE
  8
0
 62
     0
 10
160.445
 20
89.6966
 30
0.0
 11
161.244
 21
89.6966
 31
0.0
  0
LINE
  8
0
 62
     0
 10
161.244
 20
89.6966
 30
0.0
 11
161.244
 21
92.7971
 31
0.0
  0
LINE
  8
0
 62
     0
 10
161.244
 20
92.7971
 30
0.0
 11
160.445
 21
92.7971
 31
0.0
  0
LINE
  8
0
 62
     0
 10
160.445
 20
92.7971
 30
0.0
 11
160.445
 21
93.7976
 31
0.0
  0
LINE
  8
0
 62
     0
 10
160.445
 20
93.7976
 30
0.0
 11
146.444
 21
93.7976
 31
0.0
  0
LINE
  8
0
 62
     0
 10
127.394
 20
93.7976
 30
0.0
 11
127.394
 21
92.7971
 31
0.0
  0
LINE
  8
0
 62
     0
 10
127.394
 20
92.7971
 30
0.0
 11
126.595
 21
92.7971
 31
0.0
  0
LINE
  8
0
 62
     0
 10
126.595
 20
92.7971
 30
0.0
 11
126.595
 21
89.6966
 31
0.0
  0
LINE
  8
0
 62
     0
 10
126.595
 20
89.6966
 30
0.0
 11
127.394
 21
89.6966
 31
0.0
  0
LINE
  8
0
 62
     0
 10
127.394
 20
89.6966
 30
0.0
 11
127.394
 21
83.8976
 31
0.0
  0
LINE
  8
0
 62
     0
 10
127.394
 20
83.8976
 30
0.0
 11
126.595
 21
83.8976
 31
0.0
  0
LINE
  8
0
 62
     0
 10
126.595
 20
83.8976
 30
0.0
 11
126.595
 21
80.797
 31
0.0
  0
LINE
  8
0
 62
     0
 10
126.595
 20
80.797
 30
0.0
 11
127.394
 21
80.797
 31
0.0
  0
LINE
  8
0
 62
     0
 10
127.394
 20
80.797
 30
0.0
 11
127.394
 21
79.7966
 31
0.0
  0
LINE
  8
0
 62
     0
 10
127.394
 20
79.7966
 30
0.0
 11
141.395
 21
79.7966
 31
0.0
  0
LINE
  8
0
 62
     0
 10
141.395
 20
79.7966
 30
0.0
 11
141.395
 21
80.797
 31
0.0
  0
LINE
  8
0
 62
     0
 10
141.395
 20
80.797
 30
0.0
 11
142.194
 21
80.797
 31
0.0
  0
LINE
  8
0
 62
     0
 10
142.194
 20
80.797
 30
0.0
 11
142.194
 21
83.8976
 31
0.0
  0
LINE
  8
0
 62
     0
 10
142.194
 20
83.8976
 30
0.0
 11
141.395
 21
83.8976
 31
0.0
  0
LINE
  8
0
 62
     0
 10
141.395
 20
83.8976
 30
0.0
 11
141.395
 21
89.6966
 31
0.0
  0
LINE
  8
0
 62
     0
 10
141.395
 20
89.6966
 30
0.0
 11
142.194
 21
89.6966
 31
0.0
  0
LINE
  8
0
 62
     0
 10
142.194
 20
89.6966
 30
0.0
 11
142.194
 21
92.7971
 31
0.0
  0
LINE
  8
0
 62
     0
 10
142.194
 20
92.7971
 30
0.0
 11
141.395
 21
92.7971
 31
0.0
  0
LINE
  8
0
 62
     0
 10
141.395
 20
92.7971
 30
0.0
 11
141.395
 21
93.7976
 31
0.0
  0
LINE
  8
0
 62
     0
 10
141.395
 20
93.7976
 30
0.0
 11
127.394
 21
93.7976
 31
0.0
  0
LINE
  8
0
 62
     0
 10
108.344
 20
93.7976
 30
0.0
 11
108.344
 21
92.7971
 31
0.0
  0
LINE
  8
0
 62
     0
 10
108.344
 20
92.7971
 30
0.0
 11
107.545
 21
92.7971
 31
0.0
  0
LINE
  8
0
 62
     0
 10
107.545
 20
92.7971
 30
0.0
 11
107.545
 21
89.6966
 31
0.0
  0
LINE
  8
0
 62
     0
 10
107.545
 20
89.6966
 30
0.0
 11
108.344
 21
89.6966
 31
0.0
  0
LINE
  8
0
 62
     0
 10
108.344
 20
89.6966
 30
0.0
 11
108.344
 21
83.8976
 31
0.0
  0
LINE
  8
0
 62
     0
 10
108.344
 20
83.8976
 30
0.0
 11
107.545
 21
83.8976
 31
0.0
  0
LINE
  8
0
 62
     0
 10
107.545
 20
83.8976
 30
0.0
 11
107.545
 21
80.797
 31
0.0
  0
LINE
  8
0
 62
     0
 10
107.545
 20
80.797
 30
0.0
 11
108.344
 21
80.797
 31
0.0
  0
LINE
  8
0
 62
     0
 10
108.344
 20
80.797
 30
0.0
 11
108.344
 21
79.7966
 31
0.0
  0
LINE
  8
0
 62
     0
 10
108.344
 20
79.7966
 30
0.0
 11
122.345
 21
79.7966
 31
0.0
  0
LINE
  8
0
 62
     0
 10
122.345
 20
79.7966
 30
0.0
 11
122.345
 21
80.797
 31
0.0
  0
LINE
  8
0
 62
     0
 10
122.345
 20
80.797
 30
0.0
 11
123.144
 21
80.797
 31
0.0
  0
LINE
  8
0
 62
     0
 10
123.144
 20
80.797
 30
0.0
 11
123.144
 21
83.8976
 31
0.0
  0
LINE
  8
0
 62
     0
 10
123.144
 20
83.8976
 30
0.0
 11
122.345
 21
83.8976
 31
0.0
  0
LINE
  8
0
 62
     0
 10
122.345
 20
83.8976
 30
0.0
 11
122.345
 21
89.6966
 31
0.0
  0
LINE
  8
0
 62
     0
 10
122.345
 20
89.6966
 30
0.0
 11
123.144
 21
89.6966
 31
0.0
  0
LINE
  8
0
 62
     0
 10
123.144
 20
89.6966
 30
0.0
 11
123.144
 21
92.7971
 31
0.0
  0
LINE
  8
0
 62
     0
 10
123.144
 20
92.7971
 30
0.0
 11
122.345
 21
92.7971
 31
0.0
  0
LINE
  8
0
 62
     0
 10
122.345
 20
92.7971
 30
0.0
 11
122.345
 21
93.7976
 31
0.0
  0
LINE
  8
0
 62
     0
 10
122.345
 20
93.7976
 30
0.0
 11
108.344
 21
93.7976
 31
0.0
  0
LINE
  8
0
 62
     0
 10
89.2941
 20
93.7976
 30
0.0
 11
89.2941
 21
92.7971
 31
0.0
  0
LINE
  8
0
 62
     0
 10
89.2941
 20
92.7971
 30
0.0
 11
88.495
 21
92.7971
 31
0.0
  0
LINE
  8
0
 62
     0
 10
88.495
 20
92.7971
 30
0.0
 11
88.495
 21
89.6966
 31
0.0
  0
LINE
  8
0
 62
     0
 10
88.495
 20
89.6966
 30
0.0
 11
89.2941
 21
89.6966
 31
0.0
  0
LINE
  8
0
 62
     0
 10
89.2941
 20
89.6966
 30
0.0
 11
89.2941
 21
83.8976
 31
0.0
  0
LINE
  8
0
 62
     0
 10
89.2941
 20
83.8976
 30
0.0
 11
88.495
 21
83.8976
 31
0.0
  0
LINE
  8
0
 62
     0
 10
88.495
 20
83.8976
 30
0.0
 11
88.495
 21
80.797
 31
0.0
  0
LINE
  8
0
 62
     0
 10
88.495
 20
80.797
 30
0.0
 11
89.2941
 21
80.797
 31
0.0
  0
LINE
  8
0
 62
     0
 10
89.2941
 20
80.797
 30
0.0
 11
89.2941
 21
79.7966
 31
0.0
  0
LINE
  8
0
 62
     0
 10
89.2941
 20
79.7966
 30
0.0
 11
103.295
 21
79.7966
 31
0.0
  0
LINE
  8
0
 62
     0
 10
103.295
 20
79.7966
 30
0.0
 11
103.295
 21
80.797
 31
0.0
  0
LINE
  8
0
 62
     0
 10
103.295
 20
80.797
 30
0.0
 11
104.094
 21
80.797
 31
0.0
  0
LINE
  8
0
 62
     0
 10
104.094
 20
80.797
 30
0.0
 11
104.094
 21
83.8976
 31
0.0
  0
LINE
  8
0
 62
     0
 10
104.094
 20
83.8976
 30
0.0
 11
103.295
 21
83.8976
 31
0.0
  0
LINE
  8
0
 62
     0
 10
103.295
 20
83.8976
 30
0.0
 11
103.295
 21
89.6966
 31
0.0
  0
LINE
  8
0
 62
     0
 10
103.295
 20
89.6966
 30
0.0
 11
104.094
 21
89.6966
 31
0.0
  0
LINE
  8
0
 62
     0
 10
104.094
 20
89.6966
 30
0.0
 11
104.094
 21
92.7971
 31
0.0
  0
LINE
  8
0
 62
     0
 10
104.094
 20
92.7971
 30
0.0
 11
103.295
 21
92.7971
 31
0.0
  0
LINE
  8
0
 62
     0
 10
103.295
 20
92.7971
 30
0.0
 11
103.295
 21
93.7976
 31
0.0
  0
LINE
  8
0
 62
     0
 10
103.295
 20
93.7976
 30
0.0
 11
89.2941
 21
93.7976
 31
0.0
  0
LINE
  8
0
 62
     0
 10
70.2441
 20
93.7976
 30
0.0
 11
70.2441
 21
92.7971
 31
0.0
  0
LINE
  8
0
 62
     0
 10
70.2441
 20
92.7971
 30
0.0
 11
69.445
 21
92.7971
 31
0.0
  0
LINE
  8
0
 62
     0
 10
69.445
 20
92.7971
 30
0.0
 11
69.445
 21
89.6966
 31
0.0
  0
LINE
  8
0
 62
     0
 10
69.445
 20
89.6966
 30
0.0
 11
70.2441
 21
89.6966
 31
0.0
  0
LINE
  8
0
 62
     0
 10
70.2441
 20
89.6966
 30
0.0
 11
70.2441
 21
83.8976
 31
0.0
  0
LINE
  8
0
 62
     0
 10
70.2441
 20
83.8976
 30
0.0
 11
69.445
 21
83.8976
 31
0.0
  0
LINE
  8
0
 62
     0
 10
69.445
 20
83.8976
 30
0.0
 11
69.445
 21
80.797
 31
0.0
  0
LINE
  8
0
 62
     0
 10
69.445
 20
80.797
 30
0.0
 11
70.2441
 21
80.797
 31
0.0
  0
LINE
  8
0
 62
     0
 10
70.2441
 20
80.797
 30
0.0
 11
70.2441
 21
79.7966
 31
0.0
  0
LINE
  8
0
 62
     0
 10
70.2441
 20
79.7966
 30
0.0
 11
84.2451
 21
79.7966
 31
0.0
  0
LINE
  8
0
 62
     0
 10
84.2451
 20
79.7966
 30
0.0
 11
84.2451
 21
80.797
 31
0.0
  0
LINE
  8
0
 62
     0
 10
84.2451
 20
80.797
 30
0.0
 11
85.0441
 21
80.797
 31
0.0
  0
LINE
  8
0
 62
     0
 10
85.0441
 20
80.797
 30
0.0
 11
85.0441
 21
83.8976
 31
0.0
  0
LINE
  8
0
 62
     0
 10
85.0441
 20
83.8976
 30
0.0
 11
84.2451
 21
83.8976
 31
0.0
  0
LINE
  8
0
 62
     0
 10
84.2451
 20
83.8976
 30
0.0
 11
84.2451
 21
89.6966
 31
0.0
  0
LINE
  8
0
 62
     0
 10
84.2451
 20
89.6966
 30
0.0
 11
85.0441
 21
89.6966
 31
0.0
  0
LINE
  8
0
 62
     0
 10
85.0441
 20
89.6966
 30
0.0
 11
85.0441
 21
92.7971
 31
0.0
  0
LINE
  8
0
 62
     0
 10
85.0441
 20
92.7971
 30
0.0
 11
84.2451
 21
92.7971
 31
0.0
  0
LINE
  8
0
 62
     0
 10
84.2451
 20
92.7971
 30
0.0
 11
84.2451
 21
93.7976
 31
0.0
  0
LINE
  8
0
 62
     0
 10
84.2451
 20
93.7976
 30
0.0
 11
70.2441
 21
93.7976
 31
0.0
  0
LINE
  8
0
 62
     0
 10
51.1941
 20
93.7976
 30
0.0
 11
51.1941
 21
92.7971
 31
0.0
  0
LINE
  8
0
 62
     0
 10
51.1941
 20
92.7971
 30
0.0
 11
50.395
 21
92.7971
 31
0.0
  0
LINE
  8
0
 62
     0
 10
50.395
 20
92.7971
 30
0.0
 11
50.395
 21
89.6966
 31
0.0
  0
LINE
  8
0
 62
     0
 10
50.395
 20
89.6966
 30
0.0
 11
51.1941
 21
89.6966
 31
0.0
  0
LINE
  8
0
 62
     0
 10
51.1941
 20
89.6966
 30
0.0
 11
51.1941
 21
83.8976
 31
0.0
  0
LINE
  8
0
 62
     0
 10
51.1941
 20
83.8976
 30
0.0
 11
50.395
 21
83.8976
 31
0.0
  0
LINE
  8
0
 62
     0
 10
50.395
 20
83.8976
 30
0.0
 11
50.395
 21
80.797
 31
0.0
  0
LINE
  8
0
 62
     0
 10
50.395
 20
80.797
 30
0.0
 11
51.1941
 21
80.797
 31
0.0
  0
LINE
  8
0
 62
     0
 10
51.1941
 20
80.797
 30
0.0
 11
51.1941
 21
79.7966
 31
0.0
  0
LINE
  8
0
 62
     0
 10
51.1941
 20
79.7966
 30
0.0
 11
65.1951
 21
79.7966
 31
0.0
  0
LINE
  8
0
 62
     0
 10
65.1951
 20
79.7966
 30
0.0
 11
65.1951
 21
80.797
 31
0.0
  0
LINE
  8
0
 62
     0
 10
65.1951
 20
80.797
 30
0.0
 11
65.9941
 21
80.797
 31
0.0
  0
LINE
  8
0
 62
     0
 10
65.9941
 20
80.797
 30
0.0
 11
65.9941
 21
83.8976
 31
0.0
  0
LINE
  8
0
 62
     0
 10
65.9941
 20
83.8976
 30
0.0
 11
65.1951
 21
83.8976
 31
0.0
  0
LINE
  8
0
 62
     0
 10
65.1951
 20
83.8976
 30
0.0
 11
65.1951
 21
89.6966
 31
0.0
  0
LINE
  8
0
 62
     0
 10
65.1951
 20
89.6966
 30
0.0
 11
65.9941
 21
89.6966
 31
0.0
  0
LINE
  8
0
 62
     0
 10
65.9941
 20
89.6966
 30
0.0
 11
65.9941
 21
92.7971
 31
0.0
  0
LINE
  8
0
 62
     0
 10
65.9941
 20
92.7971
 30
0.0
 11
65.1951
 21
92.7971
 31
0.0
  0
LINE
  8
0
 62
     0
 10
65.1951
 20
92.7971
 30
0.0
 11
65.1951
 21
93.7976
 31
0.0
  0
LINE
  8
0
 62
     0
 10
65.1951
 20
93.7976
 30
0.0
 11
51.1941
 21
93.7976
 31
0.0
  0
LINE
  8
0
 62
     0
 10
27.3816
 20
93.7976
 30
0.0
 11
27.3816
 21
92.7971
 31
0.0
  0
LINE
  8
0
 62
     0
 10
27.3816
 20
92.7971
 30
0.0
 11
26.581
 21
92.7971
 31
0.0
  0
LINE
  8
0
 62
     0
 10
26.581
 20
92.7971
 30
0.0
 11
26.581
 21
89.6966
 31
0.0
  0
LINE
  8
0
 62
     0
 10
26.581
 20
89.6966
 30
0.0
 11
27.3816
 21
89.6966
 31
0.0
  0
LINE
  8
0
 62
     0
 10
27.3816
 20
89.6966
 30
0.0
 11
27.3816
 21
83.8976
 31
0.0
  0
LINE
  8
0
 62
     0
 10
27.3816
 20
83.8976
 30
0.0
 11
26.581
 21
83.8976
 31
0.0
  0
LINE
  8
0
 62
     0
 10
26.581
 20
83.8976
 30
0.0
 11
26.581
 21
80.797
 31
0.0
  0
LINE
  8
0
 62
     0
 10
26.581
 20
80.797
 30
0.0
 11
27.3816
 21
80.797
 31
0.0
  0
LINE
  8
0
 62
     0
 10
27.3816
 20
80.797
 30
0.0
 11
27.3816
 21
79.7966
 31
0.0
  0
LINE
  8
0
 62
     0
 10
27.3816
 20
79.7966
 30
0.0
 11
41.3812
 21
79.7966
 31
0.0
  0
LINE
  8
0
 62
     0
 10
41.3812
 20
79.7966
 30
0.0
 11
41.3812
 21
80.797
 31
0.0
  0
LINE
  8
0
 62
     0
 10
41.3812
 20
80.797
 30
0.0
 11
42.1816
 21
80.797
 31
0.0
  0
LINE
  8
0
 62
     0
 10
42.1816
 20
80.797
 30
0.0
 11
42.1816
 21
83.8976
 31
0.0
  0
LINE
  8
0
 62
     0
 10
42.1816
 20
83.8976
 30
0.0
 11
41.3812
 21
83.8976
 31
0.0
  0
LINE
  8
0
 62
     0
 10
41.3812
 20
83.8976
 30
0.0
 11
41.3812
 21
89.6966
 31
0.0
  0
LINE
  8
0
 62
     0
 10
41.3812
 20
89.6966
 30
0.0
 11
42.1816
 21
89.6966
 31
0.0
  0
LINE
  8
0
 62
     0
 10
42.1816
 20
89.6966
 30
0.0
 11
42.1816
 21
92.7971
 31
0.0
  0
LINE
  8
0
 62
     0
 10
42.1816
 20
92.7971
 30
0.0
 11
41.3812
 21
92.7971
 31
0.0
  0
LINE
  8
0
 62
     0
 10
41.3812
 20
92.7971
 30
0.0
 11
41.3812
 21
93.7976
 31
0.0
  0
LINE
  8
0
 62
     0
 10
41.3812
 20
93.7976
 30
0.0
 11
27.3816
 21
93.7976
 31
0.0
  0
LINE
  8
0
 62
     0
 10
279.794
 20
112.848
 30
0.0
 11
279.794
 21
111.847
 31
0.0
  0
LINE
  8
0
 62
     0
 10
279.794
 20
111.847
 30
0.0
 11
278.995
 21
111.847
 31
0.0
  0
LINE
  8
0
 62
     0
 10
278.995
 20
111.847
 30
0.0
 11
278.995
 21
108.747
 31
0.0
  0
LINE
  8
0
 62
     0
 10
278.995
 20
108.747
 30
0.0
 11
279.794
 21
108.747
 31
0.0
  0
LINE
  8
0
 62
     0
 10
279.794
 20
108.747
 30
0.0
 11
279.794
 21
108.147
 31
0.0
  0
LINE
  8
0
 62
     0
 10
279.794
 20
108.147
 30
0.0
 11
278.27
 21
108.147
 31
0.0
  0
LINE
  8
0
 62
     0
 10
278.27
 20
108.147
 30
0.0
 11
278.27
 21
111.377
 31
0.0
  0
LINE
  8
0
 62
     0
 10
278.27
 20
111.377
 30
0.0
 11
276.545
 21
111.377
 31
0.0
  0
LINE
  8
0
 62
     0
 10
276.545
 20
111.377
 30
0.0
 11
276.545
 21
112.298
 31
0.0
  0
LINE
  8
0
 62
     0
 10
276.545
 20
112.298
 30
0.0
 11
273.244
 21
112.298
 31
0.0
  0
LINE
  8
0
 62
     0
 10
273.244
 20
112.298
 30
0.0
 11
273.244
 21
111.377
 31
0.0
  0
LINE
  8
0
 62
     0
 10
273.244
 20
111.377
 30
0.0
 11
271.519
 21
111.377
 31
0.0
  0
LINE
  8
0
 62
     0
 10
271.519
 20
111.377
 30
0.0
 11
271.519
 21
108.147
 31
0.0
  0
LINE
  8
0
 62
     0
 10
271.519
 20
108.147
 30
0.0
 11
270.695
 21
108.147
 31
0.0
  0
LINE
  8
0
 62
     0
 10
270.695
 20
108.147
 30
0.0
 11
270.695
 21
105.347
 31
0.0
  0
LINE
  8
0
 62
     0
 10
270.695
 20
105.347
 30
0.0
 11
271.519
 21
105.347
 31
0.0
  0
LINE
  8
0
 62
     0
 10
271.519
 20
105.347
 30
0.0
 11
271.519
 21
99.0769
 31
0.0
  0
LINE
  8
0
 62
     0
 10
271.519
 20
99.0769
 30
0.0
 11
273.244
 21
99.0769
 31
0.0
  0
LINE
  8
0
 62
     0
 10
273.244
 20
99.0769
 30
0.0
 11
273.244
 21
98.0969
 31
0.0
  0
LINE
  8
0
 62
     0
 10
273.244
 20
98.0969
 30
0.0
 11
276.545
 21
98.0969
 31
0.0
  0
LINE
  8
0
 62
     0
 10
276.545
 20
98.0969
 30
0.0
 11
276.545
 21
99.0769
 31
0.0
  0
LINE
  8
0
 62
     0
 10
276.545
 20
99.0769
 30
0.0
 11
278.27
 21
99.0769
 31
0.0
  0
LINE
  8
0
 62
     0
 10
278.27
 20
99.0769
 30
0.0
 11
278.27
 21
103.547
 31
0.0
  0
LINE
  8
0
 62
     0
 10
278.27
 20
103.547
 30
0.0
 11
279.794
 21
103.547
 31
0.0
  0
LINE
  8
0
 62
     0
 10
279.794
 20
103.547
 30
0.0
 11
279.794
 21
102.948
 31
0.0
  0
LINE
  8
0
 62
     0
 10
279.794
 20
102.948
 30
0.0
 11
278.995
 21
102.948
 31
0.0
  0
LINE
  8
0
 62
     0
 10
278.995
 20
102.948
 30
0.0
 11
278.995
 21
99.847
 31
0.0
  0
LINE
  8
0
 62
     0
 10
278.995
 20
99.847
 30
0.0
 11
279.794
 21
99.847
 31
0.0
  0
LINE
  8
0
 62
     0
 10
279.794
 20
99.847
 30
0.0
 11
279.794
 21
98.8466
 31
0.0
  0
LINE
  8
0
 62
     0
 10
279.794
 20
98.8466
 30
0.0
 11
293.795
 21
98.8466
 31
0.0
  0
LINE
  8
0
 62
     0
 10
293.795
 20
98.8466
 30
0.0
 11
293.795
 21
99.847
 31
0.0
  0
LINE
  8
0
 62
     0
 10
293.795
 20
99.847
 30
0.0
 11
294.594
 21
99.847
 31
0.0
  0
LINE
  8
0
 62
     0
 10
294.594
 20
99.847
 30
0.0
 11
294.594
 21
102.948
 31
0.0
  0
LINE
  8
0
 62
     0
 10
294.594
 20
102.948
 30
0.0
 11
293.795
 21
102.948
 31
0.0
  0
LINE
  8
0
 62
     0
 10
293.795
 20
102.948
 30
0.0
 11
293.795
 21
103.547
 31
0.0
  0
LINE
  8
0
 62
     0
 10
293.795
 20
103.547
 30
0.0
 11
295.319
 21
103.547
 31
0.0
  0
LINE
  8
0
 62
     0
 10
295.319
 20
103.547
 30
0.0
 11
295.319
 21
99.0769
 31
0.0
  0
LINE
  8
0
 62
     0
 10
295.319
 20
99.0769
 30
0.0
 11
297.045
 21
99.0769
 31
0.0
  0
LINE
  8
0
 62
     0
 10
297.045
 20
99.0769
 30
0.0
 11
297.045
 21
98.0969
 31
0.0
  0
LINE
  8
0
 62
     0
 10
297.045
 20
98.0969
 30
0.0
 11
300.345
 21
98.0969
 31
0.0
  0
LINE
  8
0
 62
     0
 10
300.345
 20
98.0969
 30
0.0
 11
300.345
 21
99.0769
 31
0.0
  0
LINE
  8
0
 62
     0
 10
300.345
 20
99.0769
 30
0.0
 11
302.07
 21
99.0769
 31
0.0
  0
LINE
  8
0
 62
     0
 10
302.07
 20
99.0769
 30
0.0
 11
302.07
 21
105.347
 31
0.0
  0
LINE
  8
0
 62
     0
 10
302.07
 20
105.347
 30
0.0
 11
302.894
 21
105.347
 31
0.0
  0
LINE
  8
0
 62
     0
 10
302.894
 20
105.347
 30
0.0
 11
302.894
 21
108.147
 31
0.0
  0
LINE
  8
0
 62
     0
 10
302.894
 20
108.147
 30
0.0
 11
302.07
 21
108.147
 31
0.0
  0
LINE
  8
0
 62
     0
 10
302.07
 20
108.147
 30
0.0
 11
302.07
 21
111.377
 31
0.0
  0
LINE
  8
0
 62
     0
 10
302.07
 20
111.377
 30
0.0
 11
300.345
 21
111.377
 31
0.0
  0
LINE
  8
0
 62
     0
 10
300.345
 20
111.377
 30
0.0
 11
300.345
 21
112.298
 31
0.0
  0
LINE
  8
0
 62
     0
 10
300.345
 20
112.298
 30
0.0
 11
297.045
 21
112.298
 31
0.0
  0
LINE
  8
0
 62
     0
 10
297.045
 20
112.298
 30
0.0
 11
297.045
 21
111.377
 31
0.0
  0
LINE
  8
0
 62
     0
 10
297.045
 20
111.377
 30
0.0
 11
295.319
 21
111.377
 31
0.0
  0
LINE
  8
0
 62
     0
 10
295.319
 20
111.377
 30
0.0
 11
295.319
 21
108.147
 31
0.0
  0
LINE
  8
0
 62
     0
 10
295.319
 20
108.147
 30
0.0
 11
293.795
 21
108.147
 31
0.0
  0
LINE
  8
0
 62
     0
 10
293.795
 20
108.147
 30
0.0
 11
293.795
 21
108.747
 31
0.0
  0
LINE
  8
0
 62
     0
 10
293.795
 20
108.747
 30
0.0
 11
294.594
 21
108.747
 31
0.0
  0
LINE
  8
0
 62
     0
 10
294.594
 20
108.747
 30
0.0
 11
294.594
 21
111.847
 31
0.0
  0
LINE
  8
0
 62
     0
 10
294.594
 20
111.847
 30
0.0
 11
293.795
 21
111.847
 31
0.0
  0
LINE
  8
0
 62
     0
 10
293.795
 20
111.847
 30
0.0
 11
293.795
 21
112.848
 31
0.0
  0
LINE
  8
0
 62
     0
 10
293.795
 20
112.848
 30
0.0
 11
279.794
 21
112.848
 31
0.0
  0
LINE
  8
0
 62
     0
 10
351.232
 20
112.848
 30
0.0
 11
351.232
 21
111.847
 31
0.0
  0
LINE
  8
0
 62
     0
 10
351.232
 20
111.847
 30
0.0
 11
350.431
 21
111.847
 31
0.0
  0
LINE
  8
0
 62
     0
 10
350.431
 20
111.847
 30
0.0
 11
350.431
 21
108.747
 31
0.0
  0
LINE
  8
0
 62
     0
 10
350.431
 20
108.747
 30
0.0
 11
351.232
 21
108.747
 31
0.0
  0
LINE
  8
0
 62
     0
 10
351.232
 20
108.747
 30
0.0
 11
351.232
 21
102.948
 31
0.0
  0
LINE
  8
0
 62
     0
 10
351.232
 20
102.948
 30
0.0
 11
350.431
 21
102.948
 31
0.0
  0
LINE
  8
0
 62
     0
 10
350.431
 20
102.948
 30
0.0
 11
350.431
 21
99.847
 31
0.0
  0
LINE
  8
0
 62
     0
 10
350.431
 20
99.847
 30
0.0
 11
351.232
 21
99.847
 31
0.0
  0
LINE
  8
0
 62
     0
 10
351.232
 20
99.847
 30
0.0
 11
351.232
 21
98.8466
 31
0.0
  0
LINE
  8
0
 62
     0
 10
351.232
 20
98.8466
 30
0.0
 11
365.231
 21
98.8466
 31
0.0
  0
LINE
  8
0
 62
     0
 10
365.231
 20
98.8466
 30
0.0
 11
365.231
 21
99.847
 31
0.0
  0
LINE
  8
0
 62
     0
 10
365.231
 20
99.847
 30
0.0
 11
366.032
 21
99.847
 31
0.0
  0
LINE
  8
0
 62
     0
 10
366.032
 20
99.847
 30
0.0
 11
366.032
 21
102.948
 31
0.0
  0
LINE
  8
0
 62
     0
 10
366.032
 20
102.948
 30
0.0
 11
365.231
 21
102.948
 31
0.0
  0
LINE
  8
0
 62
     0
 10
365.231
 20
102.948
 30
0.0
 11
365.231
 21
108.747
 31
0.0
  0
LINE
  8
0
 62
     0
 10
365.231
 20
108.747
 30
0.0
 11
366.032
 21
108.747
 31
0.0
  0
LINE
  8
0
 62
     0
 10
366.032
 20
108.747
 30
0.0
 11
366.032
 21
111.847
 31
0.0
  0
LINE
  8
0
 62
     0
 10
366.032
 20
111.847
 30
0.0
 11
365.231
 21
111.847
 31
0.0
  0
LINE
  8
0
 62
     0
 10
365.231
 20
111.847
 30
0.0
 11
365.231
 21
112.848
 31
0.0
  0
LINE
  8
0
 62
     0
 10
365.231
 20
112.848
 30
0.0
 11
351.232
 21
112.848
 31
0.0
  0
LINE
  8
0
 62
     0
 10
332.182
 20
112.848
 30
0.0
 11
332.182
 21
111.847
 31
0.0
  0
LINE
  8
0
 62
     0
 10
332.182
 20
111.847
 30
0.0
 11
331.381
 21
111.847
 31
0.0
  0
LINE
  8
0
 62
     0
 10
331.381
 20
111.847
 30
0.0
 11
331.381
 21
108.747
 31
0.0
  0
LINE
  8
0
 62
     0
 10
331.381
 20
108.747
 30
0.0
 11
332.182
 21
108.747
 31
0.0
  0
LINE
  8
0
 62
     0
 10
332.182
 20
108.747
 30
0.0
 11
332.182
 21
102.948
 31
0.0
  0
LINE
  8
0
 62
     0
 10
332.182
 20
102.948
 30
0.0
 11
331.381
 21
102.948
 31
0.0
  0
LINE
  8
0
 62
     0
 10
331.381
 20
102.948
 30
0.0
 11
331.381
 21
99.847
 31
0.0
  0
LINE
  8
0
 62
     0
 10
331.381
 20
99.847
 30
0.0
 11
332.182
 21
99.847
 31
0.0
  0
LINE
  8
0
 62
     0
 10
332.182
 20
99.847
 30
0.0
 11
332.182
 21
98.8466
 31
0.0
  0
LINE
  8
0
 62
     0
 10
332.182
 20
98.8466
 30
0.0
 11
346.181
 21
98.8466
 31
0.0
  0
LINE
  8
0
 62
     0
 10
346.181
 20
98.8466
 30
0.0
 11
346.181
 21
99.847
 31
0.0
  0
LINE
  8
0
 62
     0
 10
346.181
 20
99.847
 30
0.0
 11
346.982
 21
99.847
 31
0.0
  0
LINE
  8
0
 62
     0
 10
346.982
 20
99.847
 30
0.0
 11
346.982
 21
102.948
 31
0.0
  0
LINE
  8
0
 62
     0
 10
346.982
 20
102.948
 30
0.0
 11
346.181
 21
102.948
 31
0.0
  0
LINE
  8
0
 62
     0
 10
346.181
 20
102.948
 30
0.0
 11
346.181
 21
108.747
 31
0.0
  0
LINE
  8
0
 62
     0
 10
346.181
 20
108.747
 30
0.0
 11
346.982
 21
108.747
 31
0.0
  0
LINE
  8
0
 62
     0
 10
346.982
 20
108.747
 30
0.0
 11
346.982
 21
111.847
 31
0.0
  0
LINE
  8
0
 62
     0
 10
346.982
 20
111.847
 30
0.0
 11
346.181
 21
111.847
 31
0.0
  0
LINE
  8
0
 62
     0
 10
346.181
 20
111.847
 30
0.0
 11
346.181
 21
112.848
 31
0.0
  0
LINE
  8
0
 62
     0
 10
346.181
 20
112.848
 30
0.0
 11
332.182
 21
112.848
 31
0.0
  0
LINE
  8
0
 62
     0
 10
313.132
 20
112.848
 30
0.0
 11
313.132
 21
111.847
 31
0.0
  0
LINE
  8
0
 62
     0
 10
313.132
 20
111.847
 30
0.0
 11
312.331
 21
111.847
 31
0.0
  0
LINE
  8
0
 62
     0
 10
312.331
 20
111.847
 30
0.0
 11
312.331
 21
108.747
 31
0.0
  0
LINE
  8
0
 62
     0
 10
312.331
 20
108.747
 30
0.0
 11
313.132
 21
108.747
 31
0.0
  0
LINE
  8
0
 62
     0
 10
313.132
 20
108.747
 30
0.0
 11
313.132
 21
102.948
 31
0.0
  0
LINE
  8
0
 62
     0
 10
313.132
 20
102.948
 30
0.0
 11
312.331
 21
102.948
 31
0.0
  0
LINE
  8
0
 62
     0
 10
312.331
 20
102.948
 30
0.0
 11
312.331
 21
99.847
 31
0.0
  0
LINE
  8
0
 62
     0
 10
312.331
 20
99.847
 30
0.0
 11
313.132
 21
99.847
 31
0.0
  0
LINE
  8
0
 62
     0
 10
313.132
 20
99.847
 30
0.0
 11
313.132
 21
98.8466
 31
0.0
  0
LINE
  8
0
 62
     0
 10
313.132
 20
98.8466
 30
0.0
 11
327.131
 21
98.8466
 31
0.0
  0
LINE
  8
0
 62
     0
 10
327.131
 20
98.8466
 30
0.0
 11
327.131
 21
99.847
 31
0.0
  0
LINE
  8
0
 62
     0
 10
327.131
 20
99.847
 30
0.0
 11
327.932
 21
99.847
 31
0.0
  0
LINE
  8
0
 62
     0
 10
327.932
 20
99.847
 30
0.0
 11
327.932
 21
102.948
 31
0.0
  0
LINE
  8
0
 62
     0
 10
327.932
 20
102.948
 30
0.0
 11
327.131
 21
102.948
 31
0.0
  0
LINE
  8
0
 62
     0
 10
327.131
 20
102.948
 30
0.0
 11
327.131
 21
108.747
 31
0.0
  0
LINE
  8
0
 62
     0
 10
327.131
 20
108.747
 30
0.0
 11
327.932
 21
108.747
 31
0.0
  0
LINE
  8
0
 62
     0
 10
327.932
 20
108.747
 30
0.0
 11
327.932
 21
111.847
 31
0.0
  0
LINE
  8
0
 62
     0
 10
327.932
 20
111.847
 30
0.0
 11
327.131
 21
111.847
 31
0.0
  0
LINE
  8
0
 62
     0
 10
327.131
 20
111.847
 30
0.0
 11
327.131
 21
112.848
 31
0.0
  0
LINE
  8
0
 62
     0
 10
327.131
 20
112.848
 30
0.0
 11
313.132
 21
112.848
 31
0.0
  0
LINE
  8
0
 62
     0
 10
251.219
 20
112.848
 30
0.0
 11
251.219
 21
111.847
 31
0.0
  0
LINE
  8
0
 62
     0
 10
251.219
 20
111.847
 30
0.0
 11
250.42
 21
111.847
 31
0.0
  0
LINE
  8
0
 62
     0
 10
250.42
 20
111.847
 30
0.0
 11
250.42
 21
108.747
 31
0.0
  0
LINE
  8
0
 62
     0
 10
250.42
 20
108.747
 30
0.0
 11
251.219
 21
108.747
 31
0.0
  0
LINE
  8
0
 62
     0
 10
251.219
 20
108.747
 30
0.0
 11
251.219
 21
102.948
 31
0.0
  0
LINE
  8
0
 62
     0
 10
251.219
 20
102.948
 30
0.0
 11
250.42
 21
102.948
 31
0.0
  0
LINE
  8
0
 62
     0
 10
250.42
 20
102.948
 30
0.0
 11
250.42
 21
99.847
 31
0.0
  0
LINE
  8
0
 62
     0
 10
250.42
 20
99.847
 30
0.0
 11
251.219
 21
99.847
 31
0.0
  0
LINE
  8
0
 62
     0
 10
251.219
 20
99.847
 30
0.0
 11
251.219
 21
98.8466
 31
0.0
  0
LINE
  8
0
 62
     0
 10
251.219
 20
98.8466
 30
0.0
 11
265.22
 21
98.8466
 31
0.0
  0
LINE
  8
0
 62
     0
 10
265.22
 20
98.8466
 30
0.0
 11
265.22
 21
99.847
 31
0.0
  0
LINE
  8
0
 62
     0
 10
265.22
 20
99.847
 30
0.0
 11
266.019
 21
99.847
 31
0.0
  0
LINE
  8
0
 62
     0
 10
266.019
 20
99.847
 30
0.0
 11
266.019
 21
102.948
 31
0.0
  0
LINE
  8
0
 62
     0
 10
266.019
 20
102.948
 30
0.0
 11
265.22
 21
102.948
 31
0.0
  0
LINE
  8
0
 62
     0
 10
265.22
 20
102.948
 30
0.0
 11
265.22
 21
108.747
 31
0.0
  0
LINE
  8
0
 62
     0
 10
265.22
 20
108.747
 30
0.0
 11
266.019
 21
108.747
 31
0.0
  0
LINE
  8
0
 62
     0
 10
266.019
 20
108.747
 30
0.0
 11
266.019
 21
111.847
 31
0.0
  0
LINE
  8
0
 62
     0
 10
266.019
 20
111.847
 30
0.0
 11
265.22
 21
111.847
 31
0.0
  0
LINE
  8
0
 62
     0
 10
265.22
 20
111.847
 30
0.0
 11
265.22
 21
112.848
 31
0.0
  0
LINE
  8
0
 62
     0
 10
265.22
 20
112.848
 30
0.0
 11
251.219
 21
112.848
 31
0.0
  0
LINE
  8
0
 62
     0
 10
232.169
 20
112.848
 30
0.0
 11
232.169
 21
111.847
 31
0.0
  0
LINE
  8
0
 62
     0
 10
232.169
 20
111.847
 30
0.0
 11
231.37
 21
111.847
 31
0.0
  0
LINE
  8
0
 62
     0
 10
231.37
 20
111.847
 30
0.0
 11
231.37
 21
108.747
 31
0.0
  0
LINE
  8
0
 62
     0
 10
231.37
 20
108.747
 30
0.0
 11
232.169
 21
108.747
 31
0.0
  0
LINE
  8
0
 62
     0
 10
232.169
 20
108.747
 30
0.0
 11
232.169
 21
102.948
 31
0.0
  0
LINE
  8
0
 62
     0
 10
232.169
 20
102.948
 30
0.0
 11
231.37
 21
102.948
 31
0.0
  0
LINE
  8
0
 62
     0
 10
231.37
 20
102.948
 30
0.0
 11
231.37
 21
99.847
 31
0.0
  0
LINE
  8
0
 62
     0
 10
231.37
 20
99.847
 30
0.0
 11
232.169
 21
99.847
 31
0.0
  0
LINE
  8
0
 62
     0
 10
232.169
 20
99.847
 30
0.0
 11
232.169
 21
98.8466
 31
0.0
  0
LINE
  8
0
 62
     0
 10
232.169
 20
98.8466
 30
0.0
 11
246.17
 21
98.8466
 31
0.0
  0
LINE
  8
0
 62
     0
 10
246.17
 20
98.8466
 30
0.0
 11
246.17
 21
99.847
 31
0.0
  0
LINE
  8
0
 62
     0
 10
246.17
 20
99.847
 30
0.0
 11
246.969
 21
99.847
 31
0.0
  0
LINE
  8
0
 62
     0
 10
246.969
 20
99.847
 30
0.0
 11
246.969
 21
102.948
 31
0.0
  0
LINE
  8
0
 62
     0
 10
246.969
 20
102.948
 30
0.0
 11
246.17
 21
102.948
 31
0.0
  0
LINE
  8
0
 62
     0
 10
246.17
 20
102.948
 30
0.0
 11
246.17
 21
108.747
 31
0.0
  0
LINE
  8
0
 62
     0
 10
246.17
 20
108.747
 30
0.0
 11
246.969
 21
108.747
 31
0.0
  0
LINE
  8
0
 62
     0
 10
246.969
 20
108.747
 30
0.0
 11
246.969
 21
111.847
 31
0.0
  0
LINE
  8
0
 62
     0
 10
246.969
 20
111.847
 30
0.0
 11
246.17
 21
111.847
 31
0.0
  0
LINE
  8
0
 62
     0
 10
246.17
 20
111.847
 30
0.0
 11
246.17
 21
112.848
 31
0.0
  0
LINE
  8
0
 62
     0
 10
246.17
 20
112.848
 30
0.0
 11
232.169
 21
112.848
 31
0.0
  0
LINE
  8
0
 62
     0
 10
213.119
 20
112.848
 30
0.0
 11
213.119
 21
111.847
 31
0.0
  0
LINE
  8
0
 62
     0
 10
213.119
 20
111.847
 30
0.0
 11
212.32
 21
111.847
 31
0.0
  0
LINE
  8
0
 62
     0
 10
212.32
 20
111.847
 30
0.0
 11
212.32
 21
108.747
 31
0.0
  0
LINE
  8
0
 62
     0
 10
212.32
 20
108.747
 30
0.0
 11
213.119
 21
108.747
 31
0.0
  0
LINE
  8
0
 62
     0
 10
213.119
 20
108.747
 30
0.0
 11
213.119
 21
102.948
 31
0.0
  0
LINE
  8
0
 62
     0
 10
213.119
 20
102.948
 30
0.0
 11
212.32
 21
102.948
 31
0.0
  0
LINE
  8
0
 62
     0
 10
212.32
 20
102.948
 30
0.0
 11
212.32
 21
99.847
 31
0.0
  0
LINE
  8
0
 62
     0
 10
212.32
 20
99.847
 30
0.0
 11
213.119
 21
99.847
 31
0.0
  0
LINE
  8
0
 62
     0
 10
213.119
 20
99.847
 30
0.0
 11
213.119
 21
98.8466
 31
0.0
  0
LINE
  8
0
 62
     0
 10
213.119
 20
98.8466
 30
0.0
 11
227.12
 21
98.8466
 31
0.0
  0
LINE
  8
0
 62
     0
 10
227.12
 20
98.8466
 30
0.0
 11
227.12
 21
99.847
 31
0.0
  0
LINE
  8
0
 62
     0
 10
227.12
 20
99.847
 30
0.0
 11
227.919
 21
99.847
 31
0.0
  0
LINE
  8
0
 62
     0
 10
227.919
 20
99.847
 30
0.0
 11
227.919
 21
102.948
 31
0.0
  0
LINE
  8
0
 62
     0
 10
227.919
 20
102.948
 30
0.0
 11
227.12
 21
102.948
 31
0.0
  0
LINE
  8
0
 62
     0
 10
227.12
 20
102.948
 30
0.0
 11
227.12
 21
108.747
 31
0.0
  0
LINE
  8
0
 62
     0
 10
227.12
 20
108.747
 30
0.0
 11
227.919
 21
108.747
 31
0.0
  0
LINE
  8
0
 62
     0
 10
227.919
 20
108.747
 30
0.0
 11
227.919
 21
111.847
 31
0.0
  0
LINE
  8
0
 62
     0
 10
227.919
 20
111.847
 30
0.0
 11
227.12
 21
111.847
 31
0.0
  0
LINE
  8
0
 62
     0
 10
227.12
 20
111.847
 30
0.0
 11
227.12
 21
112.848
 31
0.0
  0
LINE
  8
0
 62
     0
 10
227.12
 20
112.848
 30
0.0
 11
213.119
 21
112.848
 31
0.0
  0
LINE
  8
0
 62
     0
 10
194.069
 20
112.848
 30
0.0
 11
194.069
 21
111.847
 31
0.0
  0
LINE
  8
0
 62
     0
 10
194.069
 20
111.847
 30
0.0
 11
193.27
 21
111.847
 31
0.0
  0
LINE
  8
0
 62
     0
 10
193.27
 20
111.847
 30
0.0
 11
193.27
 21
108.747
 31
0.0
  0
LINE
  8
0
 62
     0
 10
193.27
 20
108.747
 30
0.0
 11
194.069
 21
108.747
 31
0.0
  0
LINE
  8
0
 62
     0
 10
194.069
 20
108.747
 30
0.0
 11
194.069
 21
102.948
 31
0.0
  0
LINE
  8
0
 62
     0
 10
194.069
 20
102.948
 30
0.0
 11
193.27
 21
102.948
 31
0.0
  0
LINE
  8
0
 62
     0
 10
193.27
 20
102.948
 30
0.0
 11
193.27
 21
99.847
 31
0.0
  0
LINE
  8
0
 62
     0
 10
193.27
 20
99.847
 30
0.0
 11
194.069
 21
99.847
 31
0.0
  0
LINE
  8
0
 62
     0
 10
194.069
 20
99.847
 30
0.0
 11
194.069
 21
98.8466
 31
0.0
  0
LINE
  8
0
 62
     0
 10
194.069
 20
98.8466
 30
0.0
 11
208.07
 21
98.8466
 31
0.0
  0
LINE
  8
0
 62
     0
 10
208.07
 20
98.8466
 30
0.0
 11
208.07
 21
99.847
 31
0.0
  0
LINE
  8
0
 62
     0
 10
208.07
 20
99.847
 30
0.0
 11
208.869
 21
99.847
 31
0.0
  0
LINE
  8
0
 62
     0
 10
208.869
 20
99.847
 30
0.0
 11
208.869
 21
102.948
 31
0.0
  0
LINE
  8
0
 62
     0
 10
208.869
 20
102.948
 30
0.0
 11
208.07
 21
102.948
 31
0.0
  0
LINE
  8
0
 62
     0
 10
208.07
 20
102.948
 30
0.0
 11
208.07
 21
108.747
 31
0.0
  0
LINE
  8
0
 62
     0
 10
208.07
 20
108.747
 30
0.0
 11
208.869
 21
108.747
 31
0.0
  0
LINE
  8
0
 62
     0
 10
208.869
 20
108.747
 30
0.0
 11
208.869
 21
111.847
 31
0.0
  0
LINE
  8
0
 62
     0
 10
208.869
 20
111.847
 30
0.0
 11
208.07
 21
111.847
 31
0.0
  0
LINE
  8
0
 62
     0
 10
208.07
 20
111.847
 30
0.0
 11
208.07
 21
112.848
 31
0.0
  0
LINE
  8
0
 62
     0
 10
208.07
 20
112.848
 30
0.0
 11
194.069
 21
112.848
 31
0.0
  0
LINE
  8
0
 62
     0
 10
175.019
 20
112.848
 30
0.0
 11
175.019
 21
111.847
 31
0.0
  0
LINE
  8
0
 62
     0
 10
175.019
 20
111.847
 30
0.0
 11
174.22
 21
111.847
 31
0.0
  0
LINE
  8
0
 62
     0
 10
174.22
 20
111.847
 30
0.0
 11
174.22
 21
108.747
 31
0.0
  0
LINE
  8
0
 62
     0
 10
174.22
 20
108.747
 30
0.0
 11
175.019
 21
108.747
 31
0.0
  0
LINE
  8
0
 62
     0
 10
175.019
 20
108.747
 30
0.0
 11
175.019
 21
102.948
 31
0.0
  0
LINE
  8
0
 62
     0
 10
175.019
 20
102.948
 30
0.0
 11
174.22
 21
102.948
 31
0.0
  0
LINE
  8
0
 62
     0
 10
174.22
 20
102.948
 30
0.0
 11
174.22
 21
99.847
 31
0.0
  0
LINE
  8
0
 62
     0
 10
174.22
 20
99.847
 30
0.0
 11
175.019
 21
99.847
 31
0.0
  0
LINE
  8
0
 62
     0
 10
175.019
 20
99.847
 30
0.0
 11
175.019
 21
98.8466
 31
0.0
  0
LINE
  8
0
 62
     0
 10
175.019
 20
98.8466
 30
0.0
 11
189.02
 21
98.8466
 31
0.0
  0
LINE
  8
0
 62
     0
 10
189.02
 20
98.8466
 30
0.0
 11
189.02
 21
99.847
 31
0.0
  0
LINE
  8
0
 62
     0
 10
189.02
 20
99.847
 30
0.0
 11
189.819
 21
99.847
 31
0.0
  0
LINE
  8
0
 62
     0
 10
189.819
 20
99.847
 30
0.0
 11
189.819
 21
102.948
 31
0.0
  0
LINE
  8
0
 62
     0
 10
189.819
 20
102.948
 30
0.0
 11
189.02
 21
102.948
 31
0.0
  0
LINE
  8
0
 62
     0
 10
189.02
 20
102.948
 30
0.0
 11
189.02
 21
108.747
 31
0.0
  0
LINE
  8
0
 62
     0
 10
189.02
 20
108.747
 30
0.0
 11
189.819
 21
108.747
 31
0.0
  0
LINE
  8
0
 62
     0
 10
189.819
 20
108.747
 30
0.0
 11
189.819
 21
111.847
 31
0.0
  0
LINE
  8
0
 62
     0
 10
189.819
 20
111.847
 30
0.0
 11
189.02
 21
111.847
 31
0.0
  0
LINE
  8
0
 62
     0
 10
189.02
 20
111.847
 30
0.0
 11
189.02
 21
112.848
 31
0.0
  0
LINE
  8
0
 62
     0
 10
189.02
 20
112.848
 30
0.0
 11
175.019
 21
112.848
 31
0.0
  0
LINE
  8
0
 62
     0
 10
155.969
 20
112.848
 30
0.0
 11
155.969
 21
111.847
 31
0.0
  0
LINE
  8
0
 62
     0
 10
155.969
 20
111.847
 30
0.0
 11
155.17
 21
111.847
 31
0.0
  0
LINE
  8
0
 62
     0
 10
155.17
 20
111.847
 30
0.0
 11
155.17
 21
108.747
 31
0.0
  0
LINE
  8
0
 62
     0
 10
155.17
 20
108.747
 30
0.0
 11
155.969
 21
108.747
 31
0.0
  0
LINE
  8
0
 62
     0
 10
155.969
 20
108.747
 30
0.0
 11
155.969
 21
102.948
 31
0.0
  0
LINE
  8
0
 62
     0
 10
155.969
 20
102.948
 30
0.0
 11
155.17
 21
102.948
 31
0.0
  0
LINE
  8
0
 62
     0
 10
155.17
 20
102.948
 30
0.0
 11
155.17
 21
99.847
 31
0.0
  0
LINE
  8
0
 62
     0
 10
155.17
 20
99.847
 30
0.0
 11
155.969
 21
99.847
 31
0.0
  0
LINE
  8
0
 62
     0
 10
155.969
 20
99.847
 30
0.0
 11
155.969
 21
98.8466
 31
0.0
  0
LINE
  8
0
 62
     0
 10
155.969
 20
98.8466
 30
0.0
 11
169.97
 21
98.8466
 31
0.0
  0
LINE
  8
0
 62
     0
 10
169.97
 20
98.8466
 30
0.0
 11
169.97
 21
99.847
 31
0.0
  0
LINE
  8
0
 62
     0
 10
169.97
 20
99.847
 30
0.0
 11
170.769
 21
99.847
 31
0.0
  0
LINE
  8
0
 62
     0
 10
170.769
 20
99.847
 30
0.0
 11
170.769
 21
102.948
 31
0.0
  0
LINE
  8
0
 62
     0
 10
170.769
 20
102.948
 30
0.0
 11
169.97
 21
102.948
 31
0.0
  0
LINE
  8
0
 62
     0
 10
169.97
 20
102.948
 30
0.0
 11
169.97
 21
108.747
 31
0.0
  0
LINE
  8
0
 62
     0
 10
169.97
 20
108.747
 30
0.0
 11
170.769
 21
108.747
 31
0.0
  0
LINE
  8
0
 62
     0
 10
170.769
 20
108.747
 30
0.0
 11
170.769
 21
111.847
 31
0.0
  0
LINE
  8
0
 62
     0
 10
170.769
 20
111.847
 30
0.0
 11
169.97
 21
111.847
 31
0.0
  0
LINE
  8
0
 62
     0
 10
169.97
 20
111.847
 30
0.0
 11
169.97
 21
112.848
 31
0.0
  0
LINE
  8
0
 62
     0
 10
169.97
 20
112.848
 30
0.0
 11
155.969
 21
112.848
 31
0.0
  0
LINE
  8
0
 62
     0
 10
136.919
 20
112.848
 30
0.0
 11
136.919
 21
111.847
 31
0.0
  0
LINE
  8
0
 62
     0
 10
136.919
 20
111.847
 30
0.0
 11
136.12
 21
111.847
 31
0.0
  0
LINE
  8
0
 62
     0
 10
136.12
 20
111.847
 30
0.0
 11
136.12
 21
108.747
 31
0.0
  0
LINE
  8
0
 62
     0
 10
136.12
 20
108.747
 30
0.0
 11
136.919
 21
108.747
 31
0.0
  0
LINE
  8
0
 62
     0
 10
136.919
 20
108.747
 30
0.0
 11
136.919
 21
102.948
 31
0.0
  0
LINE
  8
0
 62
     0
 10
136.919
 20
102.948
 30
0.0
 11
136.12
 21
102.948
 31
0.0
  0
LINE
  8
0
 62
     0
 10
136.12
 20
102.948
 30
0.0
 11
136.12
 21
99.847
 31
0.0
  0
LINE
  8
0
 62
     0
 10
136.12
 20
99.847
 30
0.0
 11
136.919
 21
99.847
 31
0.0
  0
LINE
  8
0
 62
     0
 10
136.919
 20
99.847
 30
0.0
 11
136.919
 21
98.8466
 31
0.0
  0
LINE
  8
0
 62
     0
 10
136.919
 20
98.8466
 30
0.0
 11
150.92
 21
98.8466
 31
0.0
  0
LINE
  8
0
 62
     0
 10
150.92
 20
98.8466
 30
0.0
 11
150.92
 21
99.847
 31
0.0
  0
LINE
  8
0
 62
     0
 10
150.92
 20
99.847
 30
0.0
 11
151.719
 21
99.847
 31
0.0
  0
LINE
  8
0
 62
     0
 10
151.719
 20
99.847
 30
0.0
 11
151.719
 21
102.948
 31
0.0
  0
LINE
  8
0
 62
     0
 10
151.719
 20
102.948
 30
0.0
 11
150.92
 21
102.948
 31
0.0
  0
LINE
  8
0
 62
     0
 10
150.92
 20
102.948
 30
0.0
 11
150.92
 21
108.747
 31
0.0
  0
LINE
  8
0
 62
     0
 10
150.92
 20
108.747
 30
0.0
 11
151.719
 21
108.747
 31
0.0
  0
LINE
  8
0
 62
     0
 10
151.719
 20
108.747
 30
0.0
 11
151.719
 21
111.847
 31
0.0
  0
LINE
  8
0
 62
     0
 10
151.719
 20
111.847
 30
0.0
 11
150.92
 21
111.847
 31
0.0
  0
LINE
  8
0
 62
     0
 10
150.92
 20
111.847
 30
0.0
 11
150.92
 21
112.848
 31
0.0
  0
LINE
  8
0
 62
     0
 10
150.92
 20
112.848
 30
0.0
 11
136.919
 21
112.848
 31
0.0
  0
LINE
  8
0
 62
     0
 10
117.869
 20
112.848
 30
0.0
 11
117.869
 21
111.847
 31
0.0
  0
LINE
  8
0
 62
     0
 10
117.869
 20
111.847
 30
0.0
 11
117.07
 21
111.847
 31
0.0
  0
LINE
  8
0
 62
     0
 10
117.07
 20
111.847
 30
0.0
 11
117.07
 21
108.747
 31
0.0
  0
LINE
  8
0
 62
     0
 10
117.07
 20
108.747
 30
0.0
 11
117.869
 21
108.747
 31
0.0
  0
LINE
  8
0
 62
     0
 10
117.869
 20
108.747
 30
0.0
 11
117.869
 21
102.948
 31
0.0
  0
LINE
  8
0
 62
     0
 10
117.869
 20
102.948
 30
0.0
 11
117.07
 21
102.948
 31
0.0
  0
LINE
  8
0
 62
     0
 10
117.07
 20
102.948
 30
0.0
 11
117.07
 21
99.847
 31
0.0
  0
LINE
  8
0
 62
     0
 10
117.07
 20
99.847
 30
0.0
 11
117.869
 21
99.847
 31
0.0
  0
LINE
  8
0
 62
     0
 10
117.869
 20
99.847
 30
0.0
 11
117.869
 21
98.8466
 31
0.0
  0
LINE
  8
0
 62
     0
 10
117.869
 20
98.8466
 30
0.0
 11
131.87
 21
98.8466
 31
0.0
  0
LINE
  8
0
 62
     0
 10
131.87
 20
98.8466
 30
0.0
 11
131.87
 21
99.847
 31
0.0
  0
LINE
  8
0
 62
     0
 10
131.87
 20
99.847
 30
0.0
 11
132.669
 21
99.847
 31
0.0
  0
LINE
  8
0
 62
     0
 10
132.669
 20
99.847
 30
0.0
 11
132.669
 21
102.948
 31
0.0
  0
LINE
  8
0
 62
     0
 10
132.669
 20
102.948
 30
0.0
 11
131.87
 21
102.948
 31
0.0
  0
LINE
  8
0
 62
     0
 10
131.87
 20
102.948
 30
0.0
 11
131.87
 21
108.747
 31
0.0
  0
LINE
  8
0
 62
     0
 10
131.87
 20
108.747
 30
0.0
 11
132.669
 21
108.747
 31
0.0
  0
LINE
  8
0
 62
     0
 10
132.669
 20
108.747
 30
0.0
 11
132.669
 21
111.847
 31
0.0
  0
LINE
  8
0
 62
     0
 10
132.669
 20
111.847
 30
0.0
 11
131.87
 21
111.847
 31
0.0
  0
LINE
  8
0
 62
     0
 10
131.87
 20
111.847
 30
0.0
 11
131.87
 21
112.848
 31
0.0
  0
LINE
  8
0
 62
     0
 10
131.87
 20
112.848
 30
0.0
 11
117.869
 21
112.848
 31
0.0
  0
LINE
  8
0
 62
     0
 10
98.8191
 20
112.848
 30
0.0
 11
98.8191
 21
111.847
 31
0.0
  0
LINE
  8
0
 62
     0
 10
98.8191
 20
111.847
 30
0.0
 11
98.02
 21
111.847
 31
0.0
  0
LINE
  8
0
 62
     0
 10
98.02
 20
111.847
 30
0.0
 11
98.02
 21
108.747
 31
0.0
  0
LINE
  8
0
 62
     0
 10
98.02
 20
108.747
 30
0.0
 11
98.8191
 21
108.747
 31
0.0
  0
LINE
  8
0
 62
     0
 10
98.8191
 20
108.747
 30
0.0
 11
98.8191
 21
102.948
 31
0.0
  0
LINE
  8
0
 62
     0
 10
98.8191
 20
102.948
 30
0.0
 11
98.02
 21
102.948
 31
0.0
  0
LINE
  8
0
 62
     0
 10
98.02
 20
102.948
 30
0.0
 11
98.02
 21
99.847
 31
0.0
  0
LINE
  8
0
 62
     0
 10
98.02
 20
99.847
 30
0.0
 11
98.8191
 21
99.847
 31
0.0
  0
LINE
  8
0
 62
     0
 10
98.8191
 20
99.847
 30
0.0
 11
98.8191
 21
98.8466
 31
0.0
  0
LINE
  8
0
 62
     0
 10
98.8191
 20
98.8466
 30
0.0
 11
112.82
 21
98.8466
 31
0.0
  0
LINE
  8
0
 62
     0
 10
112.82
 20
98.8466
 30
0.0
 11
112.82
 21
99.847
 31
0.0
  0
LINE
  8
0
 62
     0
 10
112.82
 20
99.847
 30
0.0
 11
113.618
 21
99.847
 31
0.0
  0
LINE
  8
0
 62
     0
 10
113.618
 20
99.847
 30
0.0
 11
113.618
 21
102.948
 31
0.0
  0
LINE
  8
0
 62
     0
 10
113.618
 20
102.948
 30
0.0
 11
112.82
 21
102.948
 31
0.0
  0
LINE
  8
0
 62
     0
 10
112.82
 20
102.948
 30
0.0
 11
112.82
 21
108.747
 31
0.0
  0
LINE
  8
0
 62
     0
 10
112.82
 20
108.747
 30
0.0
 11
113.618
 21
108.747
 31
0.0
  0
LINE
  8
0
 62
     0
 10
113.618
 20
108.747
 30
0.0
 11
113.618
 21
111.847
 31
0.0
  0
LINE
  8
0
 62
     0
 10
113.618
 20
111.847
 30
0.0
 11
112.82
 21
111.847
 31
0.0
  0
LINE
  8
0
 62
     0
 10
112.82
 20
111.847
 30
0.0
 11
112.82
 21
112.848
 31
0.0
  0
LINE
  8
0
 62
     0
 10
112.82
 20
112.848
 30
0.0
 11
98.8191
 21
112.848
 31
0.0
  0
LINE
  8
0
 62
     0
 10
79.7691
 20
112.848
 30
0.0
 11
79.7691
 21
111.847
 31
0.0
  0
LINE
  8
0
 62
     0
 10
79.7691
 20
111.847
 30
0.0
 11
78.97
 21
111.847
 31
0.0
  0
LINE
  8
0
 62
     0
 10
78.97
 20
111.847
 30
0.0
 11
78.97
 21
108.747
 31
0.0
  0
LINE
  8
0
 62
     0
 10
78.97
 20
108.747
 30
0.0
 11
79.7691
 21
108.747
 31
0.0
  0
LINE
  8
0
 62
     0
 10
79.7691
 20
108.747
 30
0.0
 11
79.7691
 21
102.948
 31
0.0
  0
LINE
  8
0
 62
     0
 10
79.7691
 20
102.948
 30
0.0
 11
78.97
 21
102.948
 31
0.0
  0
LINE
  8
0
 62
     0
 10
78.97
 20
102.948
 30
0.0
 11
78.97
 21
99.847
 31
0.0
  0
LINE
  8
0
 62
     0
 10
78.97
 20
99.847
 30
0.0
 11
79.7691
 21
99.847
 31
0.0
  0
LINE
  8
0
 62
     0
 10
79.7691
 20
99.847
 30
0.0
 11
79.7691
 21
98.8466
 31
0.0
  0
LINE
  8
0
 62
     0
 10
79.7691
 20
98.8466
 30
0.0
 11
93.7701
 21
98.8466
 31
0.0
  0
LINE
  8
0
 62
     0
 10
93.7701
 20
98.8466
 30
0.0
 11
93.7701
 21
99.847
 31
0.0
  0
LINE
  8
0
 62
     0
 10
93.7701
 20
99.847
 30
0.0
 11
94.5691
 21
99.847
 31
0.0
  0
LINE
  8
0
 62
     0
 10
94.5691
 20
99.847
 30
0.0
 11
94.5691
 21
102.948
 31
0.0
  0
LINE
  8
0
 62
     0
 10
94.5691
 20
102.948
 30
0.0
 11
93.7701
 21
102.948
 31
0.0
  0
LINE
  8
0
 62
     0
 10
93.7701
 20
102.948
 30
0.0
 11
93.7701
 21
108.747
 31
0.0
  0
LINE
  8
0
 62
     0
 10
93.7701
 20
108.747
 30
0.0
 11
94.5691
 21
108.747
 31
0.0
  0
LINE
  8
0
 62
     0
 10
94.5691
 20
108.747
 30
0.0
 11
94.5691
 21
111.847
 31
0.0
  0
LINE
  8
0
 62
     0
 10
94.5691
 20
111.847
 30
0.0
 11
93.7701
 21
111.847
 31
0.0
  0
LINE
  8
0
 62
     0
 10
93.7701
 20
111.847
 30
0.0
 11
93.7701
 21
112.848
 31
0.0
  0
LINE
  8
0
 62
     0
 10
93.7701
 20
112.848
 30
0.0
 11
79.7691
 21
112.848
 31
0.0
  0
LINE
  8
0
 62
     0
 10
60.7191
 20
112.848
 30
0.0
 11
60.7191
 21
111.847
 31
0.0
  0
LINE
  8
0
 62
     0
 10
60.7191
 20
111.847
 30
0.0
 11
59.92
 21
111.847
 31
0.0
  0
LINE
  8
0
 62
     0
 10
59.92
 20
111.847
 30
0.0
 11
59.92
 21
108.747
 31
0.0
  0
LINE
  8
0
 62
     0
 10
59.92
 20
108.747
 30
0.0
 11
60.7191
 21
108.747
 31
0.0
  0
LINE
  8
0
 62
     0
 10
60.7191
 20
108.747
 30
0.0
 11
60.7191
 21
102.948
 31
0.0
  0
LINE
  8
0
 62
     0
 10
60.7191
 20
102.948
 30
0.0
 11
59.92
 21
102.948
 31
0.0
  0
LINE
  8
0
 62
     0
 10
59.92
 20
102.948
 30
0.0
 11
59.92
 21
99.847
 31
0.0
  0
LINE
  8
0
 62
     0
 10
59.92
 20
99.847
 30
0.0
 11
60.7191
 21
99.847
 31
0.0
  0
LINE
  8
0
 62
     0
 10
60.7191
 20
99.847
 30
0.0
 11
60.7191
 21
98.8466
 31
0.0
  0
LINE
  8
0
 62
     0
 10
60.7191
 20
98.8466
 30
0.0
 11
74.7201
 21
98.8466
 31
0.0
  0
LINE
  8
0
 62
     0
 10
74.7201
 20
98.8466
 30
0.0
 11
74.7201
 21
99.847
 31
0.0
  0
LINE
  8
0
 62
     0
 10
74.7201
 20
99.847
 30
0.0
 11
75.5191
 21
99.847
 31
0.0
  0
LINE
  8
0
 62
     0
 10
75.5191
 20
99.847
 30
0.0
 11
75.5191
 21
102.948
 31
0.0
  0
LINE
  8
0
 62
     0
 10
75.5191
 20
102.948
 30
0.0
 11
74.7201
 21
102.948
 31
0.0
  0
LINE
  8
0
 62
     0
 10
74.7201
 20
102.948
 30
0.0
 11
74.7201
 21
108.747
 31
0.0
  0
LINE
  8
0
 62
     0
 10
74.7201
 20
108.747
 30
0.0
 11
75.5191
 21
108.747
 31
0.0
  0
LINE
  8
0
 62
     0
 10
75.5191
 20
108.747
 30
0.0
 11
75.5191
 21
111.847
 31
0.0
  0
LINE
  8
0
 62
     0
 10
75.5191
 20
111.847
 30
0.0
 11
74.7201
 21
111.847
 31
0.0
  0
LINE
  8
0
 62
     0
 10
74.7201
 20
111.847
 30
0.0
 11
74.7201
 21
112.848
 31
0.0
  0
LINE
  8
0
 62
     0
 10
74.7201
 20
112.848
 30
0.0
 11
60.7191
 21
112.848
 31
0.0
  0
LINE
  8
0
 62
     0
 10
41.6691
 20
112.848
 30
0.0
 11
41.6691
 21
111.847
 31
0.0
  0
LINE
  8
0
 62
     0
 10
41.6691
 20
111.847
 30
0.0
 11
40.87
 21
111.847
 31
0.0
  0
LINE
  8
0
 62
     0
 10
40.87
 20
111.847
 30
0.0
 11
40.87
 21
108.747
 31
0.0
  0
LINE
  8
0
 62
     0
 10
40.87
 20
108.747
 30
0.0
 11
41.6691
 21
108.747
 31
0.0
  0
LINE
  8
0
 62
     0
 10
41.6691
 20
108.747
 30
0.0
 11
41.6691
 21
102.948
 31
0.0
  0
LINE
  8
0
 62
     0
 10
41.6691
 20
102.948
 30
0.0
 11
40.87
 21
102.948
 31
0.0
  0
LINE
  8
0
 62
     0
 10
40.87
 20
102.948
 30
0.0
 11
40.87
 21
99.847
 31
0.0
  0
LINE
  8
0
 62
     0
 10
40.87
 20
99.847
 30
0.0
 11
41.6691
 21
99.847
 31
0.0
  0
LINE
  8
0
 62
     0
 10
41.6691
 20
99.847
 30
0.0
 11
41.6691
 21
98.8466
 31
0.0
  0
LINE
  8
0
 62
     0
 10
41.6691
 20
98.8466
 30
0.0
 11
55.6701
 21
98.8466
 31
0.0
  0
LINE
  8
0
 62
     0
 10
55.6701
 20
98.8466
 30
0.0
 11
55.6701
 21
99.847
 31
0.0
  0
LINE
  8
0
 62
     0
 10
55.6701
 20
99.847
 30
0.0
 11
56.4691
 21
99.847
 31
0.0
  0
LINE
  8
0
 62
     0
 10
56.4691
 20
99.847
 30
0.0
 11
56.4691
 21
102.948
 31
0.0
  0
LINE
  8
0
 62
     0
 10
56.4691
 20
102.948
 30
0.0
 11
55.6701
 21
102.948
 31
0.0
  0
LINE
  8
0
 62
     0
 10
55.6701
 20
102.948
 30
0.0
 11
55.6701
 21
108.747
 31
0.0
  0
LINE
  8
0
 62
     0
 10
55.6701
 20
108.747
 30
0.0
 11
56.4691
 21
108.747
 31
0.0
  0
LINE
  8
0
 62
     0
 10
56.4691
 20
108.747
 30
0.0
 11
56.4691
 21
111.847
 31
0.0
  0
LINE
  8
0
 62
     0
 10
56.4691
 20
111.847
 30
0.0
 11
55.6701
 21
111.847
 31
0.0
  0
LINE
  8
0
 62
     0
 10
55.6701
 20
111.847
 30
0.0
 11
55.6701
 21
112.848
 31
0.0
  0
LINE
  8
0
 62
     0
 10
55.6701
 20
112.848
 30
0.0
 11
41.6691
 21
112.848
 31
0.0
  0
LINE
  8
0
 62
     0
 10
22.6191
 20
112.848
 30
0.0
 11
22.6191
 21
111.847
 31
0.0
  0
LINE
  8
0
 62
     0
 10
22.6191
 20
111.847
 30
0.0
 11
21.8185
 21
111.847
 31
0.0
  0
LINE
  8
0
 62
     0
 10
21.8185
 20
111.847
 30
0.0
 11
21.8185
 21
108.747
 31
0.0
  0
LINE
  8
0
 62
     0
 10
21.8185
 20
108.747
 30
0.0
 11
22.6191
 21
108.747
 31
0.0
  0
LINE
  8
0
 62
     0
 10
22.6191
 20
108.747
 30
0.0
 11
22.6191
 21
102.948
 31
0.0
  0
LINE
  8
0
 62
     0
 10
22.6191
 20
102.948
 30
0.0
 11
21.8185
 21
102.948
 31
0.0
  0
LINE
  8
0
 62
     0
 10
21.8185
 20
102.948
 30
0.0
 11
21.8185
 21
99.847
 31
0.0
  0
LINE
  8
0
 62
     0
 10
21.8185
 20
99.847
 30
0.0
 11
22.6191
 21
99.847
 31
0.0
  0
LINE
  8
0
 62
     0
 10
22.6191
 20
99.847
 30
0.0
 11
22.6191
 21
98.8466
 31
0.0
  0
LINE
  8
0
 62
     0
 10
22.6191
 20
98.8466
 30
0.0
 11
36.6201
 21
98.8466
 31
0.0
  0
LINE
  8
0
 62
     0
 10
36.6201
 20
98.8466
 30
0.0
 11
36.6201
 21
99.847
 31
0.0
  0
LINE
  8
0
 62
     0
 10
36.6201
 20
99.847
 30
0.0
 11
37.4177
 21
99.847
 31
0.0
  0
LINE
  8
0
 62
     0
 10
37.4177
 20
99.847
 30
0.0
 11
37.4177
 21
102.948
 31
0.0
  0
LINE
  8
0
 62
     0
 10
37.4177
 20
102.948
 30
0.0
 11
36.6201
 21
102.948
 31
0.0
  0
LINE
  8
0
 62
     0
 10
36.6201
 20
102.948
 30
0.0
 11
36.6201
 21
108.747
 31
0.0
  0
LINE
  8
0
 62
     0
 10
36.6201
 20
108.747
 30
0.0
 11
37.4177
 21
108.747
 31
0.0
  0
LINE
  8
0
 62
     0
 10
37.4177
 20
108.747
 30
0.0
 11
37.4177
 21
111.847
 31
0.0
  0
LINE
  8
0
 62
     0
 10
37.4177
 20
111.847
 30
0.0
 11
36.6201
 21
111.847
 31
0.0
  0
LINE
  8
0
 62
     0
 10
36.6201
 20
111.847
 30
0.0
 11
36.6201
 21
112.848
 31
0.0
  0
LINE
  8
0
 62
     0
 10
36.6201
 20
112.848
 30
0.0
 11
22.6191
 21
112.848
 31
0.0
  0
LINE
  8
0
 62
     0
 10
351.232
 20
141.423
 30
0.0
 11
351.232
 21
140.422
 31
0.0
  0
LINE
  8
0
 62
     0
 10
351.232
 20
140.422
 30
0.0
 11
350.431
 21
140.422
 31
0.0
  0
LINE
  8
0
 62
     0
 10
350.431
 20
140.422
 30
0.0
 11
350.431
 21
137.322
 31
0.0
  0
LINE
  8
0
 62
     0
 10
350.431
 20
137.322
 30
0.0
 11
351.232
 21
137.322
 31
0.0
  0
LINE
  8
0
 62
     0
 10
351.232
 20
137.322
 30
0.0
 11
351.232
 21
131.523
 31
0.0
  0
LINE
  8
0
 62
     0
 10
351.232
 20
131.523
 30
0.0
 11
350.431
 21
131.523
 31
0.0
  0
LINE
  8
0
 62
     0
 10
350.431
 20
131.523
 30
0.0
 11
350.431
 21
128.422
 31
0.0
  0
LINE
  8
0
 62
     0
 10
350.431
 20
128.422
 30
0.0
 11
351.232
 21
128.422
 31
0.0
  0
LINE
  8
0
 62
     0
 10
351.232
 20
128.422
 30
0.0
 11
351.232
 21
127.422
 31
0.0
  0
LINE
  8
0
 62
     0
 10
351.232
 20
127.422
 30
0.0
 11
365.231
 21
127.422
 31
0.0
  0
LINE
  8
0
 62
     0
 10
365.231
 20
127.422
 30
0.0
 11
365.231
 21
128.422
 31
0.0
  0
LINE
  8
0
 62
     0
 10
365.231
 20
128.422
 30
0.0
 11
366.032
 21
128.422
 31
0.0
  0
LINE
  8
0
 62
     0
 10
366.032
 20
128.422
 30
0.0
 11
366.032
 21
131.523
 31
0.0
  0
LINE
  8
0
 62
     0
 10
366.032
 20
131.523
 30
0.0
 11
365.231
 21
131.523
 31
0.0
  0
LINE
  8
0
 62
     0
 10
365.231
 20
131.523
 30
0.0
 11
365.231
 21
137.322
 31
0.0
  0
LINE
  8
0
 62
     0
 10
365.231
 20
137.322
 30
0.0
 11
366.032
 21
137.322
 31
0.0
  0
LINE
  8
0
 62
     0
 10
366.032
 20
137.322
 30
0.0
 11
366.032
 21
140.422
 31
0.0
  0
LINE
  8
0
 62
     0
 10
366.032
 20
140.422
 30
0.0
 11
365.231
 21
140.422
 31
0.0
  0
LINE
  8
0
 62
     0
 10
365.231
 20
140.422
 30
0.0
 11
365.231
 21
141.423
 31
0.0
  0
LINE
  8
0
 62
     0
 10
365.231
 20
141.423
 30
0.0
 11
351.232
 21
141.423
 31
0.0
  0
LINE
  8
0
 62
     0
 10
332.182
 20
141.423
 30
0.0
 11
332.182
 21
140.422
 31
0.0
  0
LINE
  8
0
 62
     0
 10
332.182
 20
140.422
 30
0.0
 11
331.381
 21
140.422
 31
0.0
  0
LINE
  8
0
 62
     0
 10
331.381
 20
140.422
 30
0.0
 11
331.381
 21
137.322
 31
0.0
  0
LINE
  8
0
 62
     0
 10
331.381
 20
137.322
 30
0.0
 11
332.182
 21
137.322
 31
0.0
  0
LINE
  8
0
 62
     0
 10
332.182
 20
137.322
 30
0.0
 11
332.182
 21
131.523
 31
0.0
  0
LINE
  8
0
 62
     0
 10
332.182
 20
131.523
 30
0.0
 11
331.381
 21
131.523
 31
0.0
  0
LINE
  8
0
 62
     0
 10
331.381
 20
131.523
 30
0.0
 11
331.381
 21
128.422
 31
0.0
  0
LINE
  8
0
 62
     0
 10
331.381
 20
128.422
 30
0.0
 11
332.182
 21
128.422
 31
0.0
  0
LINE
  8
0
 62
     0
 10
332.182
 20
128.422
 30
0.0
 11
332.182
 21
127.422
 31
0.0
  0
LINE
  8
0
 62
     0
 10
332.182
 20
127.422
 30
0.0
 11
346.181
 21
127.422
 31
0.0
  0
LINE
  8
0
 62
     0
 10
346.181
 20
127.422
 30
0.0
 11
346.181
 21
128.422
 31
0.0
  0
LINE
  8
0
 62
     0
 10
346.181
 20
128.422
 30
0.0
 11
346.982
 21
128.422
 31
0.0
  0
LINE
  8
0
 62
     0
 10
346.982
 20
128.422
 30
0.0
 11
346.982
 21
131.523
 31
0.0
  0
LINE
  8
0
 62
     0
 10
346.982
 20
131.523
 30
0.0
 11
346.181
 21
131.523
 31
0.0
  0
LINE
  8
0
 62
     0
 10
346.181
 20
131.523
 30
0.0
 11
346.181
 21
137.322
 31
0.0
  0
LINE
  8
0
 62
     0
 10
346.181
 20
137.322
 30
0.0
 11
346.982
 21
137.322
 31
0.0
  0
LINE
  8
0
 62
     0
 10
346.982
 20
137.322
 30
0.0
 11
346.982
 21
140.422
 31
0.0
  0
LINE
  8
0
 62
     0
 10
346.982
 20
140.422
 30
0.0
 11
346.181
 21
140.422
 31
0.0
  0
LINE
  8
0
 62
     0
 10
346.181
 20
140.422
 30
0.0
 11
346.181
 21
141.423
 31
0.0
  0
LINE
  8
0
 62
     0
 10
346.181
 20
141.423
 30
0.0
 11
332.182
 21
141.423
 31
0.0
  0
LINE
  8
0
 62
     0
 10
313.132
 20
141.423
 30
0.0
 11
313.132
 21
140.422
 31
0.0
  0
LINE
  8
0
 62
     0
 10
313.132
 20
140.422
 30
0.0
 11
312.331
 21
140.422
 31
0.0
  0
LINE
  8
0
 62
     0
 10
312.331
 20
140.422
 30
0.0
 11
312.331
 21
137.322
 31
0.0
  0
LINE
  8
0
 62
     0
 10
312.331
 20
137.322
 30
0.0
 11
313.132
 21
137.322
 31
0.0
  0
LINE
  8
0
 62
     0
 10
313.132
 20
137.322
 30
0.0
 11
313.132
 21
131.523
 31
0.0
  0
LINE
  8
0
 62
     0
 10
313.132
 20
131.523
 30
0.0
 11
312.331
 21
131.523
 31
0.0
  0
LINE
  8
0
 62
     0
 10
312.331
 20
131.523
 30
0.0
 11
312.331
 21
128.422
 31
0.0
  0
LINE
  8
0
 62
     0
 10
312.331
 20
128.422
 30
0.0
 11
313.132
 21
128.422
 31
0.0
  0
LINE
  8
0
 62
     0
 10
313.132
 20
128.422
 30
0.0
 11
313.132
 21
127.422
 31
0.0
  0
LINE
  8
0
 62
     0
 10
313.132
 20
127.422
 30
0.0
 11
327.131
 21
127.422
 31
0.0
  0
LINE
  8
0
 62
     0
 10
327.131
 20
127.422
 30
0.0
 11
327.131
 21
128.422
 31
0.0
  0
LINE
  8
0
 62
     0
 10
327.131
 20
128.422
 30
0.0
 11
327.932
 21
128.422
 31
0.0
  0
LINE
  8
0
 62
     0
 10
327.932
 20
128.422
 30
0.0
 11
327.932
 21
131.523
 31
0.0
  0
LINE
  8
0
 62
     0
 10
327.932
 20
131.523
 30
0.0
 11
327.131
 21
131.523
 31
0.0
  0
LINE
  8
0
 62
     0
 10
327.131
 20
131.523
 30
0.0
 11
327.131
 21
137.322
 31
0.0
  0
LINE
  8
0
 62
     0
 10
327.131
 20
137.322
 30
0.0
 11
327.932
 21
137.322
 31
0.0
  0
LINE
  8
0
 62
     0
 10
327.932
 20
137.322
 30
0.0
 11
327.932
 21
140.422
 31
0.0
  0
LINE
  8
0
 62
     0
 10
327.932
 20
140.422
 30
0.0
 11
327.131
 21
140.422
 31
0.0
  0
LINE
  8
0
 62
     0
 10
327.131
 20
140.422
 30
0.0
 11
327.131
 21
141.423
 31
0.0
  0
LINE
  8
0
 62
     0
 10
327.131
 20
141.423
 30
0.0
 11
313.132
 21
141.423
 31
0.0
  0
LINE
  8
0
 62
     0
 10
289.319
 20
141.423
 30
0.0
 11
289.319
 21
140.422
 31
0.0
  0
LINE
  8
0
 62
     0
 10
289.319
 20
140.422
 30
0.0
 11
288.52
 21
140.422
 31
0.0
  0
LINE
  8
0
 62
     0
 10
288.52
 20
140.422
 30
0.0
 11
288.52
 21
137.322
 31
0.0
  0
LINE
  8
0
 62
     0
 10
288.52
 20
137.322
 30
0.0
 11
289.319
 21
137.322
 31
0.0
  0
LINE
  8
0
 62
     0
 10
289.319
 20
137.322
 30
0.0
 11
289.319
 21
131.523
 31
0.0
  0
LINE
  8
0
 62
     0
 10
289.319
 20
131.523
 30
0.0
 11
288.52
 21
131.523
 31
0.0
  0
LINE
  8
0
 62
     0
 10
288.52
 20
131.523
 30
0.0
 11
288.52
 21
128.422
 31
0.0
  0
LINE
  8
0
 62
     0
 10
288.52
 20
128.422
 30
0.0
 11
289.319
 21
128.422
 31
0.0
  0
LINE
  8
0
 62
     0
 10
289.319
 20
128.422
 30
0.0
 11
289.319
 21
127.422
 31
0.0
  0
LINE
  8
0
 62
     0
 10
289.319
 20
127.422
 30
0.0
 11
303.32
 21
127.422
 31
0.0
  0
LINE
  8
0
 62
     0
 10
303.32
 20
127.422
 30
0.0
 11
303.32
 21
128.422
 31
0.0
  0
LINE
  8
0
 62
     0
 10
303.32
 20
128.422
 30
0.0
 11
304.119
 21
128.422
 31
0.0
  0
LINE
  8
0
 62
     0
 10
304.119
 20
128.422
 30
0.0
 11
304.119
 21
131.523
 31
0.0
  0
LINE
  8
0
 62
     0
 10
304.119
 20
131.523
 30
0.0
 11
303.32
 21
131.523
 31
0.0
  0
LINE
  8
0
 62
     0
 10
303.32
 20
131.523
 30
0.0
 11
303.32
 21
137.322
 31
0.0
  0
LINE
  8
0
 62
     0
 10
303.32
 20
137.322
 30
0.0
 11
304.119
 21
137.322
 31
0.0
  0
LINE
  8
0
 62
     0
 10
304.119
 20
137.322
 30
0.0
 11
304.119
 21
140.422
 31
0.0
  0
LINE
  8
0
 62
     0
 10
304.119
 20
140.422
 30
0.0
 11
303.32
 21
140.422
 31
0.0
  0
LINE
  8
0
 62
     0
 10
303.32
 20
140.422
 30
0.0
 11
303.32
 21
141.423
 31
0.0
  0
LINE
  8
0
 62
     0
 10
303.32
 20
141.423
 30
0.0
 11
289.319
 21
141.423
 31
0.0
  0
LINE
  8
0
 62
     0
 10
270.269
 20
141.423
 30
0.0
 11
270.269
 21
140.422
 31
0.0
  0
LINE
  8
0
 62
     0
 10
270.269
 20
140.422
 30
0.0
 11
269.47
 21
140.422
 31
0.0
  0
LINE
  8
0
 62
     0
 10
269.47
 20
140.422
 30
0.0
 11
269.47
 21
137.322
 31
0.0
  0
LINE
  8
0
 62
     0
 10
269.47
 20
137.322
 30
0.0
 11
270.269
 21
137.322
 31
0.0
  0
LINE
  8
0
 62
     0
 10
270.269
 20
137.322
 30
0.0
 11
270.269
 21
131.523
 31
0.0
  0
LINE
  8
0
 62
     0
 10
270.269
 20
131.523
 30
0.0
 11
269.47
 21
131.523
 31
0.0
  0
LINE
  8
0
 62
     0
 10
269.47
 20
131.523
 30
0.0
 11
269.47
 21
128.422
 31
0.0
  0
LINE
  8
0
 62
     0
 10
269.47
 20
128.422
 30
0.0
 11
270.269
 21
128.422
 31
0.0
  0
LINE
  8
0
 62
     0
 10
270.269
 20
128.422
 30
0.0
 11
270.269
 21
127.422
 31
0.0
  0
LINE
  8
0
 62
     0
 10
270.269
 20
127.422
 30
0.0
 11
284.27
 21
127.422
 31
0.0
  0
LINE
  8
0
 62
     0
 10
284.27
 20
127.422
 30
0.0
 11
284.27
 21
128.422
 31
0.0
  0
LINE
  8
0
 62
     0
 10
284.27
 20
128.422
 30
0.0
 11
285.069
 21
128.422
 31
0.0
  0
LINE
  8
0
 62
     0
 10
285.069
 20
128.422
 30
0.0
 11
285.069
 21
131.523
 31
0.0
  0
LINE
  8
0
 62
     0
 10
285.069
 20
131.523
 30
0.0
 11
284.27
 21
131.523
 31
0.0
  0
LINE
  8
0
 62
     0
 10
284.27
 20
131.523
 30
0.0
 11
284.27
 21
137.322
 31
0.0
  0
LINE
  8
0
 62
     0
 10
284.27
 20
137.322
 30
0.0
 11
285.069
 21
137.322
 31
0.0
  0
LINE
  8
0
 62
     0
 10
285.069
 20
137.322
 30
0.0
 11
285.069
 21
140.422
 31
0.0
  0
LINE
  8
0
 62
     0
 10
285.069
 20
140.422
 30
0.0
 11
284.27
 21
140.422
 31
0.0
  0
LINE
  8
0
 62
     0
 10
284.27
 20
140.422
 30
0.0
 11
284.27
 21
141.423
 31
0.0
  0
LINE
  8
0
 62
     0
 10
284.27
 20
141.423
 30
0.0
 11
270.269
 21
141.423
 31
0.0
  0
LINE
  8
0
 62
     0
 10
251.219
 20
141.423
 30
0.0
 11
251.219
 21
140.422
 31
0.0
  0
LINE
  8
0
 62
     0
 10
251.219
 20
140.422
 30
0.0
 11
250.42
 21
140.422
 31
0.0
  0
LINE
  8
0
 62
     0
 10
250.42
 20
140.422
 30
0.0
 11
250.42
 21
137.322
 31
0.0
  0
LINE
  8
0
 62
     0
 10
250.42
 20
137.322
 30
0.0
 11
251.219
 21
137.322
 31
0.0
  0
LINE
  8
0
 62
     0
 10
251.219
 20
137.322
 30
0.0
 11
251.219
 21
131.523
 31
0.0
  0
LINE
  8
0
 62
     0
 10
251.219
 20
131.523
 30
0.0
 11
250.42
 21
131.523
 31
0.0
  0
LINE
  8
0
 62
     0
 10
250.42
 20
131.523
 30
0.0
 11
250.42
 21
128.422
 31
0.0
  0
LINE
  8
0
 62
     0
 10
250.42
 20
128.422
 30
0.0
 11
251.219
 21
128.422
 31
0.0
  0
LINE
  8
0
 62
     0
 10
251.219
 20
128.422
 30
0.0
 11
251.219
 21
127.422
 31
0.0
  0
LINE
  8
0
 62
     0
 10
251.219
 20
127.422
 30
0.0
 11
265.22
 21
127.422
 31
0.0
  0
LINE
  8
0
 62
     0
 10
265.22
 20
127.422
 30
0.0
 11
265.22
 21
128.422
 31
0.0
  0
LINE
  8
0
 62
     0
 10
265.22
 20
128.422
 30
0.0
 11
266.019
 21
128.422
 31
0.0
  0
LINE
  8
0
 62
     0
 10
266.019
 20
128.422
 30
0.0
 11
266.019
 21
131.523
 31
0.0
  0
LINE
  8
0
 62
     0
 10
266.019
 20
131.523
 30
0.0
 11
265.22
 21
131.523
 31
0.0
  0
LINE
  8
0
 62
     0
 10
265.22
 20
131.523
 30
0.0
 11
265.22
 21
137.322
 31
0.0
  0
LINE
  8
0
 62
     0
 10
265.22
 20
137.322
 30
0.0
 11
266.019
 21
137.322
 31
0.0
  0
LINE
  8
0
 62
     0
 10
266.019
 20
137.322
 30
0.0
 11
266.019
 21
140.422
 31
0.0
  0
LINE
  8
0
 62
     0
 10
266.019
 20
140.422
 30
0.0
 11
265.22
 21
140.422
 31
0.0
  0
LINE
  8
0
 62
     0
 10
265.22
 20
140.422
 30
0.0
 11
265.22
 21
141.423
 31
0.0
  0
LINE
  8
0
 62
     0
 10
265.22
 20
141.423
 30
0.0
 11
251.219
 21
141.423
 31
0.0
  0
LINE
  8
0
 62
     0
 10
232.169
 20
141.423
 30
0.0
 11
232.169
 21
140.422
 31
0.0
  0
LINE
  8
0
 62
     0
 10
232.169
 20
140.422
 30
0.0
 11
231.37
 21
140.422
 31
0.0
  0
LINE
  8
0
 62
     0
 10
231.37
 20
140.422
 30
0.0
 11
231.37
 21
137.322
 31
0.0
  0
LINE
  8
0
 62
     0
 10
231.37
 20
137.322
 30
0.0
 11
232.169
 21
137.322
 31
0.0
  0
LINE
  8
0
 62
     0
 10
232.169
 20
137.322
 30
0.0
 11
232.169
 21
131.523
 31
0.0
  0
LINE
  8
0
 62
     0
 10
232.169
 20
131.523
 30
0.0
 11
231.37
 21
131.523
 31
0.0
  0
LINE
  8
0
 62
     0
 10
231.37
 20
131.523
 30
0.0
 11
231.37
 21
128.422
 31
0.0
  0
LINE
  8
0
 62
     0
 10
231.37
 20
128.422
 30
0.0
 11
232.169
 21
128.422
 31
0.0
  0
LINE
  8
0
 62
     0
 10
232.169
 20
128.422
 30
0.0
 11
232.169
 21
127.422
 31
0.0
  0
LINE
  8
0
 62
     0
 10
232.169
 20
127.422
 30
0.0
 11
246.17
 21
127.422
 31
0.0
  0
LINE
  8
0
 62
     0
 10
246.17
 20
127.422
 30
0.0
 11
246.17
 21
128.422
 31
0.0
  0
LINE
  8
0
 62
     0
 10
246.17
 20
128.422
 30
0.0
 11
246.969
 21
128.422
 31
0.0
  0
LINE
  8
0
 62
     0
 10
246.969
 20
128.422
 30
0.0
 11
246.969
 21
131.523
 31
0.0
  0
LINE
  8
0
 62
     0
 10
246.969
 20
131.523
 30
0.0
 11
246.17
 21
131.523
 31
0.0
  0
LINE
  8
0
 62
     0
 10
246.17
 20
131.523
 30
0.0
 11
246.17
 21
137.322
 31
0.0
  0
LINE
  8
0
 62
     0
 10
246.17
 20
137.322
 30
0.0
 11
246.969
 21
137.322
 31
0.0
  0
LINE
  8
0
 62
     0
 10
246.969
 20
137.322
 30
0.0
 11
246.969
 21
140.422
 31
0.0
  0
LINE
  8
0
 62
     0
 10
246.969
 20
140.422
 30
0.0
 11
246.17
 21
140.422
 31
0.0
  0
LINE
  8
0
 62
     0
 10
246.17
 20
140.422
 30
0.0
 11
246.17
 21
141.423
 31
0.0
  0
LINE
  8
0
 62
     0
 10
246.17
 20
141.423
 30
0.0
 11
232.169
 21
141.423
 31
0.0
  0
LINE
  8
0
 62
     0
 10
203.594
 20
141.423
 30
0.0
 11
203.594
 21
140.422
 31
0.0
  0
LINE
  8
0
 62
     0
 10
203.594
 20
140.422
 30
0.0
 11
202.795
 21
140.422
 31
0.0
  0
LINE
  8
0
 62
     0
 10
202.795
 20
140.422
 30
0.0
 11
202.795
 21
137.322
 31
0.0
  0
LINE
  8
0
 62
     0
 10
202.795
 20
137.322
 30
0.0
 11
203.594
 21
137.322
 31
0.0
  0
LINE
  8
0
 62
     0
 10
203.594
 20
137.322
 30
0.0
 11
203.594
 21
131.523
 31
0.0
  0
LINE
  8
0
 62
     0
 10
203.594
 20
131.523
 30
0.0
 11
202.795
 21
131.523
 31
0.0
  0
LINE
  8
0
 62
     0
 10
202.795
 20
131.523
 30
0.0
 11
202.795
 21
128.422
 31
0.0
  0
LINE
  8
0
 62
     0
 10
202.795
 20
128.422
 30
0.0
 11
203.594
 21
128.422
 31
0.0
  0
LINE
  8
0
 62
     0
 10
203.594
 20
128.422
 30
0.0
 11
203.594
 21
127.422
 31
0.0
  0
LINE
  8
0
 62
     0
 10
203.594
 20
127.422
 30
0.0
 11
217.595
 21
127.422
 31
0.0
  0
LINE
  8
0
 62
     0
 10
217.595
 20
127.422
 30
0.0
 11
217.595
 21
128.422
 31
0.0
  0
LINE
  8
0
 62
     0
 10
217.595
 20
128.422
 30
0.0
 11
218.394
 21
128.422
 31
0.0
  0
LINE
  8
0
 62
     0
 10
218.394
 20
128.422
 30
0.0
 11
218.394
 21
131.523
 31
0.0
  0
LINE
  8
0
 62
     0
 10
218.394
 20
131.523
 30
0.0
 11
217.595
 21
131.523
 31
0.0
  0
LINE
  8
0
 62
     0
 10
217.595
 20
131.523
 30
0.0
 11
217.595
 21
137.322
 31
0.0
  0
LINE
  8
0
 62
     0
 10
217.595
 20
137.322
 30
0.0
 11
218.394
 21
137.322
 31
0.0
  0
LINE
  8
0
 62
     0
 10
218.394
 20
137.322
 30
0.0
 11
218.394
 21
140.422
 31
0.0
  0
LINE
  8
0
 62
     0
 10
218.394
 20
140.422
 30
0.0
 11
217.595
 21
140.422
 31
0.0
  0
LINE
  8
0
 62
     0
 10
217.595
 20
140.422
 30
0.0
 11
217.595
 21
141.423
 31
0.0
  0
LINE
  8
0
 62
     0
 10
217.595
 20
141.423
 30
0.0
 11
203.594
 21
141.423
 31
0.0
  0
LINE
  8
0
 62
     0
 10
184.544
 20
141.423
 30
0.0
 11
184.544
 21
140.422
 31
0.0
  0
LINE
  8
0
 62
     0
 10
184.544
 20
140.422
 30
0.0
 11
183.745
 21
140.422
 31
0.0
  0
LINE
  8
0
 62
     0
 10
183.745
 20
140.422
 30
0.0
 11
183.745
 21
137.322
 31
0.0
  0
LINE
  8
0
 62
     0
 10
183.745
 20
137.322
 30
0.0
 11
184.544
 21
137.322
 31
0.0
  0
LINE
  8
0
 62
     0
 10
184.544
 20
137.322
 30
0.0
 11
184.544
 21
131.523
 31
0.0
  0
LINE
  8
0
 62
     0
 10
184.544
 20
131.523
 30
0.0
 11
183.745
 21
131.523
 31
0.0
  0
LINE
  8
0
 62
     0
 10
183.745
 20
131.523
 30
0.0
 11
183.745
 21
128.422
 31
0.0
  0
LINE
  8
0
 62
     0
 10
183.745
 20
128.422
 30
0.0
 11
184.544
 21
128.422
 31
0.0
  0
LINE
  8
0
 62
     0
 10
184.544
 20
128.422
 30
0.0
 11
184.544
 21
127.422
 31
0.0
  0
LINE
  8
0
 62
     0
 10
184.544
 20
127.422
 30
0.0
 11
198.545
 21
127.422
 31
0.0
  0
LINE
  8
0
 62
     0
 10
198.545
 20
127.422
 30
0.0
 11
198.545
 21
128.422
 31
0.0
  0
LINE
  8
0
 62
     0
 10
198.545
 20
128.422
 30
0.0
 11
199.344
 21
128.422
 31
0.0
  0
LINE
  8
0
 62
     0
 10
199.344
 20
128.422
 30
0.0
 11
199.344
 21
131.523
 31
0.0
  0
LINE
  8
0
 62
     0
 10
199.344
 20
131.523
 30
0.0
 11
198.545
 21
131.523
 31
0.0
  0
LINE
  8
0
 62
     0
 10
198.545
 20
131.523
 30
0.0
 11
198.545
 21
137.322
 31
0.0
  0
LINE
  8
0
 62
     0
 10
198.545
 20
137.322
 30
0.0
 11
199.344
 21
137.322
 31
0.0
  0
LINE
  8
0
 62
     0
 10
199.344
 20
137.322
 30
0.0
 11
199.344
 21
140.422
 31
0.0
  0
LINE
  8
0
 62
     0
 10
199.344
 20
140.422
 30
0.0
 11
198.545
 21
140.422
 31
0.0
  0
LINE
  8
0
 62
     0
 10
198.545
 20
140.422
 30
0.0
 11
198.545
 21
141.423
 31
0.0
  0
LINE
  8
0
 62
     0
 10
198.545
 20
141.423
 30
0.0
 11
184.544
 21
141.423
 31
0.0
  0
LINE
  8
0
 62
     0
 10
165.494
 20
141.423
 30
0.0
 11
165.494
 21
140.422
 31
0.0
  0
LINE
  8
0
 62
     0
 10
165.494
 20
140.422
 30
0.0
 11
164.695
 21
140.422
 31
0.0
  0
LINE
  8
0
 62
     0
 10
164.695
 20
140.422
 30
0.0
 11
164.695
 21
137.322
 31
0.0
  0
LINE
  8
0
 62
     0
 10
164.695
 20
137.322
 30
0.0
 11
165.494
 21
137.322
 31
0.0
  0
LINE
  8
0
 62
     0
 10
165.494
 20
137.322
 30
0.0
 11
165.494
 21
131.523
 31
0.0
  0
LINE
  8
0
 62
     0
 10
165.494
 20
131.523
 30
0.0
 11
164.695
 21
131.523
 31
0.0
  0
LINE
  8
0
 62
     0
 10
164.695
 20
131.523
 30
0.0
 11
164.695
 21
128.422
 31
0.0
  0
LINE
  8
0
 62
     0
 10
164.695
 20
128.422
 30
0.0
 11
165.494
 21
128.422
 31
0.0
  0
LINE
  8
0
 62
     0
 10
165.494
 20
128.422
 30
0.0
 11
165.494
 21
127.422
 31
0.0
  0
LINE
  8
0
 62
     0
 10
165.494
 20
127.422
 30
0.0
 11
179.495
 21
127.422
 31
0.0
  0
LINE
  8
0
 62
     0
 10
179.495
 20
127.422
 30
0.0
 11
179.495
 21
128.422
 31
0.0
  0
LINE
  8
0
 62
     0
 10
179.495
 20
128.422
 30
0.0
 11
180.294
 21
128.422
 31
0.0
  0
LINE
  8
0
 62
     0
 10
180.294
 20
128.422
 30
0.0
 11
180.294
 21
131.523
 31
0.0
  0
LINE
  8
0
 62
     0
 10
180.294
 20
131.523
 30
0.0
 11
179.495
 21
131.523
 31
0.0
  0
LINE
  8
0
 62
     0
 10
179.495
 20
131.523
 30
0.0
 11
179.495
 21
137.322
 31
0.0
  0
LINE
  8
0
 62
     0
 10
179.495
 20
137.322
 30
0.0
 11
180.294
 21
137.322
 31
0.0
  0
LINE
  8
0
 62
     0
 10
180.294
 20
137.322
 30
0.0
 11
180.294
 21
140.422
 31
0.0
  0
LINE
  8
0
 62
     0
 10
180.294
 20
140.422
 30
0.0
 11
179.495
 21
140.422
 31
0.0
  0
LINE
  8
0
 62
     0
 10
179.495
 20
140.422
 30
0.0
 11
179.495
 21
141.423
 31
0.0
  0
LINE
  8
0
 62
     0
 10
179.495
 20
141.423
 30
0.0
 11
165.494
 21
141.423
 31
0.0
  0
LINE
  8
0
 62
     0
 10
146.444
 20
141.423
 30
0.0
 11
146.444
 21
140.422
 31
0.0
  0
LINE
  8
0
 62
     0
 10
146.444
 20
140.422
 30
0.0
 11
145.645
 21
140.422
 31
0.0
  0
LINE
  8
0
 62
     0
 10
145.645
 20
140.422
 30
0.0
 11
145.645
 21
137.322
 31
0.0
  0
LINE
  8
0
 62
     0
 10
145.645
 20
137.322
 30
0.0
 11
146.444
 21
137.322
 31
0.0
  0
LINE
  8
0
 62
     0
 10
146.444
 20
137.322
 30
0.0
 11
146.444
 21
131.523
 31
0.0
  0
LINE
  8
0
 62
     0
 10
146.444
 20
131.523
 30
0.0
 11
145.645
 21
131.523
 31
0.0
  0
LINE
  8
0
 62
     0
 10
145.645
 20
131.523
 30
0.0
 11
145.645
 21
128.422
 31
0.0
  0
LINE
  8
0
 62
     0
 10
145.645
 20
128.422
 30
0.0
 11
146.444
 21
128.422
 31
0.0
  0
LINE
  8
0
 62
     0
 10
146.444
 20
128.422
 30
0.0
 11
146.444
 21
127.422
 31
0.0
  0
LINE
  8
0
 62
     0
 10
146.444
 20
127.422
 30
0.0
 11
160.445
 21
127.422
 31
0.0
  0
LINE
  8
0
 62
     0
 10
160.445
 20
127.422
 30
0.0
 11
160.445
 21
128.422
 31
0.0
  0
LINE
  8
0
 62
     0
 10
160.445
 20
128.422
 30
0.0
 11
161.244
 21
128.422
 31
0.0
  0
LINE
  8
0
 62
     0
 10
161.244
 20
128.422
 30
0.0
 11
161.244
 21
131.523
 31
0.0
  0
LINE
  8
0
 62
     0
 10
161.244
 20
131.523
 30
0.0
 11
160.445
 21
131.523
 31
0.0
  0
LINE
  8
0
 62
     0
 10
160.445
 20
131.523
 30
0.0
 11
160.445
 21
137.322
 31
0.0
  0
LINE
  8
0
 62
     0
 10
160.445
 20
137.322
 30
0.0
 11
161.244
 21
137.322
 31
0.0
  0
LINE
  8
0
 62
     0
 10
161.244
 20
137.322
 30
0.0
 11
161.244
 21
140.422
 31
0.0
  0
LINE
  8
0
 62
     0
 10
161.244
 20
140.422
 30
0.0
 11
160.445
 21
140.422
 31
0.0
  0
LINE
  8
0
 62
     0
 10
160.445
 20
140.422
 30
0.0
 11
160.445
 21
141.423
 31
0.0
  0
LINE
  8
0
 62
     0
 10
160.445
 20
141.423
 30
0.0
 11
146.444
 21
141.423
 31
0.0
  0
LINE
  8
0
 62
     0
 10
117.869
 20
141.423
 30
0.0
 11
117.869
 21
140.422
 31
0.0
  0
LINE
  8
0
 62
     0
 10
117.869
 20
140.422
 30
0.0
 11
117.07
 21
140.422
 31
0.0
  0
LINE
  8
0
 62
     0
 10
117.07
 20
140.422
 30
0.0
 11
117.07
 21
137.322
 31
0.0
  0
LINE
  8
0
 62
     0
 10
117.07
 20
137.322
 30
0.0
 11
117.869
 21
137.322
 31
0.0
  0
LINE
  8
0
 62
     0
 10
117.869
 20
137.322
 30
0.0
 11
117.869
 21
131.523
 31
0.0
  0
LINE
  8
0
 62
     0
 10
117.869
 20
131.523
 30
0.0
 11
117.07
 21
131.523
 31
0.0
  0
LINE
  8
0
 62
     0
 10
117.07
 20
131.523
 30
0.0
 11
117.07
 21
128.422
 31
0.0
  0
LINE
  8
0
 62
     0
 10
117.07
 20
128.422
 30
0.0
 11
117.869
 21
128.422
 31
0.0
  0
LINE
  8
0
 62
     0
 10
117.869
 20
128.422
 30
0.0
 11
117.869
 21
127.422
 31
0.0
  0
LINE
  8
0
 62
     0
 10
117.869
 20
127.422
 30
0.0
 11
131.87
 21
127.422
 31
0.0
  0
LINE
  8
0
 62
     0
 10
131.87
 20
127.422
 30
0.0
 11
131.87
 21
128.422
 31
0.0
  0
LINE
  8
0
 62
     0
 10
131.87
 20
128.422
 30
0.0
 11
132.669
 21
128.422
 31
0.0
  0
LINE
  8
0
 62
     0
 10
132.669
 20
128.422
 30
0.0
 11
132.669
 21
131.523
 31
0.0
  0
LINE
  8
0
 62
     0
 10
132.669
 20
131.523
 30
0.0
 11
131.87
 21
131.523
 31
0.0
  0
LINE
  8
0
 62
     0
 10
131.87
 20
131.523
 30
0.0
 11
131.87
 21
137.322
 31
0.0
  0
LINE
  8
0
 62
     0
 10
131.87
 20
137.322
 30
0.0
 11
132.669
 21
137.322
 31
0.0
  0
LINE
  8
0
 62
     0
 10
132.669
 20
137.322
 30
0.0
 11
132.669
 21
140.422
 31
0.0
  0
LINE
  8
0
 62
     0
 10
132.669
 20
140.422
 30
0.0
 11
131.87
 21
140.422
 31
0.0
  0
LINE
  8
0
 62
     0
 10
131.87
 20
140.422
 30
0.0
 11
131.87
 21
141.423
 31
0.0
  0
LINE
  8
0
 62
     0
 10
131.87
 20
141.423
 30
0.0
 11
117.869
 21
141.423
 31
0.0
  0
LINE
  8
0
 62
     0
 10
98.8191
 20
141.423
 30
0.0
 11
98.8191
 21
140.422
 31
0.0
  0
LINE
  8
0
 62
     0
 10
98.8191
 20
140.422
 30
0.0
 11
98.02
 21
140.422
 31
0.0
  0
LINE
  8
0
 62
     0
 10
98.02
 20
140.422
 30
0.0
 11
98.02
 21
137.322
 31
0.0
  0
LINE
  8
0
 62
     0
 10
98.02
 20
137.322
 30
0.0
 11
98.8191
 21
137.322
 31
0.0
  0
LINE
  8
0
 62
     0
 10
98.8191
 20
137.322
 30
0.0
 11
98.8191
 21
131.523
 31
0.0
  0
LINE
  8
0
 62
     0
 10
98.8191
 20
131.523
 30
0.0
 11
98.02
 21
131.523
 31
0.0
  0
LINE
  8
0
 62
     0
 10
98.02
 20
131.523
 30
0.0
 11
98.02
 21
128.422
 31
0.0
  0
LINE
  8
0
 62
     0
 10
98.02
 20
128.422
 30
0.0
 11
98.8191
 21
128.422
 31
0.0
  0
LINE
  8
0
 62
     0
 10
98.8191
 20
128.422
 30
0.0
 11
98.8191
 21
127.422
 31
0.0
  0
LINE
  8
0
 62
     0
 10
98.8191
 20
127.422
 30
0.0
 11
112.82
 21
127.422
 31
0.0
  0
LINE
  8
0
 62
     0
 10
112.82
 20
127.422
 30
0.0
 11
112.82
 21
128.422
 31
0.0
  0
LINE
  8
0
 62
     0
 10
112.82
 20
128.422
 30
0.0
 11
113.618
 21
128.422
 31
0.0
  0
LINE
  8
0
 62
     0
 10
113.618
 20
128.422
 30
0.0
 11
113.618
 21
131.523
 31
0.0
  0
LINE
  8
0
 62
     0
 10
113.618
 20
131.523
 30
0.0
 11
112.82
 21
131.523
 31
0.0
  0
LINE
  8
0
 62
     0
 10
112.82
 20
131.523
 30
0.0
 11
112.82
 21
137.322
 31
0.0
  0
LINE
  8
0
 62
     0
 10
112.82
 20
137.322
 30
0.0
 11
113.618
 21
137.322
 31
0.0
  0
LINE
  8
0
 62
     0
 10
113.618
 20
137.322
 30
0.0
 11
113.618
 21
140.422
 31
0.0
  0
LINE
  8
0
 62
     0
 10
113.618
 20
140.422
 30
0.0
 11
112.82
 21
140.422
 31
0.0
  0
LINE
  8
0
 62
     0
 10
112.82
 20
140.422
 30
0.0
 11
112.82
 21
141.423
 31
0.0
  0
LINE
  8
0
 62
     0
 10
112.82
 20
141.423
 30
0.0
 11
98.8191
 21
141.423
 31
0.0
  0
LINE
  8
0
 62
     0
 10
79.7691
 20
141.423
 30
0.0
 11
79.7691
 21
140.422
 31
0.0
  0
LINE
  8
0
 62
     0
 10
79.7691
 20
140.422
 30
0.0
 11
78.97
 21
140.422
 31
0.0
  0
LINE
  8
0
 62
     0
 10
78.97
 20
140.422
 30
0.0
 11
78.97
 21
137.322
 31
0.0
  0
LINE
  8
0
 62
     0
 10
78.97
 20
137.322
 30
0.0
 11
79.7691
 21
137.322
 31
0.0
  0
LINE
  8
0
 62
     0
 10
79.7691
 20
137.322
 30
0.0
 11
79.7691
 21
131.523
 31
0.0
  0
LINE
  8
0
 62
     0
 10
79.7691
 20
131.523
 30
0.0
 11
78.97
 21
131.523
 31
0.0
  0
LINE
  8
0
 62
     0
 10
78.97
 20
131.523
 30
0.0
 11
78.97
 21
128.422
 31
0.0
  0
LINE
  8
0
 62
     0
 10
78.97
 20
128.422
 30
0.0
 11
79.7691
 21
128.422
 31
0.0
  0
LINE
  8
0
 62
     0
 10
79.7691
 20
128.422
 30
0.0
 11
79.7691
 21
127.422
 31
0.0
  0
LINE
  8
0
 62
     0
 10
79.7691
 20
127.422
 30
0.0
 11
93.7701
 21
127.422
 31
0.0
  0
LINE
  8
0
 62
     0
 10
93.7701
 20
127.422
 30
0.0
 11
93.7701
 21
128.422
 31
0.0
  0
LINE
  8
0
 62
     0
 10
93.7701
 20
128.422
 30
0.0
 11
94.5691
 21
128.422
 31
0.0
  0
LINE
  8
0
 62
     0
 10
94.5691
 20
128.422
 30
0.0
 11
94.5691
 21
131.523
 31
0.0
  0
LINE
  8
0
 62
     0
 10
94.5691
 20
131.523
 30
0.0
 11
93.7701
 21
131.523
 31
0.0
  0
LINE
  8
0
 62
     0
 10
93.7701
 20
131.523
 30
0.0
 11
93.7701
 21
137.322
 31
0.0
  0
LINE
  8
0
 62
     0
 10
93.7701
 20
137.322
 30
0.0
 11
94.5691
 21
137.322
 31
0.0
  0
LINE
  8
0
 62
     0
 10
94.5691
 20
137.322
 30
0.0
 11
94.5691
 21
140.422
 31
0.0
  0
LINE
  8
0
 62
     0
 10
94.5691
 20
140.422
 30
0.0
 11
93.7701
 21
140.422
 31
0.0
  0
LINE
  8
0
 62
     0
 10
93.7701
 20
140.422
 30
0.0
 11
93.7701
 21
141.423
 31
0.0
  0
LINE
  8
0
 62
     0
 10
93.7701
 20
141.423
 30
0.0
 11
79.7691
 21
141.423
 31
0.0
  0
LINE
  8
0
 62
     0
 10
60.7191
 20
141.423
 30
0.0
 11
60.7191
 21
140.422
 31
0.0
  0
LINE
  8
0
 62
     0
 10
60.7191
 20
140.422
 30
0.0
 11
59.92
 21
140.422
 31
0.0
  0
LINE
  8
0
 62
     0
 10
59.92
 20
140.422
 30
0.0
 11
59.92
 21
137.322
 31
0.0
  0
LINE
  8
0
 62
     0
 10
59.92
 20
137.322
 30
0.0
 11
60.7191
 21
137.322
 31
0.0
  0
LINE
  8
0
 62
     0
 10
60.7191
 20
137.322
 30
0.0
 11
60.7191
 21
131.523
 31
0.0
  0
LINE
  8
0
 62
     0
 10
60.7191
 20
131.523
 30
0.0
 11
59.92
 21
131.523
 31
0.0
  0
LINE
  8
0
 62
     0
 10
59.92
 20
131.523
 30
0.0
 11
59.92
 21
128.422
 31
0.0
  0
LINE
  8
0
 62
     0
 10
59.92
 20
128.422
 30
0.0
 11
60.7191
 21
128.422
 31
0.0
  0
LINE
  8
0
 62
     0
 10
60.7191
 20
128.422
 30
0.0
 11
60.7191
 21
127.422
 31
0.0
  0
LINE
  8
0
 62
     0
 10
60.7191
 20
127.422
 30
0.0
 11
74.7201
 21
127.422
 31
0.0
  0
LINE
  8
0
 62
     0
 10
74.7201
 20
127.422
 30
0.0
 11
74.7201
 21
128.422
 31
0.0
  0
LINE
  8
0
 62
     0
 10
74.7201
 20
128.422
 30
0.0
 11
75.5191
 21
128.422
 31
0.0
  0
LINE
  8
0
 62
     0
 10
75.5191
 20
128.422
 30
0.0
 11
75.5191
 21
131.523
 31
0.0
  0
LINE
  8
0
 62
     0
 10
75.5191
 20
131.523
 30
0.0
 11
74.7201
 21
131.523
 31
0.0
  0
LINE
  8
0
 62
     0
 10
74.7201
 20
131.523
 30
0.0
 11
74.7201
 21
137.322
 31
0.0
  0
LINE
  8
0
 62
     0
 10
74.7201
 20
137.322
 30
0.0
 11
75.5191
 21
137.322
 31
0.0
  0
LINE
  8
0
 62
     0
 10
75.5191
 20
137.322
 30
0.0
 11
75.5191
 21
140.422
 31
0.0
  0
LINE
  8
0
 62
     0
 10
75.5191
 20
140.422
 30
0.0
 11
74.7201
 21
140.422
 31
0.0
  0
LINE
  8
0
 62
     0
 10
74.7201
 20
140.422
 30
0.0
 11
74.7201
 21
141.423
 31
0.0
  0
LINE
  8
0
 62
     0
 10
74.7201
 20
141.423
 30
0.0
 11
60.7191
 21
141.423
 31
0.0
  0
LINE
  8
0
 62
     0
 10
22.6191
 20
141.423
 30
0.0
 11
22.6191
 21
140.422
 31
0.0
  0
LINE
  8
0
 62
     0
 10
22.6191
 20
140.422
 30
0.0
 11
21.8185
 21
140.422
 31
0.0
  0
LINE
  8
0
 62
     0
 10
21.8185
 20
140.422
 30
0.0
 11
21.8185
 21
137.322
 31
0.0
  0
LINE
  8
0
 62
     0
 10
21.8185
 20
137.322
 30
0.0
 11
22.6191
 21
137.322
 31
0.0
  0
LINE
  8
0
 62
     0
 10
22.6191
 20
137.322
 30
0.0
 11
22.6191
 21
131.523
 31
0.0
  0
LINE
  8
0
 62
     0
 10
22.6191
 20
131.523
 30
0.0
 11
21.8185
 21
131.523
 31
0.0
  0
LINE
  8
0
 62
     0
 10
21.8185
 20
131.523
 30
0.0
 11
21.8185
 21
128.422
 31
0.0
  0
LINE
  8
0
 62
     0
 10
21.8185
 20
128.422
 30
0.0
 11
22.6191
 21
128.422
 31
0.0
  0
LINE
  8
0
 62
     0
 10
22.6191
 20
128.422
 30
0.0
 11
22.6191
 21
127.422
 31
0.0
  0
LINE
  8
0
 62
     0
 10
22.6191
 20
127.422
 30
0.0
 11
36.6201
 21
127.422
 31
0.0
  0
LINE
  8
0
 62
     0
 10
36.6201
 20
127.422
 30
0.0
 11
36.6201
 21
128.422
 31
0.0
  0
LINE
  8
0
 62
     0
 10
36.6201
 20
128.422
 30
0.0
 11
37.4177
 21
128.422
 31
0.0
  0
LINE
  8
0
 62
     0
 10
37.4177
 20
128.422
 30
0.0
 11
37.4177
 21
131.523
 31
0.0
  0
LINE
  8
0
 62
     0
 10
37.4177
 20
131.523
 30
0.0
 11
36.6201
 21
131.523
 31
0.0
  0
LINE
  8
0
 62
     0
 10
36.6201
 20
131.523
 30
0.0
 11
36.6201
 21
137.322
 31
0.0
  0
LINE
  8
0
 62
     0
 10
36.6201
 20
137.322
 30
0.0
 11
37.4177
 21
137.322
 31
0.0
  0
LINE
  8
0
 62
     0
 10
37.4177
 20
137.322
 30
0.0
 11
37.4177
 21
140.422
 31
0.0
  0
LINE
  8
0
 62
     0
 10
37.4177
 20
140.422
 30
0.0
 11
36.6201
 21
140.422
 31
0.0
  0
LINE
  8
0
 62
     0
 10
36.6201
 20
140.422
 30
0.0
 11
36.6201
 21
141.423
 31
0.0
  0
LINE
  8
0
 62
     0
 10
36.6201
 20
141.423
 30
0.0
 11
22.6191
 21
141.423
 31
0.0
  0
ENDSEC
  0
EOF
